%TF.GenerationSoftware,KiCad,Pcbnew,(6.0.10-0)*%
%TF.CreationDate,2022-12-23T16:53:29-05:00*%
%TF.ProjectId,LCD-StemmaQT,4c43442d-5374-4656-9d6d-6151542e6b69,1.0.0*%
%TF.SameCoordinates,Original*%
%TF.FileFunction,Copper,L1,Top*%
%TF.FilePolarity,Positive*%
%FSLAX46Y46*%
G04 Gerber Fmt 4.6, Leading zero omitted, Abs format (unit mm)*
G04 Created by KiCad (PCBNEW (6.0.10-0)) date 2022-12-23 16:53:29*
%MOMM*%
%LPD*%
G01*
G04 APERTURE LIST*
G04 Aperture macros list*
%AMRoundRect*
0 Rectangle with rounded corners*
0 $1 Rounding radius*
0 $2 $3 $4 $5 $6 $7 $8 $9 X,Y pos of 4 corners*
0 Add a 4 corners polygon primitive as box body*
4,1,4,$2,$3,$4,$5,$6,$7,$8,$9,$2,$3,0*
0 Add four circle primitives for the rounded corners*
1,1,$1+$1,$2,$3*
1,1,$1+$1,$4,$5*
1,1,$1+$1,$6,$7*
1,1,$1+$1,$8,$9*
0 Add four rect primitives between the rounded corners*
20,1,$1+$1,$2,$3,$4,$5,0*
20,1,$1+$1,$4,$5,$6,$7,0*
20,1,$1+$1,$6,$7,$8,$9,0*
20,1,$1+$1,$8,$9,$2,$3,0*%
%AMFreePoly0*
4,1,6,1.000000,0.000000,0.500000,-0.750000,-0.500000,-0.750000,-0.500000,0.750000,0.500000,0.750000,1.000000,0.000000,1.000000,0.000000,$1*%
%AMFreePoly1*
4,1,6,0.500000,-0.750000,-0.650000,-0.750000,-0.150000,0.000000,-0.650000,0.750000,0.500000,0.750000,0.500000,-0.750000,0.500000,-0.750000,$1*%
G04 Aperture macros list end*
%ADD10C,0.200000*%
%TA.AperFunction,NonConductor*%
%ADD11C,0.200000*%
%TD*%
%TA.AperFunction,SMDPad,CuDef*%
%ADD12R,0.400000X1.000000*%
%TD*%
%TA.AperFunction,SMDPad,CuDef*%
%ADD13FreePoly0,90.000000*%
%TD*%
%TA.AperFunction,SMDPad,CuDef*%
%ADD14FreePoly1,90.000000*%
%TD*%
%TA.AperFunction,SMDPad,CuDef*%
%ADD15RoundRect,0.237500X0.237500X-0.300000X0.237500X0.300000X-0.237500X0.300000X-0.237500X-0.300000X0*%
%TD*%
%TA.AperFunction,SMDPad,CuDef*%
%ADD16RoundRect,0.237500X-0.237500X0.250000X-0.237500X-0.250000X0.237500X-0.250000X0.237500X0.250000X0*%
%TD*%
%TA.AperFunction,ComponentPad*%
%ADD17C,1.440000*%
%TD*%
%TA.AperFunction,SMDPad,CuDef*%
%ADD18RoundRect,0.150000X-0.625000X0.150000X-0.625000X-0.150000X0.625000X-0.150000X0.625000X0.150000X0*%
%TD*%
%TA.AperFunction,SMDPad,CuDef*%
%ADD19RoundRect,0.250000X-0.650000X0.350000X-0.650000X-0.350000X0.650000X-0.350000X0.650000X0.350000X0*%
%TD*%
%TA.AperFunction,SMDPad,CuDef*%
%ADD20RoundRect,0.237500X-0.237500X0.287500X-0.237500X-0.287500X0.237500X-0.287500X0.237500X0.287500X0*%
%TD*%
%TA.AperFunction,SMDPad,CuDef*%
%ADD21RoundRect,0.150000X0.150000X-0.587500X0.150000X0.587500X-0.150000X0.587500X-0.150000X-0.587500X0*%
%TD*%
%TA.AperFunction,SMDPad,CuDef*%
%ADD22RoundRect,0.237500X0.237500X-0.250000X0.237500X0.250000X-0.237500X0.250000X-0.237500X-0.250000X0*%
%TD*%
%TA.AperFunction,ComponentPad*%
%ADD23R,1.700000X1.700000*%
%TD*%
%TA.AperFunction,ComponentPad*%
%ADD24O,1.700000X1.700000*%
%TD*%
%TA.AperFunction,ViaPad*%
%ADD25C,0.800000*%
%TD*%
%TA.AperFunction,Conductor*%
%ADD26C,0.500000*%
%TD*%
%TA.AperFunction,Conductor*%
%ADD27C,0.250000*%
%TD*%
%TA.AperFunction,Conductor*%
%ADD28C,0.400000*%
%TD*%
G04 APERTURE END LIST*
D10*
D11*
X154500000Y-99657142D02*
X154500000Y-99085714D01*
X154842857Y-99771428D02*
X153642857Y-99371428D01*
X154842857Y-98971428D01*
X153757142Y-98628571D02*
X153700000Y-98571428D01*
X153642857Y-98457142D01*
X153642857Y-98171428D01*
X153700000Y-98057142D01*
X153757142Y-98000000D01*
X153871428Y-97942857D01*
X153985714Y-97942857D01*
X154157142Y-98000000D01*
X154842857Y-98685714D01*
X154842857Y-97942857D01*
D12*
%TO.P,U101,1,~{INT}*%
%TO.N,unconnected-(U101-Pad1)*%
X144400000Y-93000000D03*
%TO.P,U101,2,SCL*%
%TO.N,/SCL*%
X145050000Y-93000000D03*
%TO.P,U101,3,NC*%
%TO.N,unconnected-(U101-Pad3)*%
X145700000Y-93000000D03*
%TO.P,U101,4,SDA*%
%TO.N,/SDA*%
X146350000Y-93000000D03*
%TO.P,U101,5,VDD*%
%TO.N,VCC*%
X147000000Y-93000000D03*
%TO.P,U101,6,A0*%
%TO.N,/A0*%
X147650000Y-93000000D03*
%TO.P,U101,7,A1*%
%TO.N,/A1*%
X148300000Y-93000000D03*
%TO.P,U101,8,NC*%
%TO.N,unconnected-(U101-Pad8)*%
X148950000Y-93000000D03*
%TO.P,U101,9,A2*%
%TO.N,/A2*%
X149600000Y-93000000D03*
%TO.P,U101,10,P0*%
%TO.N,/RS*%
X150250000Y-93000000D03*
%TO.P,U101,11,P1*%
%TO.N,/RW*%
X150250000Y-87200000D03*
%TO.P,U101,12,P2*%
%TO.N,/CS*%
X149600000Y-87200000D03*
%TO.P,U101,13,NC*%
%TO.N,unconnected-(U101-Pad13)*%
X148950000Y-87200000D03*
%TO.P,U101,14,P3*%
%TO.N,/LCD_BL*%
X148300000Y-87200000D03*
%TO.P,U101,15,VSS*%
%TO.N,GND*%
X147650000Y-87200000D03*
%TO.P,U101,16,P4*%
%TO.N,/DB4*%
X147000000Y-87200000D03*
%TO.P,U101,17,P5*%
%TO.N,/DB5*%
X146350000Y-87200000D03*
%TO.P,U101,18,NC*%
%TO.N,unconnected-(U101-Pad18)*%
X145700000Y-87200000D03*
%TO.P,U101,19,P6*%
%TO.N,/DB6*%
X145050000Y-87200000D03*
%TO.P,U101,20,P7*%
%TO.N,/DB7*%
X144400000Y-87200000D03*
%TD*%
D13*
%TO.P,JP102,1,A*%
%TO.N,GND*%
X147700000Y-100025000D03*
D14*
%TO.P,JP102,2,B*%
%TO.N,/A1*%
X147700000Y-98575000D03*
%TD*%
D15*
%TO.P,C101,1*%
%TO.N,VCC*%
X152125000Y-90862500D03*
%TO.P,C101,2*%
%TO.N,GND*%
X152125000Y-89137500D03*
%TD*%
D16*
%TO.P,R102,1*%
%TO.N,VCC*%
X168225000Y-93962500D03*
%TO.P,R102,2*%
%TO.N,Net-(D101-Pad2)*%
X168225000Y-95787500D03*
%TD*%
D13*
%TO.P,JP101,1,A*%
%TO.N,GND*%
X143500000Y-100025000D03*
D14*
%TO.P,JP101,2,B*%
%TO.N,/A0*%
X143500000Y-98575000D03*
%TD*%
D16*
%TO.P,R107,1*%
%TO.N,VCC*%
X168225000Y-90512500D03*
%TO.P,R107,2*%
%TO.N,/SDA*%
X168225000Y-92337500D03*
%TD*%
%TO.P,R103,1*%
%TO.N,VCC*%
X143500000Y-94887500D03*
%TO.P,R103,2*%
%TO.N,/A0*%
X143500000Y-96712500D03*
%TD*%
D17*
%TO.P,RV101,1,1*%
%TO.N,VCC*%
X163580000Y-88610000D03*
%TO.P,RV101,2,2*%
%TO.N,/LCD_VO*%
X158500000Y-91150000D03*
%TO.P,RV101,3,3*%
%TO.N,GND*%
X163580000Y-93690000D03*
%TD*%
D18*
%TO.P,J101,1,Pin_1*%
%TO.N,/SCL*%
X172675000Y-91400000D03*
%TO.P,J101,2,Pin_2*%
%TO.N,/SDA*%
X172675000Y-92400000D03*
%TO.P,J101,3,Pin_3*%
%TO.N,VCC*%
X172675000Y-93400000D03*
%TO.P,J101,4,Pin_4*%
%TO.N,GND*%
X172675000Y-94400000D03*
D19*
%TO.P,J101,MP*%
%TO.N,N/C*%
X175200000Y-90100000D03*
X175200000Y-95700000D03*
%TD*%
D20*
%TO.P,D101,1,K*%
%TO.N,GND*%
X170075000Y-94825000D03*
%TO.P,D101,2,A*%
%TO.N,Net-(D101-Pad2)*%
X170075000Y-96575000D03*
%TD*%
D21*
%TO.P,Q101,1,B*%
%TO.N,/LCD_BL*%
X135950000Y-89050000D03*
%TO.P,Q101,2,E*%
%TO.N,GND*%
X137850000Y-89050000D03*
%TO.P,Q101,3,C*%
%TO.N,/LCD_K*%
X136900000Y-87175000D03*
%TD*%
D22*
%TO.P,R101,1*%
%TO.N,VCC*%
X135950000Y-92875000D03*
%TO.P,R101,2*%
%TO.N,/LCD_BL*%
X135950000Y-91050000D03*
%TD*%
D16*
%TO.P,R105,1*%
%TO.N,VCC*%
X152150000Y-94887500D03*
%TO.P,R105,2*%
%TO.N,/A2*%
X152150000Y-96712500D03*
%TD*%
%TO.P,R106,1*%
%TO.N,VCC*%
X170075000Y-89562500D03*
%TO.P,R106,2*%
%TO.N,/SCL*%
X170075000Y-91387500D03*
%TD*%
%TO.P,R104,1*%
%TO.N,VCC*%
X147700000Y-94887500D03*
%TO.P,R104,2*%
%TO.N,/A1*%
X147700000Y-96712500D03*
%TD*%
D23*
%TO.P,J103,1,Pin_1*%
%TO.N,/LCD_A*%
X139575000Y-98318343D03*
D24*
%TO.P,J103,2,Pin_2*%
%TO.N,VCC*%
X139575000Y-95778343D03*
%TD*%
D13*
%TO.P,JP103,1,A*%
%TO.N,GND*%
X152150000Y-100025000D03*
D14*
%TO.P,JP103,2,B*%
%TO.N,/A2*%
X152150000Y-98575000D03*
%TD*%
D23*
%TO.P,J102,1,Pin_1*%
%TO.N,GND*%
X174900000Y-84250000D03*
D24*
%TO.P,J102,2,Pin_2*%
%TO.N,VCC*%
X172360000Y-84250000D03*
%TO.P,J102,3,Pin_3*%
%TO.N,/LCD_VO*%
X169820000Y-84250000D03*
%TO.P,J102,4,Pin_4*%
%TO.N,/RS*%
X167280000Y-84250000D03*
%TO.P,J102,5,Pin_5*%
%TO.N,/RW*%
X164740000Y-84250000D03*
%TO.P,J102,6,Pin_6*%
%TO.N,/CS*%
X162200000Y-84250000D03*
%TO.P,J102,7,Pin_7*%
%TO.N,unconnected-(J102-Pad7)*%
X159660000Y-84250000D03*
%TO.P,J102,8,Pin_8*%
%TO.N,unconnected-(J102-Pad8)*%
X157120000Y-84250000D03*
%TO.P,J102,9,Pin_9*%
%TO.N,unconnected-(J102-Pad9)*%
X154580000Y-84250000D03*
%TO.P,J102,10,Pin_10*%
%TO.N,unconnected-(J102-Pad10)*%
X152040000Y-84250000D03*
%TO.P,J102,11,Pin_11*%
%TO.N,/DB4*%
X149500000Y-84250000D03*
%TO.P,J102,12,Pin_12*%
%TO.N,/DB5*%
X146960000Y-84250000D03*
%TO.P,J102,13,Pin_13*%
%TO.N,/DB6*%
X144420000Y-84250000D03*
%TO.P,J102,14,Pin_14*%
%TO.N,/DB7*%
X141880000Y-84250000D03*
%TO.P,J102,15,Pin_15*%
%TO.N,/LCD_A*%
X139340000Y-84250000D03*
%TO.P,J102,16,Pin_16*%
%TO.N,/LCD_K*%
X136800000Y-84250000D03*
%TD*%
D25*
%TO.N,VCC*%
X150900000Y-94900000D03*
X146350000Y-94900000D03*
X147525000Y-91700000D03*
%TO.N,GND*%
X147675000Y-88550000D03*
X145525000Y-100025000D03*
X137850000Y-90500000D03*
X171300000Y-94400000D03*
X152175000Y-87825000D03*
X149950000Y-100025000D03*
%TO.N,/SCL*%
X155494227Y-93950500D03*
X145025000Y-90075000D03*
%TO.N,/SDA*%
X146325000Y-90799500D03*
X154704457Y-94616212D03*
%TD*%
D26*
%TO.N,VCC*%
X172612500Y-89562500D02*
X170075000Y-89562500D01*
X168787500Y-93400000D02*
X168225000Y-93962500D01*
X172675000Y-93400000D02*
X173550000Y-93400000D01*
X168225000Y-90587500D02*
X169050000Y-90587500D01*
D27*
X152150000Y-94887500D02*
X150912500Y-94887500D01*
D26*
X172675000Y-93400000D02*
X168787500Y-93400000D01*
X174200000Y-92750000D02*
X174200000Y-91150000D01*
D27*
X147000000Y-92225000D02*
X147537500Y-91687500D01*
X147000000Y-93000000D02*
X147000000Y-92225000D01*
D26*
X174200000Y-91150000D02*
X172612500Y-89562500D01*
X173550000Y-93400000D02*
X174200000Y-92750000D01*
D27*
X147700000Y-94887500D02*
X146362500Y-94887500D01*
D26*
X169050000Y-90587500D02*
X170075000Y-89562500D01*
D27*
X150912500Y-94887500D02*
X150900000Y-94900000D01*
X168206250Y-90606250D02*
X168225000Y-90587500D01*
X147537500Y-91687500D02*
X147525000Y-91700000D01*
X146362500Y-94887500D02*
X146350000Y-94900000D01*
%TO.N,GND*%
X149950000Y-100025000D02*
X152150000Y-100025000D01*
X152125000Y-89137500D02*
X152125000Y-87875000D01*
X152125000Y-87875000D02*
X152175000Y-87825000D01*
X143500000Y-100025000D02*
X145525000Y-100025000D01*
X147700000Y-100025000D02*
X149950000Y-100025000D01*
X145525000Y-100025000D02*
X147700000Y-100025000D01*
X147650000Y-88525000D02*
X147675000Y-88550000D01*
D26*
X171300000Y-94400000D02*
X172675000Y-94400000D01*
D27*
X147650000Y-87200000D02*
X147650000Y-88525000D01*
D26*
X170500000Y-94400000D02*
X171300000Y-94400000D01*
D27*
X137850000Y-89050000D02*
X137850000Y-90500000D01*
X170075000Y-94825000D02*
X170500000Y-94400000D01*
%TO.N,Net-(D101-Pad2)*%
X169287500Y-95787500D02*
X170075000Y-96575000D01*
X168225000Y-95787500D02*
X169287500Y-95787500D01*
%TO.N,/SCL*%
X162551104Y-91887500D02*
X160463604Y-93975000D01*
X170075000Y-91387500D02*
X170062500Y-91375000D01*
X162562500Y-91887500D02*
X162551104Y-91887500D01*
X155518727Y-93975000D02*
X155494227Y-93950500D01*
X160463604Y-93975000D02*
X155518727Y-93975000D01*
X145050000Y-93000000D02*
X145050000Y-90100000D01*
X163075000Y-91375000D02*
X162562500Y-91887500D01*
X170087500Y-91400000D02*
X170075000Y-91387500D01*
X170062500Y-91375000D02*
X163075000Y-91375000D01*
X172675000Y-91400000D02*
X170087500Y-91400000D01*
X145050000Y-90100000D02*
X145025000Y-90075000D01*
%TO.N,/SDA*%
X162737500Y-92337500D02*
X168225000Y-92337500D01*
X154763245Y-94675000D02*
X160400000Y-94675000D01*
X172675000Y-92400000D02*
X168237500Y-92400000D01*
X146325000Y-90799500D02*
X146325000Y-92975000D01*
X154763245Y-94675000D02*
X154704457Y-94616212D01*
X146325000Y-92975000D02*
X146350000Y-93000000D01*
X160400000Y-94675000D02*
X162737500Y-92337500D01*
%TO.N,/A0*%
X143500000Y-96712500D02*
X143500000Y-98575000D01*
X146187500Y-94025000D02*
X143500000Y-96712500D01*
X147650000Y-93000000D02*
X147650000Y-93750000D01*
X147375000Y-94025000D02*
X146187500Y-94025000D01*
X147650000Y-93750000D02*
X147375000Y-94025000D01*
%TO.N,/A1*%
X147700000Y-96712500D02*
X148900000Y-95512500D01*
X148900000Y-94300000D02*
X148300000Y-93700000D01*
X148300000Y-93700000D02*
X148300000Y-93000000D01*
X148900000Y-95512500D02*
X148900000Y-94300000D01*
X147700000Y-96712500D02*
X147700000Y-98575000D01*
%TO.N,/A2*%
X149600000Y-95600000D02*
X149600000Y-93000000D01*
X150712500Y-96712500D02*
X149600000Y-95600000D01*
X152150000Y-96712500D02*
X150712500Y-96712500D01*
X152125000Y-96712500D02*
X152125000Y-98575000D01*
%TO.N,/LCD_BL*%
X143875000Y-87975000D02*
X145175000Y-89275000D01*
X148400000Y-87300000D02*
X148300000Y-87200000D01*
X135950000Y-89050000D02*
X136434251Y-89050000D01*
X148400000Y-88850305D02*
X148400000Y-87300000D01*
X136434251Y-89050000D02*
X137509251Y-87975000D01*
X145175000Y-89275000D02*
X147975305Y-89275000D01*
X135950000Y-89050000D02*
X135950000Y-91050000D01*
X147975305Y-89275000D02*
X148400000Y-88850305D01*
X137509251Y-87975000D02*
X143875000Y-87975000D01*
%TO.N,/LCD_K*%
X136800000Y-87075000D02*
X136900000Y-87175000D01*
D28*
X136800000Y-84250000D02*
X136800000Y-87075000D01*
D27*
%TO.N,/RS*%
X152200000Y-93000000D02*
X150250000Y-93000000D01*
X163750000Y-86925000D02*
X158275000Y-86925000D01*
X158275000Y-86925000D02*
X152200000Y-93000000D01*
X166425000Y-84250000D02*
X163750000Y-86925000D01*
X167280000Y-84250000D02*
X166425000Y-84250000D01*
%TO.N,/RW*%
X162515000Y-86475000D02*
X164740000Y-84250000D01*
X150975000Y-86475000D02*
X162515000Y-86475000D01*
X150250000Y-87200000D02*
X150975000Y-86475000D01*
%TO.N,/CS*%
X160425000Y-86025000D02*
X162200000Y-84250000D01*
X150025000Y-86025000D02*
X160425000Y-86025000D01*
X149600000Y-86450000D02*
X150025000Y-86025000D01*
X149600000Y-87200000D02*
X149600000Y-86450000D01*
%TO.N,/DB4*%
X149250000Y-84250000D02*
X149500000Y-84250000D01*
X147000000Y-86500000D02*
X149250000Y-84250000D01*
X147000000Y-87200000D02*
X147000000Y-86500000D01*
%TO.N,/DB5*%
X146350000Y-84860000D02*
X146960000Y-84250000D01*
X146350000Y-87200000D02*
X146350000Y-84860000D01*
%TO.N,/DB6*%
X145050000Y-84880000D02*
X144420000Y-84250000D01*
X145050000Y-87200000D02*
X145050000Y-84880000D01*
%TO.N,/DB7*%
X144400000Y-87200000D02*
X144400000Y-86770000D01*
X144400000Y-86770000D02*
X141880000Y-84250000D01*
%TD*%
%TA.AperFunction,Conductor*%
%TO.N,VCC*%
G36*
X143628527Y-88628502D02*
G01*
X143649501Y-88645405D01*
X144322794Y-89318698D01*
X144356820Y-89381010D01*
X144351755Y-89451825D01*
X144327336Y-89492103D01*
X144296078Y-89526819D01*
X144285960Y-89538056D01*
X144282657Y-89543777D01*
X144204085Y-89679868D01*
X144190473Y-89703444D01*
X144131458Y-89885072D01*
X144130768Y-89891633D01*
X144130768Y-89891635D01*
X144120306Y-89991178D01*
X144111496Y-90075000D01*
X144112186Y-90081565D01*
X144130125Y-90252241D01*
X144131458Y-90264928D01*
X144190473Y-90446556D01*
X144193776Y-90452278D01*
X144193777Y-90452279D01*
X144210586Y-90481393D01*
X144285960Y-90611944D01*
X144290378Y-90616851D01*
X144290379Y-90616852D01*
X144384136Y-90720980D01*
X144414854Y-90784987D01*
X144416500Y-90805290D01*
X144416500Y-91865500D01*
X144396498Y-91933621D01*
X144342842Y-91980114D01*
X144290500Y-91991500D01*
X144151866Y-91991500D01*
X144089684Y-91998255D01*
X143953295Y-92049385D01*
X143836739Y-92136739D01*
X143749385Y-92253295D01*
X143698255Y-92389684D01*
X143691500Y-92451866D01*
X143691500Y-93548134D01*
X143698255Y-93610316D01*
X143749385Y-93746705D01*
X143754771Y-93753891D01*
X143759079Y-93761760D01*
X143756840Y-93762986D01*
X143776966Y-93816864D01*
X143761910Y-93886246D01*
X143756504Y-93894037D01*
X143754000Y-93905548D01*
X143754000Y-95015500D01*
X143733998Y-95083621D01*
X143680342Y-95130114D01*
X143628000Y-95141500D01*
X142535115Y-95141500D01*
X142519876Y-95145975D01*
X142518671Y-95147365D01*
X142517000Y-95155048D01*
X142517000Y-95183766D01*
X142517337Y-95190282D01*
X142527075Y-95284132D01*
X142529968Y-95297528D01*
X142580488Y-95448953D01*
X142586653Y-95462115D01*
X142670426Y-95597492D01*
X142679460Y-95608890D01*
X142781140Y-95710393D01*
X142815219Y-95772676D01*
X142810216Y-95843496D01*
X142781296Y-95888583D01*
X142673071Y-95996997D01*
X142669231Y-96003227D01*
X142669230Y-96003228D01*
X142586364Y-96137662D01*
X142581791Y-96145080D01*
X142527026Y-96310191D01*
X142526326Y-96317027D01*
X142526325Y-96317030D01*
X142522322Y-96356107D01*
X142516500Y-96412928D01*
X142516500Y-97012072D01*
X142516837Y-97015318D01*
X142516837Y-97015322D01*
X142526522Y-97108661D01*
X142527293Y-97116093D01*
X142529474Y-97122629D01*
X142529474Y-97122631D01*
X142543996Y-97166158D01*
X142582346Y-97281107D01*
X142629946Y-97358027D01*
X142659321Y-97405497D01*
X142678159Y-97473949D01*
X142656998Y-97541719D01*
X142602557Y-97587290D01*
X142587679Y-97592695D01*
X142570608Y-97597707D01*
X142545235Y-97605157D01*
X142545233Y-97605158D01*
X142536589Y-97607696D01*
X142529010Y-97612567D01*
X142421159Y-97681878D01*
X142421156Y-97681880D01*
X142413579Y-97686750D01*
X142407678Y-97693560D01*
X142323726Y-97790445D01*
X142323724Y-97790448D01*
X142317824Y-97797257D01*
X142257081Y-97930266D01*
X142236271Y-98075000D01*
X142236271Y-99225000D01*
X142236472Y-99227509D01*
X142236472Y-99227514D01*
X142241154Y-99286058D01*
X142242800Y-99306645D01*
X142244890Y-99313343D01*
X142244890Y-99313345D01*
X142251328Y-99333981D01*
X142255762Y-99389438D01*
X142236271Y-99525000D01*
X142236271Y-100525000D01*
X142241500Y-100598111D01*
X142243404Y-100604594D01*
X142273692Y-100707745D01*
X142282696Y-100738411D01*
X142287566Y-100745989D01*
X142287567Y-100745991D01*
X142336659Y-100822379D01*
X142356661Y-100890500D01*
X142336659Y-100958621D01*
X142283003Y-101005114D01*
X142230661Y-101016500D01*
X135734500Y-101016500D01*
X135666379Y-100996498D01*
X135619886Y-100942842D01*
X135608500Y-100890500D01*
X135608500Y-99216477D01*
X138216500Y-99216477D01*
X138223255Y-99278659D01*
X138274385Y-99415048D01*
X138361739Y-99531604D01*
X138478295Y-99618958D01*
X138614684Y-99670088D01*
X138676866Y-99676843D01*
X140473134Y-99676843D01*
X140535316Y-99670088D01*
X140671705Y-99618958D01*
X140788261Y-99531604D01*
X140875615Y-99415048D01*
X140926745Y-99278659D01*
X140933500Y-99216477D01*
X140933500Y-97420209D01*
X140926745Y-97358027D01*
X140875615Y-97221638D01*
X140788261Y-97105082D01*
X140671705Y-97017728D01*
X140552687Y-96973110D01*
X140495923Y-96930468D01*
X140471223Y-96863907D01*
X140486430Y-96794558D01*
X140507977Y-96765878D01*
X140609052Y-96665155D01*
X140615730Y-96657308D01*
X140740003Y-96484363D01*
X140745313Y-96475526D01*
X140839670Y-96284610D01*
X140843469Y-96275015D01*
X140905377Y-96071253D01*
X140907555Y-96061180D01*
X140908986Y-96050305D01*
X140906775Y-96036121D01*
X140893617Y-96032343D01*
X138258225Y-96032343D01*
X138244694Y-96036316D01*
X138243257Y-96046309D01*
X138273565Y-96180789D01*
X138276645Y-96190618D01*
X138356770Y-96387946D01*
X138361413Y-96397137D01*
X138472694Y-96578731D01*
X138478777Y-96587042D01*
X138618213Y-96748010D01*
X138625577Y-96755222D01*
X138630522Y-96759328D01*
X138670156Y-96818232D01*
X138671653Y-96889213D01*
X138634537Y-96949735D01*
X138594264Y-96974253D01*
X138486705Y-97014575D01*
X138486704Y-97014576D01*
X138478295Y-97017728D01*
X138361739Y-97105082D01*
X138274385Y-97221638D01*
X138223255Y-97358027D01*
X138216500Y-97420209D01*
X138216500Y-99216477D01*
X135608500Y-99216477D01*
X135608500Y-95512526D01*
X138239389Y-95512526D01*
X138240912Y-95520950D01*
X138253292Y-95524343D01*
X139302885Y-95524343D01*
X139318124Y-95519868D01*
X139319329Y-95518478D01*
X139321000Y-95510795D01*
X139321000Y-95506228D01*
X139829000Y-95506228D01*
X139833475Y-95521467D01*
X139834865Y-95522672D01*
X139842548Y-95524343D01*
X140893344Y-95524343D01*
X140906875Y-95520370D01*
X140908180Y-95511290D01*
X140866214Y-95344218D01*
X140862894Y-95334467D01*
X140777972Y-95139157D01*
X140773105Y-95130082D01*
X140657426Y-94951269D01*
X140651136Y-94943100D01*
X140507806Y-94785583D01*
X140500273Y-94778558D01*
X140333139Y-94646565D01*
X140324552Y-94640860D01*
X140278404Y-94615385D01*
X142517000Y-94615385D01*
X142521475Y-94630624D01*
X142522865Y-94631829D01*
X142530548Y-94633500D01*
X143227885Y-94633500D01*
X143243124Y-94629025D01*
X143244329Y-94627635D01*
X143246000Y-94619952D01*
X143246000Y-93910115D01*
X143241525Y-93894876D01*
X143240135Y-93893671D01*
X143232452Y-93892000D01*
X143216234Y-93892000D01*
X143209718Y-93892337D01*
X143115868Y-93902075D01*
X143102472Y-93904968D01*
X142951047Y-93955488D01*
X142937885Y-93961653D01*
X142802508Y-94045426D01*
X142791110Y-94054460D01*
X142678637Y-94167129D01*
X142669625Y-94178540D01*
X142586088Y-94314063D01*
X142579944Y-94327241D01*
X142529685Y-94478766D01*
X142526819Y-94492132D01*
X142517328Y-94584770D01*
X142517000Y-94591185D01*
X142517000Y-94615385D01*
X140278404Y-94615385D01*
X140138117Y-94537942D01*
X140128705Y-94533712D01*
X139927959Y-94462623D01*
X139917988Y-94459989D01*
X139846837Y-94447315D01*
X139833540Y-94448775D01*
X139829000Y-94463332D01*
X139829000Y-95506228D01*
X139321000Y-95506228D01*
X139321000Y-94461445D01*
X139317082Y-94448101D01*
X139302806Y-94446114D01*
X139264324Y-94452003D01*
X139254288Y-94454394D01*
X139051868Y-94520555D01*
X139042359Y-94524552D01*
X138853463Y-94622885D01*
X138844738Y-94628379D01*
X138674433Y-94756248D01*
X138666726Y-94763091D01*
X138519590Y-94917060D01*
X138513104Y-94925070D01*
X138393098Y-95100992D01*
X138388000Y-95109966D01*
X138298338Y-95303126D01*
X138294775Y-95312813D01*
X138239389Y-95512526D01*
X135608500Y-95512526D01*
X135608500Y-93985195D01*
X135628502Y-93917074D01*
X135682158Y-93870581D01*
X135692528Y-93866713D01*
X135694329Y-93864635D01*
X135696000Y-93856952D01*
X135696000Y-93852385D01*
X136204000Y-93852385D01*
X136208475Y-93867624D01*
X136209865Y-93868829D01*
X136217548Y-93870500D01*
X136233766Y-93870500D01*
X136240282Y-93870163D01*
X136334132Y-93860425D01*
X136347528Y-93857532D01*
X136498953Y-93807012D01*
X136512115Y-93800847D01*
X136647492Y-93717074D01*
X136658890Y-93708040D01*
X136771363Y-93595371D01*
X136780375Y-93583960D01*
X136863912Y-93448437D01*
X136870056Y-93435259D01*
X136920315Y-93283734D01*
X136923181Y-93270368D01*
X136932672Y-93177730D01*
X136933000Y-93171315D01*
X136933000Y-93147115D01*
X136928525Y-93131876D01*
X136927135Y-93130671D01*
X136919452Y-93129000D01*
X136222115Y-93129000D01*
X136206876Y-93133475D01*
X136205671Y-93134865D01*
X136204000Y-93142548D01*
X136204000Y-93852385D01*
X135696000Y-93852385D01*
X135696000Y-92747000D01*
X135716002Y-92678879D01*
X135769658Y-92632386D01*
X135822000Y-92621000D01*
X136914885Y-92621000D01*
X136930124Y-92616525D01*
X136931329Y-92615135D01*
X136933000Y-92607452D01*
X136933000Y-92578734D01*
X136932663Y-92572218D01*
X136922925Y-92478368D01*
X136920032Y-92464972D01*
X136869512Y-92313547D01*
X136863347Y-92300385D01*
X136779574Y-92165008D01*
X136770540Y-92153610D01*
X136668860Y-92052107D01*
X136634781Y-91989824D01*
X136639784Y-91919004D01*
X136668705Y-91873916D01*
X136669715Y-91872905D01*
X136776929Y-91765503D01*
X136788727Y-91746363D01*
X136864369Y-91623650D01*
X136864370Y-91623648D01*
X136868209Y-91617420D01*
X136922974Y-91452309D01*
X136926077Y-91422028D01*
X136931463Y-91369457D01*
X136933500Y-91349572D01*
X136933500Y-91168095D01*
X136953502Y-91099974D01*
X137007158Y-91053481D01*
X137077432Y-91043377D01*
X137142012Y-91072871D01*
X137153134Y-91083783D01*
X137238747Y-91178866D01*
X137393248Y-91291118D01*
X137399276Y-91293802D01*
X137399278Y-91293803D01*
X137537199Y-91355209D01*
X137567712Y-91368794D01*
X137660736Y-91388567D01*
X137748056Y-91407128D01*
X137748061Y-91407128D01*
X137754513Y-91408500D01*
X137945487Y-91408500D01*
X137951939Y-91407128D01*
X137951944Y-91407128D01*
X138039264Y-91388567D01*
X138132288Y-91368794D01*
X138162801Y-91355209D01*
X138300722Y-91293803D01*
X138300724Y-91293802D01*
X138306752Y-91291118D01*
X138461253Y-91178866D01*
X138487244Y-91150000D01*
X138584621Y-91041852D01*
X138584622Y-91041851D01*
X138589040Y-91036944D01*
X138669477Y-90897624D01*
X138681223Y-90877279D01*
X138681224Y-90877278D01*
X138684527Y-90871556D01*
X138743542Y-90689928D01*
X138748276Y-90644892D01*
X138762814Y-90506565D01*
X138763504Y-90500000D01*
X138754794Y-90417132D01*
X138744232Y-90316635D01*
X138744232Y-90316633D01*
X138743542Y-90310072D01*
X138684527Y-90128444D01*
X138678618Y-90118209D01*
X138616275Y-90010227D01*
X138599537Y-89941231D01*
X138608656Y-89901929D01*
X138609145Y-89901101D01*
X138611355Y-89893493D01*
X138611357Y-89893489D01*
X138640804Y-89792129D01*
X138655562Y-89741331D01*
X138656111Y-89734366D01*
X138658307Y-89706458D01*
X138658307Y-89706450D01*
X138658500Y-89704002D01*
X138658500Y-88734500D01*
X138678502Y-88666379D01*
X138732158Y-88619886D01*
X138784500Y-88608500D01*
X143560406Y-88608500D01*
X143628527Y-88628502D01*
G37*
%TD.AperFunction*%
%TA.AperFunction,Conductor*%
G36*
X172556121Y-84016002D02*
G01*
X172602614Y-84069658D01*
X172614000Y-84122000D01*
X172614000Y-85568517D01*
X172618064Y-85582359D01*
X172631478Y-85584393D01*
X172638184Y-85583534D01*
X172648262Y-85581392D01*
X172852255Y-85520191D01*
X172861842Y-85516433D01*
X173053095Y-85422739D01*
X173061945Y-85417464D01*
X173235328Y-85293792D01*
X173243193Y-85287145D01*
X173347897Y-85182805D01*
X173410268Y-85148889D01*
X173481075Y-85154077D01*
X173537837Y-85196723D01*
X173554819Y-85227826D01*
X173574574Y-85280522D01*
X173599385Y-85346705D01*
X173686739Y-85463261D01*
X173803295Y-85550615D01*
X173939684Y-85601745D01*
X174001866Y-85608500D01*
X175798134Y-85608500D01*
X175860316Y-85601745D01*
X175921271Y-85578894D01*
X175992077Y-85573711D01*
X176054446Y-85607631D01*
X176088575Y-85669887D01*
X176091500Y-85696876D01*
X176091500Y-88871510D01*
X176071498Y-88939631D01*
X176017842Y-88986124D01*
X175952658Y-88996854D01*
X175903601Y-88991828D01*
X175903602Y-88991828D01*
X175900400Y-88991500D01*
X174499600Y-88991500D01*
X174496354Y-88991837D01*
X174496350Y-88991837D01*
X174400692Y-89001762D01*
X174400688Y-89001763D01*
X174393834Y-89002474D01*
X174387298Y-89004655D01*
X174387296Y-89004655D01*
X174308511Y-89030940D01*
X174226054Y-89058450D01*
X174075652Y-89151522D01*
X173950695Y-89276697D01*
X173946855Y-89282927D01*
X173946854Y-89282928D01*
X173934707Y-89302635D01*
X173857885Y-89427262D01*
X173855581Y-89434209D01*
X173805018Y-89586653D01*
X173802203Y-89595139D01*
X173791500Y-89699600D01*
X173791500Y-90500400D01*
X173796113Y-90544856D01*
X173783249Y-90614675D01*
X173734678Y-90666458D01*
X173665823Y-90683761D01*
X173606649Y-90666314D01*
X173563601Y-90640855D01*
X173555990Y-90638644D01*
X173555988Y-90638643D01*
X173478513Y-90616135D01*
X173403831Y-90594438D01*
X173397426Y-90593934D01*
X173397421Y-90593933D01*
X173368958Y-90591693D01*
X173368950Y-90591693D01*
X173366502Y-90591500D01*
X171983498Y-90591500D01*
X171981050Y-90591693D01*
X171981042Y-90591693D01*
X171952579Y-90593933D01*
X171952574Y-90593934D01*
X171946169Y-90594438D01*
X171871487Y-90616135D01*
X171794012Y-90638643D01*
X171794010Y-90638644D01*
X171786399Y-90640855D01*
X171779572Y-90644892D01*
X171779573Y-90644892D01*
X171650020Y-90721509D01*
X171650017Y-90721511D01*
X171643193Y-90725547D01*
X171637585Y-90731155D01*
X171631325Y-90736011D01*
X171630156Y-90734504D01*
X171576833Y-90763621D01*
X171550050Y-90766500D01*
X171030436Y-90766500D01*
X170962315Y-90746498D01*
X170923292Y-90706803D01*
X170904970Y-90677195D01*
X170904964Y-90677188D01*
X170901116Y-90670969D01*
X170793859Y-90563899D01*
X170759780Y-90501618D01*
X170764783Y-90430798D01*
X170793704Y-90385709D01*
X170896363Y-90282871D01*
X170905375Y-90271460D01*
X170988912Y-90135937D01*
X170995056Y-90122759D01*
X171045315Y-89971234D01*
X171048181Y-89957868D01*
X171057672Y-89865230D01*
X171058000Y-89858815D01*
X171058000Y-89834615D01*
X171053525Y-89819376D01*
X171052135Y-89818171D01*
X171044452Y-89816500D01*
X169123101Y-89816500D01*
X169054980Y-89796498D01*
X169034083Y-89779673D01*
X168932871Y-89678637D01*
X168921460Y-89669625D01*
X168785937Y-89586088D01*
X168772759Y-89579944D01*
X168621234Y-89529685D01*
X168607868Y-89526819D01*
X168515230Y-89517328D01*
X168508815Y-89517000D01*
X168497115Y-89517000D01*
X168481876Y-89521475D01*
X168480671Y-89522865D01*
X168479000Y-89530548D01*
X168479000Y-90615500D01*
X168458998Y-90683621D01*
X168405342Y-90730114D01*
X168353000Y-90741500D01*
X163153763Y-90741500D01*
X163142579Y-90740973D01*
X163135091Y-90739299D01*
X163127168Y-90739548D01*
X163067033Y-90741438D01*
X163063075Y-90741500D01*
X163035144Y-90741500D01*
X163031229Y-90741995D01*
X163031225Y-90741995D01*
X163031167Y-90742003D01*
X163031138Y-90742006D01*
X163019296Y-90742939D01*
X162975110Y-90744327D01*
X162957744Y-90749372D01*
X162955658Y-90749978D01*
X162936306Y-90753986D01*
X162924068Y-90755532D01*
X162924066Y-90755533D01*
X162916203Y-90756526D01*
X162875086Y-90772806D01*
X162863885Y-90776641D01*
X162821406Y-90788982D01*
X162814587Y-90793015D01*
X162814582Y-90793017D01*
X162803971Y-90799293D01*
X162786221Y-90807990D01*
X162767383Y-90815448D01*
X162760967Y-90820109D01*
X162760966Y-90820110D01*
X162731625Y-90841428D01*
X162721701Y-90847947D01*
X162690460Y-90866422D01*
X162690455Y-90866426D01*
X162683637Y-90870458D01*
X162669313Y-90884782D01*
X162654281Y-90897621D01*
X162637893Y-90909528D01*
X162609712Y-90943593D01*
X162601722Y-90952373D01*
X162198886Y-91355209D01*
X162173937Y-91374563D01*
X162159742Y-91382958D01*
X162145421Y-91397279D01*
X162130388Y-91410119D01*
X162113997Y-91422028D01*
X162108946Y-91428134D01*
X162085806Y-91456105D01*
X162077816Y-91464884D01*
X160238104Y-93304595D01*
X160175792Y-93338621D01*
X160149009Y-93341500D01*
X156224487Y-93341500D01*
X156156366Y-93321498D01*
X156130851Y-93299811D01*
X156109895Y-93276537D01*
X156109893Y-93276536D01*
X156105480Y-93271634D01*
X156014540Y-93205562D01*
X155956321Y-93163263D01*
X155956320Y-93163262D01*
X155950979Y-93159382D01*
X155944951Y-93156698D01*
X155944949Y-93156697D01*
X155782546Y-93084391D01*
X155782545Y-93084391D01*
X155776515Y-93081706D01*
X155680386Y-93061273D01*
X155596171Y-93043372D01*
X155596166Y-93043372D01*
X155589714Y-93042000D01*
X155398740Y-93042000D01*
X155392288Y-93043372D01*
X155392283Y-93043372D01*
X155308068Y-93061273D01*
X155211939Y-93081706D01*
X155205909Y-93084391D01*
X155205908Y-93084391D01*
X155043505Y-93156697D01*
X155043503Y-93156698D01*
X155037475Y-93159382D01*
X155032134Y-93163262D01*
X155032133Y-93163263D01*
X155020171Y-93171954D01*
X154882974Y-93271634D01*
X154878553Y-93276544D01*
X154878552Y-93276545D01*
X154777241Y-93389063D01*
X154755187Y-93413556D01*
X154659700Y-93578944D01*
X154657659Y-93585227D01*
X154657658Y-93585228D01*
X154654362Y-93595371D01*
X154642138Y-93632995D01*
X154641000Y-93636496D01*
X154600927Y-93695102D01*
X154547365Y-93720807D01*
X154422169Y-93747418D01*
X154416139Y-93750103D01*
X154416138Y-93750103D01*
X154253735Y-93822409D01*
X154253733Y-93822410D01*
X154247705Y-93825094D01*
X154242364Y-93828974D01*
X154242363Y-93828975D01*
X154205055Y-93856081D01*
X154093204Y-93937346D01*
X154088783Y-93942256D01*
X154088782Y-93942257D01*
X153996610Y-94044625D01*
X153965417Y-94079268D01*
X153933529Y-94134500D01*
X153882090Y-94223595D01*
X153869930Y-94244656D01*
X153810915Y-94426284D01*
X153810225Y-94432845D01*
X153810225Y-94432847D01*
X153804578Y-94486576D01*
X153790953Y-94616212D01*
X153791643Y-94622777D01*
X153802267Y-94723855D01*
X153810915Y-94806140D01*
X153869930Y-94987768D01*
X153965417Y-95153156D01*
X153969835Y-95158063D01*
X153969836Y-95158064D01*
X154088782Y-95290167D01*
X154093204Y-95295078D01*
X154247705Y-95407330D01*
X154253733Y-95410014D01*
X154253735Y-95410015D01*
X154416138Y-95482321D01*
X154422169Y-95485006D01*
X154515569Y-95504859D01*
X154602513Y-95523340D01*
X154602518Y-95523340D01*
X154608970Y-95524712D01*
X154799944Y-95524712D01*
X154806396Y-95523340D01*
X154806401Y-95523340D01*
X154893344Y-95504859D01*
X154986745Y-95485006D01*
X154992776Y-95482321D01*
X155155179Y-95410015D01*
X155155181Y-95410014D01*
X155161209Y-95407330D01*
X155264115Y-95332564D01*
X155330982Y-95308706D01*
X155338176Y-95308500D01*
X160321233Y-95308500D01*
X160332416Y-95309027D01*
X160339909Y-95310702D01*
X160347835Y-95310453D01*
X160347836Y-95310453D01*
X160407986Y-95308562D01*
X160411945Y-95308500D01*
X160439856Y-95308500D01*
X160443791Y-95308003D01*
X160443856Y-95307995D01*
X160455693Y-95307062D01*
X160487951Y-95306048D01*
X160491970Y-95305922D01*
X160499889Y-95305673D01*
X160519343Y-95300021D01*
X160538700Y-95296013D01*
X160550930Y-95294468D01*
X160550931Y-95294468D01*
X160558797Y-95293474D01*
X160566168Y-95290555D01*
X160566170Y-95290555D01*
X160599912Y-95277196D01*
X160611142Y-95273351D01*
X160645983Y-95263229D01*
X160645984Y-95263229D01*
X160653593Y-95261018D01*
X160660412Y-95256985D01*
X160660417Y-95256983D01*
X160671028Y-95250707D01*
X160688776Y-95242012D01*
X160707617Y-95234552D01*
X160743387Y-95208564D01*
X160753307Y-95202048D01*
X160784535Y-95183580D01*
X160784538Y-95183578D01*
X160791362Y-95179542D01*
X160805683Y-95165221D01*
X160820717Y-95152380D01*
X160827519Y-95147438D01*
X160837107Y-95140472D01*
X160865298Y-95106395D01*
X160873288Y-95097616D01*
X162150439Y-93820465D01*
X162212751Y-93786439D01*
X162283566Y-93791504D01*
X162340402Y-93834051D01*
X162363086Y-93893423D01*
X162364107Y-93893243D01*
X162365041Y-93898540D01*
X162365054Y-93898574D01*
X162365061Y-93898652D01*
X162365062Y-93898660D01*
X162365542Y-93904142D01*
X162366966Y-93909455D01*
X162366966Y-93909457D01*
X162413242Y-94082158D01*
X162421178Y-94111777D01*
X162423500Y-94116757D01*
X162423501Y-94116759D01*
X162486072Y-94250941D01*
X162512024Y-94306596D01*
X162635319Y-94482681D01*
X162787319Y-94634681D01*
X162963403Y-94757976D01*
X162968381Y-94760297D01*
X162968384Y-94760299D01*
X163058441Y-94802293D01*
X163158223Y-94848822D01*
X163163531Y-94850244D01*
X163163533Y-94850245D01*
X163360543Y-94903034D01*
X163360545Y-94903034D01*
X163365858Y-94904458D01*
X163580000Y-94923193D01*
X163794142Y-94904458D01*
X163799455Y-94903034D01*
X163799457Y-94903034D01*
X163996467Y-94850245D01*
X163996469Y-94850244D01*
X164001777Y-94848822D01*
X164101559Y-94802293D01*
X164191616Y-94760299D01*
X164191619Y-94760297D01*
X164196597Y-94757976D01*
X164372681Y-94634681D01*
X164524681Y-94482681D01*
X164647976Y-94306596D01*
X164673929Y-94250941D01*
X164736499Y-94116759D01*
X164736500Y-94116757D01*
X164738822Y-94111777D01*
X164746759Y-94082158D01*
X164793034Y-93909457D01*
X164793034Y-93909455D01*
X164794458Y-93904142D01*
X164813193Y-93690000D01*
X164794458Y-93475858D01*
X164793034Y-93470543D01*
X164740245Y-93273533D01*
X164740244Y-93273531D01*
X164738822Y-93268223D01*
X164683810Y-93150250D01*
X164673149Y-93080059D01*
X164702129Y-93015246D01*
X164761548Y-92976389D01*
X164798005Y-92971000D01*
X167277301Y-92971000D01*
X167345422Y-92991002D01*
X167384445Y-93030698D01*
X167398884Y-93054031D01*
X167404065Y-93059203D01*
X167406139Y-93061273D01*
X167407105Y-93063038D01*
X167408613Y-93064941D01*
X167408287Y-93065199D01*
X167440219Y-93123554D01*
X167435218Y-93194375D01*
X167406292Y-93239470D01*
X167403636Y-93242131D01*
X167394625Y-93253540D01*
X167311088Y-93389063D01*
X167304944Y-93402241D01*
X167254685Y-93553766D01*
X167251819Y-93567132D01*
X167242328Y-93659770D01*
X167242000Y-93666185D01*
X167242000Y-93690385D01*
X167246475Y-93705624D01*
X167247865Y-93706829D01*
X167255548Y-93708500D01*
X168353000Y-93708500D01*
X168421121Y-93728502D01*
X168467614Y-93782158D01*
X168479000Y-93834500D01*
X168479000Y-94090500D01*
X168458998Y-94158621D01*
X168405342Y-94205114D01*
X168353000Y-94216500D01*
X167260115Y-94216500D01*
X167244876Y-94220975D01*
X167243671Y-94222365D01*
X167242000Y-94230048D01*
X167242000Y-94258766D01*
X167242337Y-94265282D01*
X167252075Y-94359132D01*
X167254968Y-94372528D01*
X167305488Y-94523953D01*
X167311653Y-94537115D01*
X167395426Y-94672492D01*
X167404460Y-94683890D01*
X167506140Y-94785393D01*
X167540219Y-94847676D01*
X167535216Y-94918496D01*
X167506296Y-94963583D01*
X167398071Y-95071997D01*
X167394231Y-95078227D01*
X167394230Y-95078228D01*
X167313890Y-95208564D01*
X167306791Y-95220080D01*
X167252026Y-95385191D01*
X167251326Y-95392027D01*
X167251325Y-95392030D01*
X167248155Y-95422972D01*
X167241500Y-95487928D01*
X167241500Y-96087072D01*
X167241837Y-96090318D01*
X167241837Y-96090322D01*
X167251224Y-96180789D01*
X167252293Y-96191093D01*
X167254474Y-96197629D01*
X167254474Y-96197631D01*
X167283493Y-96284610D01*
X167307346Y-96356107D01*
X167398884Y-96504031D01*
X167404066Y-96509204D01*
X167516816Y-96621758D01*
X167516821Y-96621762D01*
X167521997Y-96626929D01*
X167528227Y-96630769D01*
X167528228Y-96630770D01*
X167642717Y-96701342D01*
X167670080Y-96718209D01*
X167835191Y-96772974D01*
X167842027Y-96773674D01*
X167842030Y-96773675D01*
X167893526Y-96778951D01*
X167937928Y-96783500D01*
X168512072Y-96783500D01*
X168515318Y-96783163D01*
X168515322Y-96783163D01*
X168609235Y-96773419D01*
X168609239Y-96773418D01*
X168616093Y-96772707D01*
X168622629Y-96770526D01*
X168622631Y-96770526D01*
X168755395Y-96726232D01*
X168781107Y-96717654D01*
X168899199Y-96644576D01*
X168967649Y-96625740D01*
X169035419Y-96646901D01*
X169080990Y-96701342D01*
X169091500Y-96751722D01*
X169091500Y-96912072D01*
X169091837Y-96915318D01*
X169091837Y-96915322D01*
X169101537Y-97008806D01*
X169102293Y-97016093D01*
X169104474Y-97022629D01*
X169104474Y-97022631D01*
X169134799Y-97113526D01*
X169157346Y-97181107D01*
X169248884Y-97329031D01*
X169254066Y-97334204D01*
X169366816Y-97446758D01*
X169366821Y-97446762D01*
X169371997Y-97451929D01*
X169378227Y-97455769D01*
X169378228Y-97455770D01*
X169509764Y-97536850D01*
X169520080Y-97543209D01*
X169685191Y-97597974D01*
X169692027Y-97598674D01*
X169692030Y-97598675D01*
X169743526Y-97603951D01*
X169787928Y-97608500D01*
X170362072Y-97608500D01*
X170365318Y-97608163D01*
X170365322Y-97608163D01*
X170459235Y-97598419D01*
X170459239Y-97598418D01*
X170466093Y-97597707D01*
X170472629Y-97595526D01*
X170472631Y-97595526D01*
X170605743Y-97551116D01*
X170631107Y-97542654D01*
X170779031Y-97451116D01*
X170784204Y-97445934D01*
X170896758Y-97333184D01*
X170896762Y-97333179D01*
X170901929Y-97328003D01*
X170915372Y-97306195D01*
X170989369Y-97186150D01*
X170989370Y-97186148D01*
X170993209Y-97179920D01*
X171047974Y-97014809D01*
X171051563Y-96979785D01*
X171058172Y-96915271D01*
X171058500Y-96912072D01*
X171058500Y-96237928D01*
X171055883Y-96212704D01*
X171048419Y-96140765D01*
X171048418Y-96140761D01*
X171047707Y-96133907D01*
X171037613Y-96103650D01*
X170994972Y-95975841D01*
X170992654Y-95968893D01*
X170901116Y-95820969D01*
X170869213Y-95789121D01*
X170835134Y-95726841D01*
X170840137Y-95656021D01*
X170869057Y-95610933D01*
X170896757Y-95583184D01*
X170901929Y-95578003D01*
X170936036Y-95522672D01*
X170989369Y-95436150D01*
X170989370Y-95436148D01*
X170993209Y-95429920D01*
X171009248Y-95381564D01*
X171049679Y-95323204D01*
X171115243Y-95295967D01*
X171155037Y-95297984D01*
X171180811Y-95303462D01*
X171204513Y-95308500D01*
X171395487Y-95308500D01*
X171401939Y-95307128D01*
X171401944Y-95307128D01*
X171488887Y-95288647D01*
X171582288Y-95268794D01*
X171594788Y-95263229D01*
X171750717Y-95193805D01*
X171756752Y-95191118D01*
X171757917Y-95190272D01*
X171825048Y-95173985D01*
X171854207Y-95178845D01*
X171871315Y-95183815D01*
X171939992Y-95203768D01*
X171939997Y-95203769D01*
X171946169Y-95205562D01*
X171952574Y-95206066D01*
X171952579Y-95206067D01*
X171981042Y-95208307D01*
X171981050Y-95208307D01*
X171983498Y-95208500D01*
X173366502Y-95208500D01*
X173368950Y-95208307D01*
X173368958Y-95208307D01*
X173397421Y-95206067D01*
X173397426Y-95206066D01*
X173403831Y-95205562D01*
X173512707Y-95173931D01*
X173555988Y-95161357D01*
X173555990Y-95161356D01*
X173563601Y-95159145D01*
X173588574Y-95144376D01*
X173606586Y-95133724D01*
X173675402Y-95116265D01*
X173742734Y-95138783D01*
X173787202Y-95194128D01*
X173796068Y-95255020D01*
X173791500Y-95299600D01*
X173791500Y-96100400D01*
X173791837Y-96103646D01*
X173791837Y-96103650D01*
X173800861Y-96190618D01*
X173802474Y-96206166D01*
X173804655Y-96212702D01*
X173804655Y-96212704D01*
X173814160Y-96241194D01*
X173858450Y-96373946D01*
X173951522Y-96524348D01*
X174076697Y-96649305D01*
X174082927Y-96653145D01*
X174082928Y-96653146D01*
X174191340Y-96719972D01*
X174227262Y-96742115D01*
X174266779Y-96755222D01*
X174388611Y-96795632D01*
X174388613Y-96795632D01*
X174395139Y-96797797D01*
X174401975Y-96798497D01*
X174401978Y-96798498D01*
X174445031Y-96802909D01*
X174499600Y-96808500D01*
X175900400Y-96808500D01*
X175903644Y-96808163D01*
X175903652Y-96808163D01*
X175952497Y-96803095D01*
X176022318Y-96815960D01*
X176074100Y-96864531D01*
X176091500Y-96928422D01*
X176091500Y-100890500D01*
X176071498Y-100958621D01*
X176017842Y-101005114D01*
X175965500Y-101016500D01*
X153422856Y-101016500D01*
X153354735Y-100996498D01*
X153308242Y-100942842D01*
X153298138Y-100872568D01*
X153322988Y-100818155D01*
X153321402Y-100817135D01*
X153326274Y-100809555D01*
X153332176Y-100802743D01*
X153392919Y-100669734D01*
X153402618Y-100602279D01*
X153432109Y-100537702D01*
X153491835Y-100499318D01*
X153527334Y-100494214D01*
X155924500Y-100494214D01*
X155924500Y-97105785D01*
X153259500Y-97105785D01*
X153191379Y-97085783D01*
X153144886Y-97032127D01*
X153133500Y-96979785D01*
X153133500Y-96412928D01*
X153130102Y-96380176D01*
X153123419Y-96315765D01*
X153123418Y-96315761D01*
X153122707Y-96308907D01*
X153067654Y-96143893D01*
X152976116Y-95995969D01*
X152868859Y-95888899D01*
X152834780Y-95826618D01*
X152839783Y-95755798D01*
X152868704Y-95710709D01*
X152971363Y-95607871D01*
X152980375Y-95596460D01*
X153063912Y-95460937D01*
X153070056Y-95447759D01*
X153120315Y-95296234D01*
X153123181Y-95282868D01*
X153132672Y-95190230D01*
X153133000Y-95183815D01*
X153133000Y-95159615D01*
X153128525Y-95144376D01*
X153127135Y-95143171D01*
X153119452Y-95141500D01*
X151185115Y-95141500D01*
X151169876Y-95145975D01*
X151168671Y-95147365D01*
X151167000Y-95155048D01*
X151167000Y-95183766D01*
X151167337Y-95190282D01*
X151177075Y-95284132D01*
X151179968Y-95297528D01*
X151230488Y-95448953D01*
X151236653Y-95462115D01*
X151320426Y-95597492D01*
X151329460Y-95608890D01*
X151431140Y-95710393D01*
X151465219Y-95772676D01*
X151460216Y-95843496D01*
X151431296Y-95888583D01*
X151323071Y-95996997D01*
X151319233Y-96003224D01*
X151319231Y-96003226D01*
X151309436Y-96019116D01*
X151256664Y-96066609D01*
X151202176Y-96079000D01*
X151027095Y-96079000D01*
X150958974Y-96058998D01*
X150937999Y-96042095D01*
X150270404Y-95374499D01*
X150236379Y-95312187D01*
X150233500Y-95285404D01*
X150233500Y-94615385D01*
X151167000Y-94615385D01*
X151171475Y-94630624D01*
X151172865Y-94631829D01*
X151180548Y-94633500D01*
X151877885Y-94633500D01*
X151893124Y-94629025D01*
X151894329Y-94627635D01*
X151896000Y-94619952D01*
X151896000Y-94615385D01*
X152404000Y-94615385D01*
X152408475Y-94630624D01*
X152409865Y-94631829D01*
X152417548Y-94633500D01*
X153114885Y-94633500D01*
X153130124Y-94629025D01*
X153131329Y-94627635D01*
X153133000Y-94619952D01*
X153133000Y-94591234D01*
X153132663Y-94584718D01*
X153122925Y-94490868D01*
X153120032Y-94477472D01*
X153069512Y-94326047D01*
X153063347Y-94312885D01*
X152979574Y-94177508D01*
X152970540Y-94166110D01*
X152857871Y-94053637D01*
X152846460Y-94044625D01*
X152710937Y-93961088D01*
X152697759Y-93954944D01*
X152546234Y-93904685D01*
X152532868Y-93901819D01*
X152440230Y-93892328D01*
X152433815Y-93892000D01*
X152422115Y-93892000D01*
X152406876Y-93896475D01*
X152405671Y-93897865D01*
X152404000Y-93905548D01*
X152404000Y-94615385D01*
X151896000Y-94615385D01*
X151896000Y-93910115D01*
X151891525Y-93894876D01*
X151890135Y-93893671D01*
X151882452Y-93892000D01*
X151866234Y-93892000D01*
X151859718Y-93892337D01*
X151765868Y-93902075D01*
X151752472Y-93904968D01*
X151601047Y-93955488D01*
X151587885Y-93961653D01*
X151452508Y-94045426D01*
X151441110Y-94054460D01*
X151328637Y-94167129D01*
X151319625Y-94178540D01*
X151236088Y-94314063D01*
X151229944Y-94327241D01*
X151179685Y-94478766D01*
X151176819Y-94492132D01*
X151167328Y-94584770D01*
X151167000Y-94591185D01*
X151167000Y-94615385D01*
X150233500Y-94615385D01*
X150233500Y-94134500D01*
X150253502Y-94066379D01*
X150307158Y-94019886D01*
X150359500Y-94008500D01*
X150498134Y-94008500D01*
X150560316Y-94001745D01*
X150696705Y-93950615D01*
X150813261Y-93863261D01*
X150900615Y-93746705D01*
X150903769Y-93738293D01*
X150912401Y-93715269D01*
X150955043Y-93658505D01*
X151021605Y-93633806D01*
X151030382Y-93633500D01*
X152121233Y-93633500D01*
X152132416Y-93634027D01*
X152139909Y-93635702D01*
X152147835Y-93635453D01*
X152147836Y-93635453D01*
X152207986Y-93633562D01*
X152211945Y-93633500D01*
X152239856Y-93633500D01*
X152243791Y-93633003D01*
X152243856Y-93632995D01*
X152255693Y-93632062D01*
X152287951Y-93631048D01*
X152291970Y-93630922D01*
X152299889Y-93630673D01*
X152319343Y-93625021D01*
X152338700Y-93621013D01*
X152350930Y-93619468D01*
X152350931Y-93619468D01*
X152358797Y-93618474D01*
X152366168Y-93615555D01*
X152366170Y-93615555D01*
X152399912Y-93602196D01*
X152411142Y-93598351D01*
X152445983Y-93588229D01*
X152445984Y-93588229D01*
X152453593Y-93586018D01*
X152460412Y-93581985D01*
X152460417Y-93581983D01*
X152471028Y-93575707D01*
X152488776Y-93567012D01*
X152507617Y-93559552D01*
X152543387Y-93533564D01*
X152553307Y-93527048D01*
X152584535Y-93508580D01*
X152584538Y-93508578D01*
X152591362Y-93504542D01*
X152605683Y-93490221D01*
X152620717Y-93477380D01*
X152630694Y-93470131D01*
X152637107Y-93465472D01*
X152665298Y-93431395D01*
X152673288Y-93422616D01*
X154945904Y-91150000D01*
X157266807Y-91150000D01*
X157285542Y-91364142D01*
X157286966Y-91369455D01*
X157286966Y-91369457D01*
X157322488Y-91502024D01*
X157341178Y-91571777D01*
X157343500Y-91576757D01*
X157343501Y-91576759D01*
X157428609Y-91759272D01*
X157432024Y-91766596D01*
X157555319Y-91942681D01*
X157707319Y-92094681D01*
X157883403Y-92217976D01*
X157888381Y-92220297D01*
X157888384Y-92220299D01*
X158073241Y-92306499D01*
X158078223Y-92308822D01*
X158083531Y-92310244D01*
X158083533Y-92310245D01*
X158280543Y-92363034D01*
X158280545Y-92363034D01*
X158285858Y-92364458D01*
X158500000Y-92383193D01*
X158714142Y-92364458D01*
X158719455Y-92363034D01*
X158719457Y-92363034D01*
X158916467Y-92310245D01*
X158916469Y-92310244D01*
X158921777Y-92308822D01*
X158926759Y-92306499D01*
X159111616Y-92220299D01*
X159111619Y-92220297D01*
X159116597Y-92217976D01*
X159292681Y-92094681D01*
X159444681Y-91942681D01*
X159567976Y-91766596D01*
X159571392Y-91759272D01*
X159656499Y-91576759D01*
X159656500Y-91576757D01*
X159658822Y-91571777D01*
X159677513Y-91502024D01*
X159713034Y-91369457D01*
X159713034Y-91369455D01*
X159714458Y-91364142D01*
X159733193Y-91150000D01*
X159714458Y-90935858D01*
X159689628Y-90843193D01*
X159660245Y-90733533D01*
X159660244Y-90733531D01*
X159658822Y-90728223D01*
X159632124Y-90670969D01*
X159570299Y-90538385D01*
X159570297Y-90538382D01*
X159567976Y-90533404D01*
X159444681Y-90357319D01*
X159327747Y-90240385D01*
X167242000Y-90240385D01*
X167246475Y-90255624D01*
X167247865Y-90256829D01*
X167255548Y-90258500D01*
X167952885Y-90258500D01*
X167968124Y-90254025D01*
X167969329Y-90252635D01*
X167971000Y-90244952D01*
X167971000Y-89535115D01*
X167966525Y-89519876D01*
X167965135Y-89518671D01*
X167957452Y-89517000D01*
X167941234Y-89517000D01*
X167934718Y-89517337D01*
X167840868Y-89527075D01*
X167827472Y-89529968D01*
X167676047Y-89580488D01*
X167662885Y-89586653D01*
X167527508Y-89670426D01*
X167516110Y-89679460D01*
X167403637Y-89792129D01*
X167394625Y-89803540D01*
X167311088Y-89939063D01*
X167304944Y-89952241D01*
X167254685Y-90103766D01*
X167251819Y-90117132D01*
X167242328Y-90209770D01*
X167242000Y-90216185D01*
X167242000Y-90240385D01*
X159327747Y-90240385D01*
X159292681Y-90205319D01*
X159116597Y-90082024D01*
X159111619Y-90079703D01*
X159111616Y-90079701D01*
X158926759Y-89993501D01*
X158926758Y-89993500D01*
X158921777Y-89991178D01*
X158916469Y-89989756D01*
X158916467Y-89989755D01*
X158719457Y-89936966D01*
X158719455Y-89936966D01*
X158714142Y-89935542D01*
X158500000Y-89916807D01*
X158285858Y-89935542D01*
X158280545Y-89936966D01*
X158280543Y-89936966D01*
X158083533Y-89989755D01*
X158083531Y-89989756D01*
X158078223Y-89991178D01*
X158073243Y-89993500D01*
X158073241Y-89993501D01*
X157888385Y-90079701D01*
X157888382Y-90079703D01*
X157883404Y-90082024D01*
X157707319Y-90205319D01*
X157555319Y-90357319D01*
X157432024Y-90533404D01*
X157429703Y-90538382D01*
X157429701Y-90538385D01*
X157367876Y-90670969D01*
X157341178Y-90728223D01*
X157339756Y-90733531D01*
X157339755Y-90733533D01*
X157310372Y-90843193D01*
X157285542Y-90935858D01*
X157266807Y-91150000D01*
X154945904Y-91150000D01*
X156457283Y-89638621D01*
X162915933Y-89638621D01*
X162925227Y-89650635D01*
X162959146Y-89674385D01*
X162968641Y-89679868D01*
X163153413Y-89766028D01*
X163163705Y-89769774D01*
X163360632Y-89822540D01*
X163371425Y-89824443D01*
X163574525Y-89842212D01*
X163585475Y-89842212D01*
X163788575Y-89824443D01*
X163799368Y-89822540D01*
X163996295Y-89769774D01*
X164006587Y-89766028D01*
X164191359Y-89679868D01*
X164200854Y-89674385D01*
X164235607Y-89650051D01*
X164243983Y-89639572D01*
X164236916Y-89626127D01*
X163901175Y-89290385D01*
X169092000Y-89290385D01*
X169096475Y-89305624D01*
X169097865Y-89306829D01*
X169105548Y-89308500D01*
X169802885Y-89308500D01*
X169818124Y-89304025D01*
X169819329Y-89302635D01*
X169821000Y-89294952D01*
X169821000Y-89290385D01*
X170329000Y-89290385D01*
X170333475Y-89305624D01*
X170334865Y-89306829D01*
X170342548Y-89308500D01*
X171039885Y-89308500D01*
X171055124Y-89304025D01*
X171056329Y-89302635D01*
X171058000Y-89294952D01*
X171058000Y-89266234D01*
X171057663Y-89259718D01*
X171047925Y-89165868D01*
X171045032Y-89152472D01*
X170994512Y-89001047D01*
X170988347Y-88987885D01*
X170904574Y-88852508D01*
X170895540Y-88841110D01*
X170782871Y-88728637D01*
X170771460Y-88719625D01*
X170635937Y-88636088D01*
X170622759Y-88629944D01*
X170471234Y-88579685D01*
X170457868Y-88576819D01*
X170365230Y-88567328D01*
X170358815Y-88567000D01*
X170347115Y-88567000D01*
X170331876Y-88571475D01*
X170330671Y-88572865D01*
X170329000Y-88580548D01*
X170329000Y-89290385D01*
X169821000Y-89290385D01*
X169821000Y-88585115D01*
X169816525Y-88569876D01*
X169815135Y-88568671D01*
X169807452Y-88567000D01*
X169791234Y-88567000D01*
X169784718Y-88567337D01*
X169690868Y-88577075D01*
X169677472Y-88579968D01*
X169526047Y-88630488D01*
X169512885Y-88636653D01*
X169377508Y-88720426D01*
X169366110Y-88729460D01*
X169253637Y-88842129D01*
X169244625Y-88853540D01*
X169161088Y-88989063D01*
X169154944Y-89002241D01*
X169104685Y-89153766D01*
X169101819Y-89167132D01*
X169092328Y-89259770D01*
X169092000Y-89266185D01*
X169092000Y-89290385D01*
X163901175Y-89290385D01*
X163592811Y-88982021D01*
X163578868Y-88974408D01*
X163577034Y-88974539D01*
X163570420Y-88978790D01*
X162922360Y-89626851D01*
X162915933Y-89638621D01*
X156457283Y-89638621D01*
X157480429Y-88615475D01*
X162347788Y-88615475D01*
X162365557Y-88818575D01*
X162367460Y-88829368D01*
X162420226Y-89026295D01*
X162423972Y-89036587D01*
X162510135Y-89221364D01*
X162515613Y-89230850D01*
X162539949Y-89265607D01*
X162550428Y-89273983D01*
X162563872Y-89266917D01*
X163207979Y-88622811D01*
X163214356Y-88611132D01*
X163944408Y-88611132D01*
X163944539Y-88612966D01*
X163948790Y-88619580D01*
X164596851Y-89267640D01*
X164608621Y-89274067D01*
X164620635Y-89264772D01*
X164644387Y-89230850D01*
X164649865Y-89221364D01*
X164736028Y-89036587D01*
X164739774Y-89026295D01*
X164792540Y-88829368D01*
X164794443Y-88818575D01*
X164812212Y-88615475D01*
X164812212Y-88604525D01*
X164794443Y-88401425D01*
X164792540Y-88390632D01*
X164739774Y-88193705D01*
X164736028Y-88183413D01*
X164649865Y-87998636D01*
X164644387Y-87989150D01*
X164620051Y-87954393D01*
X164609572Y-87946017D01*
X164596128Y-87953083D01*
X163952021Y-88597189D01*
X163944408Y-88611132D01*
X163214356Y-88611132D01*
X163215592Y-88608868D01*
X163215461Y-88607034D01*
X163211210Y-88600420D01*
X162563149Y-87952360D01*
X162551379Y-87945933D01*
X162539365Y-87955228D01*
X162515613Y-87989150D01*
X162510135Y-87998636D01*
X162423972Y-88183413D01*
X162420226Y-88193705D01*
X162367460Y-88390632D01*
X162365557Y-88401425D01*
X162347788Y-88604525D01*
X162347788Y-88615475D01*
X157480429Y-88615475D01*
X158500499Y-87595405D01*
X158562811Y-87561379D01*
X158589594Y-87558500D01*
X162835520Y-87558500D01*
X162903641Y-87578502D01*
X162924616Y-87595405D01*
X163567189Y-88237979D01*
X163581132Y-88245592D01*
X163582966Y-88245461D01*
X163589580Y-88241210D01*
X164237640Y-87593149D01*
X164244067Y-87581379D01*
X164234773Y-87569365D01*
X164222731Y-87560933D01*
X164178402Y-87505475D01*
X164171094Y-87434856D01*
X164197919Y-87377402D01*
X164202824Y-87371474D01*
X164215300Y-87356393D01*
X164223288Y-87347616D01*
X166256356Y-85314548D01*
X166318668Y-85280522D01*
X166389483Y-85285587D01*
X166425933Y-85306696D01*
X166498126Y-85366632D01*
X166691000Y-85479338D01*
X166695825Y-85481180D01*
X166695826Y-85481181D01*
X166757152Y-85504599D01*
X166899692Y-85559030D01*
X166904760Y-85560061D01*
X166904763Y-85560062D01*
X166997326Y-85578894D01*
X167118597Y-85603567D01*
X167123772Y-85603757D01*
X167123774Y-85603757D01*
X167336673Y-85611564D01*
X167336677Y-85611564D01*
X167341837Y-85611753D01*
X167346957Y-85611097D01*
X167346959Y-85611097D01*
X167558288Y-85584025D01*
X167558289Y-85584025D01*
X167563416Y-85583368D01*
X167568369Y-85581882D01*
X167772429Y-85520661D01*
X167772434Y-85520659D01*
X167777384Y-85519174D01*
X167977994Y-85420896D01*
X168159860Y-85291173D01*
X168163674Y-85287373D01*
X168275186Y-85176249D01*
X168318096Y-85133489D01*
X168448453Y-84952077D01*
X168449776Y-84953028D01*
X168496645Y-84909857D01*
X168566580Y-84897625D01*
X168632026Y-84925144D01*
X168659875Y-84956994D01*
X168719987Y-85055088D01*
X168866250Y-85223938D01*
X169038126Y-85366632D01*
X169231000Y-85479338D01*
X169235825Y-85481180D01*
X169235826Y-85481181D01*
X169297152Y-85504599D01*
X169439692Y-85559030D01*
X169444760Y-85560061D01*
X169444763Y-85560062D01*
X169537326Y-85578894D01*
X169658597Y-85603567D01*
X169663772Y-85603757D01*
X169663774Y-85603757D01*
X169876673Y-85611564D01*
X169876677Y-85611564D01*
X169881837Y-85611753D01*
X169886957Y-85611097D01*
X169886959Y-85611097D01*
X170098288Y-85584025D01*
X170098289Y-85584025D01*
X170103416Y-85583368D01*
X170108369Y-85581882D01*
X170312429Y-85520661D01*
X170312434Y-85520659D01*
X170317384Y-85519174D01*
X170517994Y-85420896D01*
X170699860Y-85291173D01*
X170703674Y-85287373D01*
X170815186Y-85176249D01*
X170858096Y-85133489D01*
X170988453Y-84952077D01*
X170989640Y-84952930D01*
X171036960Y-84909362D01*
X171106897Y-84897145D01*
X171172338Y-84924678D01*
X171200166Y-84956511D01*
X171257694Y-85050388D01*
X171263777Y-85058699D01*
X171403213Y-85219667D01*
X171410580Y-85226883D01*
X171574434Y-85362916D01*
X171582881Y-85368831D01*
X171766756Y-85476279D01*
X171776042Y-85480729D01*
X171975001Y-85556703D01*
X171984899Y-85559579D01*
X172088250Y-85580606D01*
X172102299Y-85579410D01*
X172106000Y-85569065D01*
X172106000Y-84122000D01*
X172126002Y-84053879D01*
X172179658Y-84007386D01*
X172232000Y-83996000D01*
X172488000Y-83996000D01*
X172556121Y-84016002D01*
G37*
%TD.AperFunction*%
%TA.AperFunction,Conductor*%
G36*
X147896121Y-94653502D02*
G01*
X147942614Y-94707158D01*
X147954000Y-94759500D01*
X147954000Y-95015500D01*
X147933998Y-95083621D01*
X147880342Y-95130114D01*
X147828000Y-95141500D01*
X146735115Y-95141500D01*
X146719876Y-95145975D01*
X146718671Y-95147365D01*
X146717000Y-95155048D01*
X146717000Y-95183766D01*
X146717337Y-95190282D01*
X146727075Y-95284132D01*
X146729968Y-95297528D01*
X146780488Y-95448953D01*
X146786653Y-95462115D01*
X146870426Y-95597492D01*
X146879460Y-95608890D01*
X146981140Y-95710393D01*
X147015219Y-95772676D01*
X147010216Y-95843496D01*
X146981296Y-95888583D01*
X146873071Y-95996997D01*
X146869231Y-96003227D01*
X146869230Y-96003228D01*
X146786364Y-96137662D01*
X146781791Y-96145080D01*
X146727026Y-96310191D01*
X146726326Y-96317027D01*
X146726325Y-96317030D01*
X146722322Y-96356107D01*
X146716500Y-96412928D01*
X146716500Y-97012072D01*
X146716837Y-97015318D01*
X146716837Y-97015322D01*
X146726522Y-97108661D01*
X146727293Y-97116093D01*
X146729474Y-97122629D01*
X146729474Y-97122631D01*
X146743996Y-97166158D01*
X146782346Y-97281107D01*
X146829946Y-97358027D01*
X146859321Y-97405497D01*
X146878159Y-97473949D01*
X146856998Y-97541719D01*
X146802557Y-97587290D01*
X146787679Y-97592695D01*
X146770608Y-97597707D01*
X146745235Y-97605157D01*
X146745233Y-97605158D01*
X146736589Y-97607696D01*
X146729010Y-97612567D01*
X146621159Y-97681878D01*
X146621156Y-97681880D01*
X146613579Y-97686750D01*
X146607678Y-97693560D01*
X146523726Y-97790445D01*
X146523724Y-97790448D01*
X146517824Y-97797257D01*
X146457081Y-97930266D01*
X146436271Y-98075000D01*
X146436271Y-99225000D01*
X146438707Y-99255456D01*
X146424200Y-99324953D01*
X146374422Y-99375576D01*
X146313108Y-99391500D01*
X146233200Y-99391500D01*
X146165079Y-99371498D01*
X146145853Y-99355157D01*
X146145580Y-99355460D01*
X146140668Y-99351037D01*
X146136253Y-99346134D01*
X145981752Y-99233882D01*
X145975724Y-99231198D01*
X145975722Y-99231197D01*
X145813319Y-99158891D01*
X145813318Y-99158891D01*
X145807288Y-99156206D01*
X145713887Y-99136353D01*
X145626944Y-99117872D01*
X145626939Y-99117872D01*
X145620487Y-99116500D01*
X145429513Y-99116500D01*
X145423061Y-99117872D01*
X145423056Y-99117872D01*
X145336113Y-99136353D01*
X145242712Y-99156206D01*
X145236682Y-99158891D01*
X145236681Y-99158891D01*
X145074278Y-99231197D01*
X145074276Y-99231198D01*
X145068248Y-99233882D01*
X145062907Y-99237762D01*
X145062906Y-99237763D01*
X144963790Y-99309775D01*
X144896922Y-99333634D01*
X144827771Y-99317553D01*
X144778290Y-99266639D01*
X144763729Y-99207839D01*
X144763729Y-98075000D01*
X144758500Y-98001889D01*
X144717304Y-97861589D01*
X144675960Y-97797257D01*
X144643122Y-97746159D01*
X144643120Y-97746156D01*
X144638250Y-97738579D01*
X144631440Y-97732678D01*
X144534555Y-97648726D01*
X144534552Y-97648724D01*
X144527743Y-97642824D01*
X144519545Y-97639080D01*
X144397498Y-97583343D01*
X144343842Y-97536850D01*
X144323840Y-97468729D01*
X144342580Y-97402613D01*
X144414369Y-97286150D01*
X144414370Y-97286148D01*
X144418209Y-97279920D01*
X144472974Y-97114809D01*
X144473728Y-97107456D01*
X144481445Y-97032127D01*
X144483500Y-97012072D01*
X144483500Y-96677094D01*
X144503502Y-96608973D01*
X144520405Y-96587999D01*
X146413000Y-94695405D01*
X146475312Y-94661379D01*
X146502095Y-94658500D01*
X147296233Y-94658500D01*
X147307416Y-94659027D01*
X147314909Y-94660702D01*
X147322835Y-94660453D01*
X147322836Y-94660453D01*
X147382986Y-94658562D01*
X147386945Y-94658500D01*
X147414856Y-94658500D01*
X147418791Y-94658003D01*
X147418856Y-94657995D01*
X147430693Y-94657062D01*
X147462951Y-94656048D01*
X147466970Y-94655922D01*
X147474889Y-94655673D01*
X147494343Y-94650021D01*
X147513700Y-94646013D01*
X147525930Y-94644468D01*
X147525931Y-94644468D01*
X147533797Y-94643474D01*
X147541167Y-94640556D01*
X147548848Y-94638584D01*
X147549199Y-94639953D01*
X147583025Y-94633500D01*
X147828000Y-94633500D01*
X147896121Y-94653502D01*
G37*
%TD.AperFunction*%
%TA.AperFunction,Conductor*%
G36*
X174150616Y-91094870D02*
G01*
X174221032Y-91138275D01*
X174227262Y-91142115D01*
X174295568Y-91164771D01*
X174388611Y-91195632D01*
X174388613Y-91195632D01*
X174395139Y-91197797D01*
X174401975Y-91198497D01*
X174401978Y-91198498D01*
X174445031Y-91202909D01*
X174499600Y-91208500D01*
X175900400Y-91208500D01*
X175903644Y-91208163D01*
X175903652Y-91208163D01*
X175952497Y-91203095D01*
X176022318Y-91215960D01*
X176074100Y-91264531D01*
X176091500Y-91328422D01*
X176091500Y-94471510D01*
X176071498Y-94539631D01*
X176017842Y-94586124D01*
X175952658Y-94596854D01*
X175903601Y-94591828D01*
X175903602Y-94591828D01*
X175900400Y-94591500D01*
X174499600Y-94591500D01*
X174496354Y-94591837D01*
X174496350Y-94591837D01*
X174400692Y-94601762D01*
X174400688Y-94601763D01*
X174393834Y-94602474D01*
X174387298Y-94604655D01*
X174387296Y-94604655D01*
X174285599Y-94638584D01*
X174226054Y-94658450D01*
X174184944Y-94683890D01*
X174150803Y-94705017D01*
X174082351Y-94723855D01*
X174014582Y-94702694D01*
X173969010Y-94648253D01*
X173958500Y-94597873D01*
X173958500Y-94183498D01*
X173957212Y-94167129D01*
X173956067Y-94152579D01*
X173956066Y-94152574D01*
X173955562Y-94146169D01*
X173913851Y-94002598D01*
X173911357Y-93994012D01*
X173911356Y-93994010D01*
X173909145Y-93986399D01*
X173895690Y-93963649D01*
X173878230Y-93894835D01*
X173895689Y-93835370D01*
X173904648Y-93820221D01*
X173910893Y-93805790D01*
X173949939Y-93671395D01*
X173949899Y-93657294D01*
X173942630Y-93654000D01*
X173617570Y-93654000D01*
X173568725Y-93643885D01*
X173563601Y-93640855D01*
X173555993Y-93638645D01*
X173555989Y-93638643D01*
X173475578Y-93615282D01*
X173403831Y-93594438D01*
X173397426Y-93593934D01*
X173397421Y-93593933D01*
X173368958Y-93591693D01*
X173368950Y-93591693D01*
X173366502Y-93591500D01*
X171983498Y-93591500D01*
X171981050Y-93591693D01*
X171981042Y-93591693D01*
X171952579Y-93593933D01*
X171952574Y-93593934D01*
X171946169Y-93594438D01*
X171939997Y-93596231D01*
X171939992Y-93596232D01*
X171896452Y-93608882D01*
X171854208Y-93621155D01*
X171783213Y-93620952D01*
X171759093Y-93610583D01*
X171756752Y-93608882D01*
X171728342Y-93596233D01*
X171588319Y-93533891D01*
X171588318Y-93533891D01*
X171582288Y-93531206D01*
X171475842Y-93508580D01*
X171401944Y-93492872D01*
X171401939Y-93492872D01*
X171395487Y-93491500D01*
X171204513Y-93491500D01*
X171198061Y-93492872D01*
X171198056Y-93492872D01*
X171124158Y-93508580D01*
X171017712Y-93531206D01*
X171011682Y-93533891D01*
X171011681Y-93533891D01*
X170849278Y-93606197D01*
X170849276Y-93606198D01*
X170843248Y-93608882D01*
X170837909Y-93612761D01*
X170837902Y-93612765D01*
X170831472Y-93617437D01*
X170757413Y-93641500D01*
X170455707Y-93641500D01*
X170385964Y-93649631D01*
X170331589Y-93655970D01*
X170331585Y-93655971D01*
X170324319Y-93656818D01*
X170317444Y-93659313D01*
X170317442Y-93659314D01*
X170164939Y-93714671D01*
X170158063Y-93717167D01*
X170151946Y-93721178D01*
X170151943Y-93721179D01*
X170076149Y-93770872D01*
X170007064Y-93791500D01*
X169787928Y-93791500D01*
X169784682Y-93791837D01*
X169784678Y-93791837D01*
X169690765Y-93801581D01*
X169690761Y-93801582D01*
X169683907Y-93802293D01*
X169677371Y-93804474D01*
X169677369Y-93804474D01*
X169587371Y-93834500D01*
X169518893Y-93857346D01*
X169400302Y-93930732D01*
X169331851Y-93949570D01*
X169264081Y-93928409D01*
X169218510Y-93873968D01*
X169208000Y-93823588D01*
X169208000Y-93666234D01*
X169207663Y-93659718D01*
X169197925Y-93565868D01*
X169195032Y-93552472D01*
X169144512Y-93401047D01*
X169138347Y-93387885D01*
X169054574Y-93252508D01*
X169042888Y-93237764D01*
X169016251Y-93171954D01*
X169029422Y-93102190D01*
X169078220Y-93050621D01*
X169141634Y-93033500D01*
X171274149Y-93033500D01*
X171342270Y-93053502D01*
X171388763Y-93107158D01*
X171395316Y-93137079D01*
X171398480Y-93141971D01*
X171407370Y-93146000D01*
X171732430Y-93146000D01*
X171781275Y-93156115D01*
X171786399Y-93159145D01*
X171794007Y-93161355D01*
X171794011Y-93161357D01*
X171874422Y-93184718D01*
X171946169Y-93205562D01*
X171952574Y-93206066D01*
X171952579Y-93206067D01*
X171981042Y-93208307D01*
X171981050Y-93208307D01*
X171983498Y-93208500D01*
X173366502Y-93208500D01*
X173368950Y-93208307D01*
X173368958Y-93208307D01*
X173397421Y-93206067D01*
X173397426Y-93206066D01*
X173403831Y-93205562D01*
X173475578Y-93184718D01*
X173555989Y-93161357D01*
X173555993Y-93161355D01*
X173563601Y-93159145D01*
X173568725Y-93156115D01*
X173617570Y-93146000D01*
X173936878Y-93146000D01*
X173950409Y-93142027D01*
X173951544Y-93134129D01*
X173910893Y-92994210D01*
X173904648Y-92979779D01*
X173895689Y-92964630D01*
X173878230Y-92895814D01*
X173895690Y-92836352D01*
X173909145Y-92813601D01*
X173955562Y-92653831D01*
X173958500Y-92616502D01*
X173958500Y-92183498D01*
X173955562Y-92146169D01*
X173919333Y-92021466D01*
X173911357Y-91994012D01*
X173911356Y-91994010D01*
X173909145Y-91986399D01*
X173905109Y-91979574D01*
X173895980Y-91964137D01*
X173878522Y-91895321D01*
X173895980Y-91835863D01*
X173905109Y-91820426D01*
X173905110Y-91820424D01*
X173909145Y-91813601D01*
X173955562Y-91653831D01*
X173957132Y-91633890D01*
X173958307Y-91618958D01*
X173958307Y-91618950D01*
X173958500Y-91616502D01*
X173958500Y-91202130D01*
X173978502Y-91134009D01*
X174032158Y-91087516D01*
X174102432Y-91077412D01*
X174150616Y-91094870D01*
G37*
%TD.AperFunction*%
%TA.AperFunction,Conductor*%
G36*
X151389509Y-87128502D02*
G01*
X151436002Y-87182158D01*
X151446106Y-87252432D01*
X151430507Y-87297500D01*
X151354273Y-87429542D01*
X151340473Y-87453444D01*
X151281458Y-87635072D01*
X151261496Y-87825000D01*
X151262186Y-87831565D01*
X151279746Y-87998636D01*
X151281458Y-88014928D01*
X151340473Y-88196556D01*
X151343777Y-88202279D01*
X151346461Y-88208307D01*
X151343820Y-88209483D01*
X151357547Y-88266217D01*
X151334285Y-88333294D01*
X151320867Y-88349161D01*
X151298071Y-88371997D01*
X151294231Y-88378227D01*
X151294230Y-88378228D01*
X151211364Y-88512662D01*
X151206791Y-88520080D01*
X151152026Y-88685191D01*
X151141500Y-88787928D01*
X151141500Y-89487072D01*
X151141837Y-89490318D01*
X151141837Y-89490322D01*
X151151193Y-89580488D01*
X151152293Y-89591093D01*
X151154474Y-89597629D01*
X151154474Y-89597631D01*
X151181911Y-89679868D01*
X151207346Y-89756107D01*
X151298884Y-89904031D01*
X151304065Y-89909203D01*
X151306139Y-89911273D01*
X151307105Y-89913038D01*
X151308613Y-89914941D01*
X151308287Y-89915199D01*
X151340219Y-89973554D01*
X151335218Y-90044375D01*
X151306292Y-90089470D01*
X151303636Y-90092131D01*
X151294625Y-90103540D01*
X151211088Y-90239063D01*
X151204944Y-90252241D01*
X151154685Y-90403766D01*
X151151819Y-90417132D01*
X151142328Y-90509770D01*
X151142000Y-90516185D01*
X151142000Y-90590385D01*
X151146475Y-90605624D01*
X151147865Y-90606829D01*
X151155548Y-90608500D01*
X153089885Y-90608500D01*
X153105124Y-90604025D01*
X153106329Y-90602635D01*
X153108000Y-90594952D01*
X153108000Y-90516234D01*
X153107663Y-90509718D01*
X153097925Y-90415868D01*
X153095032Y-90402472D01*
X153044512Y-90251047D01*
X153038347Y-90237885D01*
X152954574Y-90102508D01*
X152945536Y-90091106D01*
X152943861Y-90089433D01*
X152943081Y-90088007D01*
X152940993Y-90085373D01*
X152941444Y-90085016D01*
X152909781Y-90027151D01*
X152914784Y-89956331D01*
X152943701Y-89911246D01*
X152946756Y-89908185D01*
X152951929Y-89903003D01*
X152957803Y-89893474D01*
X153039369Y-89761150D01*
X153039370Y-89761148D01*
X153043209Y-89754920D01*
X153097974Y-89589809D01*
X153100277Y-89567336D01*
X153105590Y-89515472D01*
X153108500Y-89487072D01*
X153108500Y-88787928D01*
X153108163Y-88784678D01*
X153098419Y-88690765D01*
X153098418Y-88690761D01*
X153097707Y-88683907D01*
X153079223Y-88628502D01*
X153044972Y-88525841D01*
X153042654Y-88518893D01*
X152968882Y-88399678D01*
X152950044Y-88331227D01*
X152966907Y-88270376D01*
X153006223Y-88202279D01*
X153006224Y-88202278D01*
X153009527Y-88196556D01*
X153068542Y-88014928D01*
X153070255Y-87998636D01*
X153087814Y-87831565D01*
X153088504Y-87825000D01*
X153068542Y-87635072D01*
X153009527Y-87453444D01*
X152995727Y-87429542D01*
X152919493Y-87297500D01*
X152902755Y-87228504D01*
X152925976Y-87161413D01*
X152981783Y-87117526D01*
X153028612Y-87108500D01*
X156891405Y-87108500D01*
X156959526Y-87128502D01*
X157006019Y-87182158D01*
X157016123Y-87252432D01*
X156986629Y-87317012D01*
X156980500Y-87323595D01*
X153219604Y-91084491D01*
X153157292Y-91118517D01*
X153103729Y-91118517D01*
X153094456Y-91116500D01*
X152397115Y-91116500D01*
X152381876Y-91120975D01*
X152380671Y-91122365D01*
X152379000Y-91130048D01*
X152379000Y-91872905D01*
X152358998Y-91941026D01*
X152342095Y-91962000D01*
X151974500Y-92329595D01*
X151912188Y-92363621D01*
X151885405Y-92366500D01*
X151030382Y-92366500D01*
X150962261Y-92346498D01*
X150915768Y-92292842D01*
X150912401Y-92284731D01*
X150903769Y-92261707D01*
X150903767Y-92261703D01*
X150900615Y-92253295D01*
X150813261Y-92136739D01*
X150696705Y-92049385D01*
X150560316Y-91998255D01*
X150498134Y-91991500D01*
X150001866Y-91991500D01*
X149998469Y-91991869D01*
X149978742Y-91994012D01*
X149939684Y-91998255D01*
X149939420Y-91995826D01*
X149910580Y-91995826D01*
X149910316Y-91998255D01*
X149851531Y-91991869D01*
X149848134Y-91991500D01*
X149351866Y-91991500D01*
X149348469Y-91991869D01*
X149328742Y-91994012D01*
X149289684Y-91998255D01*
X149289420Y-91995826D01*
X149260580Y-91995826D01*
X149260316Y-91998255D01*
X149201531Y-91991869D01*
X149198134Y-91991500D01*
X148701866Y-91991500D01*
X148698469Y-91991869D01*
X148678742Y-91994012D01*
X148639684Y-91998255D01*
X148639420Y-91995826D01*
X148610580Y-91995826D01*
X148610316Y-91998255D01*
X148551531Y-91991869D01*
X148548134Y-91991500D01*
X148051866Y-91991500D01*
X148048469Y-91991869D01*
X148028742Y-91994012D01*
X147989684Y-91998255D01*
X147989420Y-91995826D01*
X147960580Y-91995826D01*
X147960316Y-91998255D01*
X147901531Y-91991869D01*
X147898134Y-91991500D01*
X147401866Y-91991500D01*
X147398469Y-91991869D01*
X147378742Y-91994012D01*
X147339684Y-91998255D01*
X147339452Y-91996116D01*
X147310488Y-91996166D01*
X147310207Y-91998748D01*
X147251486Y-91992369D01*
X147244672Y-91992000D01*
X147218115Y-91992000D01*
X147202876Y-91996475D01*
X147180611Y-92022170D01*
X147179799Y-92021466D01*
X147173596Y-92032826D01*
X147111284Y-92066851D01*
X147040468Y-92061787D01*
X146983632Y-92019241D01*
X146958821Y-91952721D01*
X146958500Y-91943731D01*
X146958500Y-91502024D01*
X146978502Y-91433903D01*
X146990858Y-91417721D01*
X147064040Y-91336444D01*
X147137755Y-91208766D01*
X151142000Y-91208766D01*
X151142337Y-91215282D01*
X151152075Y-91309132D01*
X151154968Y-91322528D01*
X151205488Y-91473953D01*
X151211653Y-91487115D01*
X151295426Y-91622492D01*
X151304460Y-91633890D01*
X151417129Y-91746363D01*
X151428540Y-91755375D01*
X151564063Y-91838912D01*
X151577241Y-91845056D01*
X151728766Y-91895315D01*
X151742132Y-91898181D01*
X151834770Y-91907672D01*
X151841185Y-91908000D01*
X151852885Y-91908000D01*
X151868124Y-91903525D01*
X151869329Y-91902135D01*
X151871000Y-91894452D01*
X151871000Y-91134615D01*
X151866525Y-91119376D01*
X151865135Y-91118171D01*
X151857452Y-91116500D01*
X151160115Y-91116500D01*
X151144876Y-91120975D01*
X151143671Y-91122365D01*
X151142000Y-91130048D01*
X151142000Y-91208766D01*
X147137755Y-91208766D01*
X147159527Y-91171056D01*
X147218542Y-90989428D01*
X147223360Y-90943593D01*
X147237814Y-90806065D01*
X147238504Y-90799500D01*
X147228761Y-90706803D01*
X147219232Y-90616135D01*
X147219232Y-90616133D01*
X147218542Y-90609572D01*
X147159527Y-90427944D01*
X147064040Y-90262556D01*
X147058884Y-90256829D01*
X146936253Y-90120634D01*
X146937976Y-90119082D01*
X146906315Y-90067697D01*
X146907662Y-89996714D01*
X146947173Y-89937727D01*
X147012302Y-89909465D01*
X147027863Y-89908500D01*
X147896538Y-89908500D01*
X147907721Y-89909027D01*
X147915214Y-89910702D01*
X147923140Y-89910453D01*
X147923141Y-89910453D01*
X147983291Y-89908562D01*
X147987250Y-89908500D01*
X148015161Y-89908500D01*
X148019096Y-89908003D01*
X148019161Y-89907995D01*
X148030998Y-89907062D01*
X148063256Y-89906048D01*
X148067275Y-89905922D01*
X148075194Y-89905673D01*
X148094648Y-89900021D01*
X148114005Y-89896013D01*
X148126235Y-89894468D01*
X148126236Y-89894468D01*
X148134102Y-89893474D01*
X148141473Y-89890555D01*
X148141475Y-89890555D01*
X148175217Y-89877196D01*
X148186447Y-89873351D01*
X148221288Y-89863229D01*
X148221289Y-89863229D01*
X148228898Y-89861018D01*
X148235717Y-89856985D01*
X148235722Y-89856983D01*
X148246333Y-89850707D01*
X148264081Y-89842012D01*
X148282922Y-89834552D01*
X148299456Y-89822540D01*
X148318692Y-89808564D01*
X148328612Y-89802048D01*
X148359840Y-89783580D01*
X148359843Y-89783578D01*
X148366667Y-89779542D01*
X148380988Y-89765221D01*
X148396022Y-89752380D01*
X148402089Y-89747972D01*
X148412412Y-89740472D01*
X148440603Y-89706395D01*
X148448593Y-89697616D01*
X148792247Y-89353962D01*
X148800537Y-89346418D01*
X148807018Y-89342305D01*
X148853659Y-89292637D01*
X148856413Y-89289796D01*
X148876134Y-89270075D01*
X148878612Y-89266880D01*
X148886318Y-89257858D01*
X148911158Y-89231406D01*
X148916586Y-89225626D01*
X148926346Y-89207873D01*
X148937199Y-89191350D01*
X148944753Y-89181611D01*
X148949613Y-89175346D01*
X148967176Y-89134762D01*
X148972383Y-89124132D01*
X148993695Y-89085365D01*
X148995666Y-89077688D01*
X148995668Y-89077683D01*
X148998732Y-89065747D01*
X149005138Y-89047035D01*
X149010034Y-89035722D01*
X149013181Y-89028450D01*
X149017296Y-89002474D01*
X149020097Y-88984786D01*
X149022504Y-88973165D01*
X149031528Y-88938016D01*
X149031528Y-88938015D01*
X149033500Y-88930335D01*
X149033500Y-88910074D01*
X149035051Y-88890363D01*
X149036979Y-88878190D01*
X149038219Y-88870362D01*
X149034059Y-88826351D01*
X149033500Y-88814494D01*
X149033500Y-88334500D01*
X149053502Y-88266379D01*
X149107158Y-88219886D01*
X149159500Y-88208500D01*
X149198134Y-88208500D01*
X149260316Y-88201745D01*
X149260580Y-88204174D01*
X149289420Y-88204174D01*
X149289684Y-88201745D01*
X149351866Y-88208500D01*
X149848134Y-88208500D01*
X149910316Y-88201745D01*
X149910580Y-88204174D01*
X149939420Y-88204174D01*
X149939684Y-88201745D01*
X150001866Y-88208500D01*
X150498134Y-88208500D01*
X150560316Y-88201745D01*
X150696705Y-88150615D01*
X150813261Y-88063261D01*
X150900615Y-87946705D01*
X150951745Y-87810316D01*
X150958500Y-87748134D01*
X150958500Y-87439595D01*
X150978502Y-87371474D01*
X150995405Y-87350499D01*
X151200501Y-87145404D01*
X151262813Y-87111379D01*
X151289596Y-87108500D01*
X151321388Y-87108500D01*
X151389509Y-87128502D01*
G37*
%TD.AperFunction*%
%TD*%
M02*
