%TF.GenerationSoftware,KiCad,Pcbnew,(6.0.10-0)*%
%TF.CreationDate,2022-12-23T16:53:29-05:00*%
%TF.ProjectId,LCD-StemmaQT,4c43442d-5374-4656-9d6d-6151542e6b69,1.0.0*%
%TF.SameCoordinates,Original*%
%TF.FileFunction,Legend,Bot*%
%TF.FilePolarity,Positive*%
%FSLAX46Y46*%
G04 Gerber Fmt 4.6, Leading zero omitted, Abs format (unit mm)*
G04 Created by KiCad (PCBNEW (6.0.10-0)) date 2022-12-23 16:53:29*
%MOMM*%
%LPD*%
G01*
G04 APERTURE LIST*
%ADD10C,0.150000*%
%ADD11C,0.120000*%
%ADD12C,1.440000*%
%ADD13R,1.700000X1.700000*%
%ADD14O,1.700000X1.700000*%
G04 APERTURE END LIST*
D10*
%TO.C,J102*%
X175985714Y-86252380D02*
X175985714Y-86966666D01*
X176033333Y-87109523D01*
X176128571Y-87204761D01*
X176271428Y-87252380D01*
X176366666Y-87252380D01*
X174985714Y-87252380D02*
X175557142Y-87252380D01*
X175271428Y-87252380D02*
X175271428Y-86252380D01*
X175366666Y-86395238D01*
X175461904Y-86490476D01*
X175557142Y-86538095D01*
X174366666Y-86252380D02*
X174271428Y-86252380D01*
X174176190Y-86300000D01*
X174128571Y-86347619D01*
X174080952Y-86442857D01*
X174033333Y-86633333D01*
X174033333Y-86871428D01*
X174080952Y-87061904D01*
X174128571Y-87157142D01*
X174176190Y-87204761D01*
X174271428Y-87252380D01*
X174366666Y-87252380D01*
X174461904Y-87204761D01*
X174509523Y-87157142D01*
X174557142Y-87061904D01*
X174604761Y-86871428D01*
X174604761Y-86633333D01*
X174557142Y-86442857D01*
X174509523Y-86347619D01*
X174461904Y-86300000D01*
X174366666Y-86252380D01*
X173652380Y-86347619D02*
X173604761Y-86300000D01*
X173509523Y-86252380D01*
X173271428Y-86252380D01*
X173176190Y-86300000D01*
X173128571Y-86347619D01*
X173080952Y-86442857D01*
X173080952Y-86538095D01*
X173128571Y-86680952D01*
X173700000Y-87252380D01*
X173080952Y-87252380D01*
D11*
X174900000Y-85580000D02*
X176230000Y-85580000D01*
X173630000Y-85580000D02*
X173630000Y-82920000D01*
X176230000Y-85580000D02*
X176230000Y-84250000D01*
X173630000Y-85580000D02*
X135470000Y-85580000D01*
X135470000Y-85580000D02*
X135470000Y-82920000D01*
X173630000Y-82920000D02*
X135470000Y-82920000D01*
%TD*%
%LPC*%
D12*
%TO.C,RV101*%
X163580000Y-88610000D03*
X158500000Y-91150000D03*
X163580000Y-93690000D03*
%TD*%
D13*
%TO.C,J103*%
X139575000Y-98318343D03*
D14*
X139575000Y-95778343D03*
%TD*%
D13*
%TO.C,J102*%
X174900000Y-84250000D03*
D14*
X172360000Y-84250000D03*
X169820000Y-84250000D03*
X167280000Y-84250000D03*
X164740000Y-84250000D03*
X162200000Y-84250000D03*
X159660000Y-84250000D03*
X157120000Y-84250000D03*
X154580000Y-84250000D03*
X152040000Y-84250000D03*
X149500000Y-84250000D03*
X146960000Y-84250000D03*
X144420000Y-84250000D03*
X141880000Y-84250000D03*
X139340000Y-84250000D03*
X136800000Y-84250000D03*
%TD*%
M02*
