%TF.GenerationSoftware,KiCad,Pcbnew,(6.0.10-0)*%
%TF.CreationDate,2022-12-23T16:53:29-05:00*%
%TF.ProjectId,LCD-StemmaQT,4c43442d-5374-4656-9d6d-6151542e6b69,1.0.0*%
%TF.SameCoordinates,Original*%
%TF.FileFunction,Copper,L2,Bot*%
%TF.FilePolarity,Positive*%
%FSLAX46Y46*%
G04 Gerber Fmt 4.6, Leading zero omitted, Abs format (unit mm)*
G04 Created by KiCad (PCBNEW (6.0.10-0)) date 2022-12-23 16:53:29*
%MOMM*%
%LPD*%
G01*
G04 APERTURE LIST*
%TA.AperFunction,ComponentPad*%
%ADD10C,1.440000*%
%TD*%
%TA.AperFunction,ComponentPad*%
%ADD11R,1.700000X1.700000*%
%TD*%
%TA.AperFunction,ComponentPad*%
%ADD12O,1.700000X1.700000*%
%TD*%
%TA.AperFunction,ViaPad*%
%ADD13C,0.800000*%
%TD*%
%TA.AperFunction,Conductor*%
%ADD14C,0.400000*%
%TD*%
%TA.AperFunction,Conductor*%
%ADD15C,0.250000*%
%TD*%
G04 APERTURE END LIST*
D10*
%TO.P,RV101,1,1*%
%TO.N,VCC*%
X163580000Y-88610000D03*
%TO.P,RV101,2,2*%
%TO.N,/LCD_VO*%
X158500000Y-91150000D03*
%TO.P,RV101,3,3*%
%TO.N,GND*%
X163580000Y-93690000D03*
%TD*%
D11*
%TO.P,J103,1,Pin_1*%
%TO.N,/LCD_A*%
X139575000Y-98318343D03*
D12*
%TO.P,J103,2,Pin_2*%
%TO.N,VCC*%
X139575000Y-95778343D03*
%TD*%
D11*
%TO.P,J102,1,Pin_1*%
%TO.N,GND*%
X174900000Y-84250000D03*
D12*
%TO.P,J102,2,Pin_2*%
%TO.N,VCC*%
X172360000Y-84250000D03*
%TO.P,J102,3,Pin_3*%
%TO.N,/LCD_VO*%
X169820000Y-84250000D03*
%TO.P,J102,4,Pin_4*%
%TO.N,/RS*%
X167280000Y-84250000D03*
%TO.P,J102,5,Pin_5*%
%TO.N,/RW*%
X164740000Y-84250000D03*
%TO.P,J102,6,Pin_6*%
%TO.N,/CS*%
X162200000Y-84250000D03*
%TO.P,J102,7,Pin_7*%
%TO.N,unconnected-(J102-Pad7)*%
X159660000Y-84250000D03*
%TO.P,J102,8,Pin_8*%
%TO.N,unconnected-(J102-Pad8)*%
X157120000Y-84250000D03*
%TO.P,J102,9,Pin_9*%
%TO.N,unconnected-(J102-Pad9)*%
X154580000Y-84250000D03*
%TO.P,J102,10,Pin_10*%
%TO.N,unconnected-(J102-Pad10)*%
X152040000Y-84250000D03*
%TO.P,J102,11,Pin_11*%
%TO.N,/DB4*%
X149500000Y-84250000D03*
%TO.P,J102,12,Pin_12*%
%TO.N,/DB5*%
X146960000Y-84250000D03*
%TO.P,J102,13,Pin_13*%
%TO.N,/DB6*%
X144420000Y-84250000D03*
%TO.P,J102,14,Pin_14*%
%TO.N,/DB7*%
X141880000Y-84250000D03*
%TO.P,J102,15,Pin_15*%
%TO.N,/LCD_A*%
X139340000Y-84250000D03*
%TO.P,J102,16,Pin_16*%
%TO.N,/LCD_K*%
X136800000Y-84250000D03*
%TD*%
D13*
%TO.N,VCC*%
X150900000Y-94900000D03*
X146350000Y-94900000D03*
X147525000Y-91700000D03*
%TO.N,GND*%
X147675000Y-88550000D03*
X145525000Y-100025000D03*
X137850000Y-90500000D03*
X171300000Y-94400000D03*
X152175000Y-87825000D03*
X149950000Y-100025000D03*
%TO.N,/SCL*%
X155494227Y-93950500D03*
X145025000Y-90075000D03*
%TO.N,/SDA*%
X146325000Y-90799500D03*
X154704457Y-94616212D03*
%TD*%
D14*
%TO.N,VCC*%
X147525000Y-91700000D02*
X143653343Y-91700000D01*
D15*
X140453343Y-94900000D02*
X139575000Y-95778343D01*
D14*
X143653343Y-91700000D02*
X139575000Y-95778343D01*
X150900000Y-94900000D02*
X146350000Y-94900000D01*
X146350000Y-94900000D02*
X140453343Y-94900000D01*
D15*
%TO.N,/SCL*%
X151618727Y-90075000D02*
X155494227Y-93950500D01*
X145025000Y-90075000D02*
X151618727Y-90075000D01*
%TO.N,/SDA*%
X146325000Y-90799500D02*
X146349500Y-90775000D01*
X150863245Y-90775000D02*
X154704457Y-94616212D01*
X146349500Y-90775000D02*
X150863245Y-90775000D01*
D14*
%TO.N,/LCD_VO*%
X169820000Y-84250000D02*
X167095000Y-86975000D01*
X167095000Y-86975000D02*
X162675000Y-86975000D01*
X162675000Y-86975000D02*
X158500000Y-91150000D01*
%TO.N,/LCD_A*%
X137900000Y-94825000D02*
X137900000Y-96643343D01*
X137900000Y-96643343D02*
X139575000Y-98318343D01*
X139340000Y-93385000D02*
X137900000Y-94825000D01*
X139340000Y-84250000D02*
X139340000Y-93385000D01*
%TD*%
%TA.AperFunction,Conductor*%
%TO.N,GND*%
G36*
X175096121Y-84016002D02*
G01*
X175142614Y-84069658D01*
X175154000Y-84122000D01*
X175154000Y-85589884D01*
X175158475Y-85605123D01*
X175159865Y-85606328D01*
X175167548Y-85607999D01*
X175794669Y-85607999D01*
X175801490Y-85607629D01*
X175852352Y-85602105D01*
X175867603Y-85598479D01*
X175921270Y-85578360D01*
X175992077Y-85573177D01*
X176054446Y-85607097D01*
X176088575Y-85669352D01*
X176091500Y-85696342D01*
X176091500Y-100890500D01*
X176071498Y-100958621D01*
X176017842Y-101005114D01*
X175965500Y-101016500D01*
X135734500Y-101016500D01*
X135666379Y-100996498D01*
X135619886Y-100942842D01*
X135608500Y-100890500D01*
X135608500Y-85287373D01*
X135628502Y-85219252D01*
X135682158Y-85172759D01*
X135752432Y-85162655D01*
X135817012Y-85192149D01*
X135829737Y-85204875D01*
X135842865Y-85220031D01*
X135842869Y-85220035D01*
X135846250Y-85223938D01*
X136018126Y-85366632D01*
X136211000Y-85479338D01*
X136215825Y-85481180D01*
X136215826Y-85481181D01*
X136288612Y-85508975D01*
X136419692Y-85559030D01*
X136424760Y-85560061D01*
X136424763Y-85560062D01*
X136489226Y-85573177D01*
X136638597Y-85603567D01*
X136643772Y-85603757D01*
X136643774Y-85603757D01*
X136856673Y-85611564D01*
X136856677Y-85611564D01*
X136861837Y-85611753D01*
X136866957Y-85611097D01*
X136866959Y-85611097D01*
X137078288Y-85584025D01*
X137078289Y-85584025D01*
X137083416Y-85583368D01*
X137088366Y-85581883D01*
X137292429Y-85520661D01*
X137292434Y-85520659D01*
X137297384Y-85519174D01*
X137497994Y-85420896D01*
X137679860Y-85291173D01*
X137683674Y-85287373D01*
X137788479Y-85182933D01*
X137838096Y-85133489D01*
X137968453Y-84952077D01*
X137969776Y-84953028D01*
X138016645Y-84909857D01*
X138086580Y-84897625D01*
X138152026Y-84925144D01*
X138179875Y-84956994D01*
X138239987Y-85055088D01*
X138386250Y-85223938D01*
X138558126Y-85366632D01*
X138569070Y-85373027D01*
X138617793Y-85424664D01*
X138631500Y-85481815D01*
X138631500Y-93039339D01*
X138611498Y-93107460D01*
X138594595Y-93128434D01*
X137419472Y-94303558D01*
X137413206Y-94309412D01*
X137375340Y-94342444D01*
X137375337Y-94342447D01*
X137369615Y-94347439D01*
X137353539Y-94370313D01*
X137332872Y-94399719D01*
X137328939Y-94405014D01*
X137289524Y-94455282D01*
X137286401Y-94462198D01*
X137285017Y-94464484D01*
X137276643Y-94479165D01*
X137275378Y-94481525D01*
X137271010Y-94487739D01*
X137268250Y-94494818D01*
X137268249Y-94494820D01*
X137247798Y-94547275D01*
X137245247Y-94553344D01*
X137218955Y-94611573D01*
X137217571Y-94619040D01*
X137216770Y-94621595D01*
X137212141Y-94637848D01*
X137211478Y-94640428D01*
X137208718Y-94647509D01*
X137200482Y-94710072D01*
X137200379Y-94710852D01*
X137199348Y-94717359D01*
X137187704Y-94780186D01*
X137188141Y-94787766D01*
X137188141Y-94787767D01*
X137191291Y-94842392D01*
X137191500Y-94849646D01*
X137191500Y-96614431D01*
X137191208Y-96623001D01*
X137187275Y-96680695D01*
X137188580Y-96688172D01*
X137188580Y-96688173D01*
X137198261Y-96743642D01*
X137199223Y-96750164D01*
X137206898Y-96813585D01*
X137209581Y-96820686D01*
X137210222Y-96823295D01*
X137214685Y-96839605D01*
X137215450Y-96842141D01*
X137216757Y-96849627D01*
X137219811Y-96856584D01*
X137242442Y-96908138D01*
X137244933Y-96914242D01*
X137267513Y-96973999D01*
X137271817Y-96980262D01*
X137273054Y-96982628D01*
X137281299Y-96997440D01*
X137282632Y-96999694D01*
X137285685Y-97006648D01*
X137291769Y-97014576D01*
X137324579Y-97057334D01*
X137328459Y-97062675D01*
X137360339Y-97109063D01*
X137360344Y-97109068D01*
X137364643Y-97115324D01*
X137370313Y-97120375D01*
X137370314Y-97120377D01*
X137411170Y-97156778D01*
X137416446Y-97161759D01*
X138179595Y-97924908D01*
X138213621Y-97987220D01*
X138216500Y-98014003D01*
X138216500Y-99216477D01*
X138223255Y-99278659D01*
X138274385Y-99415048D01*
X138361739Y-99531604D01*
X138478295Y-99618958D01*
X138614684Y-99670088D01*
X138676866Y-99676843D01*
X140473134Y-99676843D01*
X140535316Y-99670088D01*
X140671705Y-99618958D01*
X140788261Y-99531604D01*
X140875615Y-99415048D01*
X140926745Y-99278659D01*
X140933500Y-99216477D01*
X140933500Y-97420209D01*
X140926745Y-97358027D01*
X140875615Y-97221638D01*
X140788261Y-97105082D01*
X140671705Y-97017728D01*
X140617587Y-96997440D01*
X140553203Y-96973303D01*
X140496439Y-96930661D01*
X140471739Y-96864099D01*
X140486947Y-96794751D01*
X140508493Y-96766070D01*
X140527750Y-96746880D01*
X140613096Y-96661832D01*
X140644077Y-96618718D01*
X140740435Y-96484620D01*
X140743453Y-96480420D01*
X140842430Y-96280154D01*
X140907370Y-96066412D01*
X140936529Y-95844933D01*
X140938156Y-95778343D01*
X140935400Y-95744823D01*
X140949752Y-95675294D01*
X140999418Y-95624561D01*
X141060976Y-95608500D01*
X145738595Y-95608500D01*
X145806716Y-95628502D01*
X145812656Y-95632564D01*
X145893248Y-95691118D01*
X145899276Y-95693802D01*
X145899278Y-95693803D01*
X146013876Y-95744825D01*
X146067712Y-95768794D01*
X146161112Y-95788647D01*
X146248056Y-95807128D01*
X146248061Y-95807128D01*
X146254513Y-95808500D01*
X146445487Y-95808500D01*
X146451939Y-95807128D01*
X146451944Y-95807128D01*
X146538888Y-95788647D01*
X146632288Y-95768794D01*
X146686124Y-95744825D01*
X146800722Y-95693803D01*
X146800724Y-95693802D01*
X146806752Y-95691118D01*
X146887344Y-95632564D01*
X146954211Y-95608706D01*
X146961405Y-95608500D01*
X150288595Y-95608500D01*
X150356716Y-95628502D01*
X150362656Y-95632564D01*
X150443248Y-95691118D01*
X150449276Y-95693802D01*
X150449278Y-95693803D01*
X150563876Y-95744825D01*
X150617712Y-95768794D01*
X150711112Y-95788647D01*
X150798056Y-95807128D01*
X150798061Y-95807128D01*
X150804513Y-95808500D01*
X150995487Y-95808500D01*
X151001939Y-95807128D01*
X151001944Y-95807128D01*
X151088888Y-95788647D01*
X151182288Y-95768794D01*
X151236124Y-95744825D01*
X151350722Y-95693803D01*
X151350724Y-95693802D01*
X151356752Y-95691118D01*
X151511253Y-95578866D01*
X151515675Y-95573955D01*
X151634621Y-95441852D01*
X151634622Y-95441851D01*
X151639040Y-95436944D01*
X151734527Y-95271556D01*
X151793542Y-95089928D01*
X151813504Y-94900000D01*
X151807830Y-94846016D01*
X151794232Y-94716635D01*
X151794232Y-94716633D01*
X151793542Y-94710072D01*
X151734527Y-94528444D01*
X151639040Y-94363056D01*
X151625160Y-94347640D01*
X151515675Y-94226045D01*
X151515674Y-94226044D01*
X151511253Y-94221134D01*
X151391138Y-94133865D01*
X151362094Y-94112763D01*
X151362093Y-94112762D01*
X151356752Y-94108882D01*
X151350724Y-94106198D01*
X151350722Y-94106197D01*
X151188319Y-94033891D01*
X151188318Y-94033891D01*
X151182288Y-94031206D01*
X151088887Y-94011353D01*
X151001944Y-93992872D01*
X151001939Y-93992872D01*
X150995487Y-93991500D01*
X150804513Y-93991500D01*
X150798061Y-93992872D01*
X150798056Y-93992872D01*
X150711113Y-94011353D01*
X150617712Y-94031206D01*
X150611682Y-94033891D01*
X150611681Y-94033891D01*
X150449278Y-94106197D01*
X150449276Y-94106198D01*
X150443248Y-94108882D01*
X150437907Y-94112762D01*
X150437906Y-94112763D01*
X150362656Y-94167436D01*
X150295789Y-94191294D01*
X150288595Y-94191500D01*
X146961405Y-94191500D01*
X146893284Y-94171498D01*
X146887344Y-94167436D01*
X146812094Y-94112763D01*
X146812093Y-94112762D01*
X146806752Y-94108882D01*
X146800724Y-94106198D01*
X146800722Y-94106197D01*
X146638319Y-94033891D01*
X146638318Y-94033891D01*
X146632288Y-94031206D01*
X146538887Y-94011353D01*
X146451944Y-93992872D01*
X146451939Y-93992872D01*
X146445487Y-93991500D01*
X146254513Y-93991500D01*
X146248061Y-93992872D01*
X146248056Y-93992872D01*
X146161113Y-94011353D01*
X146067712Y-94031206D01*
X146061682Y-94033891D01*
X146061681Y-94033891D01*
X145899278Y-94106197D01*
X145899276Y-94106198D01*
X145893248Y-94108882D01*
X145887907Y-94112762D01*
X145887906Y-94112763D01*
X145812656Y-94167436D01*
X145745789Y-94191294D01*
X145738595Y-94191500D01*
X142468003Y-94191500D01*
X142399882Y-94171498D01*
X142353389Y-94117842D01*
X142343285Y-94047568D01*
X142372779Y-93982988D01*
X142378908Y-93976405D01*
X143909908Y-92445405D01*
X143972220Y-92411379D01*
X143999003Y-92408500D01*
X146913595Y-92408500D01*
X146981716Y-92428502D01*
X146987656Y-92432564D01*
X147049450Y-92477460D01*
X147068248Y-92491118D01*
X147074276Y-92493802D01*
X147074278Y-92493803D01*
X147156086Y-92530226D01*
X147242712Y-92568794D01*
X147336112Y-92588647D01*
X147423056Y-92607128D01*
X147423061Y-92607128D01*
X147429513Y-92608500D01*
X147620487Y-92608500D01*
X147626939Y-92607128D01*
X147626944Y-92607128D01*
X147713888Y-92588647D01*
X147807288Y-92568794D01*
X147893914Y-92530226D01*
X147975722Y-92493803D01*
X147975724Y-92493802D01*
X147981752Y-92491118D01*
X148136253Y-92378866D01*
X148199321Y-92308822D01*
X148259621Y-92241852D01*
X148259622Y-92241851D01*
X148264040Y-92236944D01*
X148359527Y-92071556D01*
X148418542Y-91889928D01*
X148438504Y-91700000D01*
X148425551Y-91576759D01*
X148422494Y-91547670D01*
X148435266Y-91477832D01*
X148483768Y-91425985D01*
X148547804Y-91408500D01*
X150548651Y-91408500D01*
X150616772Y-91428502D01*
X150637746Y-91445405D01*
X152214338Y-93021998D01*
X153757335Y-94564995D01*
X153791361Y-94627307D01*
X153793550Y-94640918D01*
X153795034Y-94655042D01*
X153804134Y-94741618D01*
X153810915Y-94806140D01*
X153869930Y-94987768D01*
X153965417Y-95153156D01*
X154093204Y-95295078D01*
X154247705Y-95407330D01*
X154253733Y-95410014D01*
X154253735Y-95410015D01*
X154314219Y-95436944D01*
X154422169Y-95485006D01*
X154515569Y-95504859D01*
X154602513Y-95523340D01*
X154602518Y-95523340D01*
X154608970Y-95524712D01*
X154799944Y-95524712D01*
X154806396Y-95523340D01*
X154806401Y-95523340D01*
X154893344Y-95504859D01*
X154986745Y-95485006D01*
X155094695Y-95436944D01*
X155155179Y-95410015D01*
X155155181Y-95410014D01*
X155161209Y-95407330D01*
X155315710Y-95295078D01*
X155443497Y-95153156D01*
X155538984Y-94987768D01*
X155557684Y-94930216D01*
X155597757Y-94871610D01*
X155651319Y-94845905D01*
X155776515Y-94819294D01*
X155806060Y-94806140D01*
X155944949Y-94744303D01*
X155944951Y-94744302D01*
X155950979Y-94741618D01*
X155982632Y-94718621D01*
X162915933Y-94718621D01*
X162925227Y-94730635D01*
X162959146Y-94754385D01*
X162968641Y-94759868D01*
X163153413Y-94846028D01*
X163163705Y-94849774D01*
X163360632Y-94902540D01*
X163371425Y-94904443D01*
X163574525Y-94922212D01*
X163585475Y-94922212D01*
X163788575Y-94904443D01*
X163799368Y-94902540D01*
X163996295Y-94849774D01*
X164006587Y-94846028D01*
X164191359Y-94759868D01*
X164200854Y-94754385D01*
X164235607Y-94730051D01*
X164243983Y-94719572D01*
X164236916Y-94706127D01*
X163592811Y-94062021D01*
X163578868Y-94054408D01*
X163577034Y-94054539D01*
X163570420Y-94058790D01*
X162922360Y-94706851D01*
X162915933Y-94718621D01*
X155982632Y-94718621D01*
X155998832Y-94706851D01*
X156089577Y-94640920D01*
X156105480Y-94629366D01*
X156179395Y-94547275D01*
X156228848Y-94492352D01*
X156228849Y-94492351D01*
X156233267Y-94487444D01*
X156307916Y-94358148D01*
X156325450Y-94327779D01*
X156325451Y-94327778D01*
X156328754Y-94322056D01*
X156387769Y-94140428D01*
X156391357Y-94106295D01*
X156407041Y-93957065D01*
X156407731Y-93950500D01*
X156387769Y-93760572D01*
X156366618Y-93695475D01*
X162347788Y-93695475D01*
X162365557Y-93898575D01*
X162367460Y-93909368D01*
X162420226Y-94106295D01*
X162423972Y-94116587D01*
X162510135Y-94301364D01*
X162515613Y-94310850D01*
X162539949Y-94345607D01*
X162550428Y-94353983D01*
X162563872Y-94346917D01*
X163207979Y-93702811D01*
X163214356Y-93691132D01*
X163944408Y-93691132D01*
X163944539Y-93692966D01*
X163948790Y-93699580D01*
X164596851Y-94347640D01*
X164608621Y-94354067D01*
X164620635Y-94344772D01*
X164644387Y-94310850D01*
X164649865Y-94301364D01*
X164736028Y-94116587D01*
X164739774Y-94106295D01*
X164792540Y-93909368D01*
X164794443Y-93898575D01*
X164812212Y-93695475D01*
X164812212Y-93684525D01*
X164794443Y-93481425D01*
X164792540Y-93470632D01*
X164739774Y-93273705D01*
X164736028Y-93263413D01*
X164649865Y-93078636D01*
X164644387Y-93069150D01*
X164620051Y-93034393D01*
X164609572Y-93026017D01*
X164596128Y-93033083D01*
X163952021Y-93677189D01*
X163944408Y-93691132D01*
X163214356Y-93691132D01*
X163215592Y-93688868D01*
X163215461Y-93687034D01*
X163211210Y-93680420D01*
X162563149Y-93032360D01*
X162551379Y-93025933D01*
X162539365Y-93035228D01*
X162515613Y-93069150D01*
X162510135Y-93078636D01*
X162423972Y-93263413D01*
X162420226Y-93273705D01*
X162367460Y-93470632D01*
X162365557Y-93481425D01*
X162347788Y-93684525D01*
X162347788Y-93695475D01*
X156366618Y-93695475D01*
X156328754Y-93578944D01*
X156233267Y-93413556D01*
X156150119Y-93321210D01*
X156109902Y-93276545D01*
X156109901Y-93276544D01*
X156105480Y-93271634D01*
X155950979Y-93159382D01*
X155944951Y-93156698D01*
X155944949Y-93156697D01*
X155782546Y-93084391D01*
X155782545Y-93084391D01*
X155776515Y-93081706D01*
X155683114Y-93061853D01*
X155596171Y-93043372D01*
X155596166Y-93043372D01*
X155589714Y-93042000D01*
X155533821Y-93042000D01*
X155465700Y-93021998D01*
X155444726Y-93005095D01*
X155100059Y-92660428D01*
X162916017Y-92660428D01*
X162923083Y-92673872D01*
X163567189Y-93317979D01*
X163581132Y-93325592D01*
X163582966Y-93325461D01*
X163589580Y-93321210D01*
X164237640Y-92673149D01*
X164244067Y-92661379D01*
X164234773Y-92649365D01*
X164200854Y-92625615D01*
X164191359Y-92620132D01*
X164006587Y-92533972D01*
X163996295Y-92530226D01*
X163799368Y-92477460D01*
X163788575Y-92475557D01*
X163585475Y-92457788D01*
X163574525Y-92457788D01*
X163371425Y-92475557D01*
X163360632Y-92477460D01*
X163163705Y-92530226D01*
X163153413Y-92533972D01*
X162968636Y-92620135D01*
X162959150Y-92625613D01*
X162924393Y-92649949D01*
X162916017Y-92660428D01*
X155100059Y-92660428D01*
X153798294Y-91358662D01*
X152122379Y-89682747D01*
X152114839Y-89674461D01*
X152110727Y-89667982D01*
X152061075Y-89621356D01*
X152058234Y-89618602D01*
X152038497Y-89598865D01*
X152035300Y-89596385D01*
X152026278Y-89588680D01*
X151999827Y-89563841D01*
X151994048Y-89558414D01*
X151987102Y-89554595D01*
X151987099Y-89554593D01*
X151976293Y-89548652D01*
X151959774Y-89537801D01*
X151953775Y-89533148D01*
X151943768Y-89525386D01*
X151936499Y-89522241D01*
X151936495Y-89522238D01*
X151903190Y-89507826D01*
X151892540Y-89502609D01*
X151853787Y-89481305D01*
X151834164Y-89476267D01*
X151815461Y-89469863D01*
X151804147Y-89464967D01*
X151804146Y-89464967D01*
X151796872Y-89461819D01*
X151789049Y-89460580D01*
X151789039Y-89460577D01*
X151753203Y-89454901D01*
X151741583Y-89452495D01*
X151706438Y-89443472D01*
X151706437Y-89443472D01*
X151698757Y-89441500D01*
X151678503Y-89441500D01*
X151658792Y-89439949D01*
X151646613Y-89438020D01*
X151638784Y-89436780D01*
X151630892Y-89437526D01*
X151594766Y-89440941D01*
X151582908Y-89441500D01*
X145733200Y-89441500D01*
X145665079Y-89421498D01*
X145645853Y-89405157D01*
X145645580Y-89405460D01*
X145640668Y-89401037D01*
X145636253Y-89396134D01*
X145481752Y-89283882D01*
X145475724Y-89281198D01*
X145475722Y-89281197D01*
X145313319Y-89208891D01*
X145313318Y-89208891D01*
X145307288Y-89206206D01*
X145213887Y-89186353D01*
X145126944Y-89167872D01*
X145126939Y-89167872D01*
X145120487Y-89166500D01*
X144929513Y-89166500D01*
X144923061Y-89167872D01*
X144923056Y-89167872D01*
X144836113Y-89186353D01*
X144742712Y-89206206D01*
X144736682Y-89208891D01*
X144736681Y-89208891D01*
X144574278Y-89281197D01*
X144574276Y-89281198D01*
X144568248Y-89283882D01*
X144413747Y-89396134D01*
X144409326Y-89401044D01*
X144409325Y-89401045D01*
X144300203Y-89522238D01*
X144285960Y-89538056D01*
X144271073Y-89563841D01*
X144206999Y-89674821D01*
X144190473Y-89703444D01*
X144131458Y-89885072D01*
X144130768Y-89891633D01*
X144130768Y-89891635D01*
X144120306Y-89991178D01*
X144111496Y-90075000D01*
X144131458Y-90264928D01*
X144190473Y-90446556D01*
X144285960Y-90611944D01*
X144413747Y-90753866D01*
X144425847Y-90762657D01*
X144427095Y-90763564D01*
X144470449Y-90819787D01*
X144476524Y-90890523D01*
X144443392Y-90953315D01*
X144381572Y-90988226D01*
X144353034Y-90991500D01*
X143682255Y-90991500D01*
X143673685Y-90991208D01*
X143623567Y-90987791D01*
X143623563Y-90987791D01*
X143615991Y-90987275D01*
X143608514Y-90988580D01*
X143608513Y-90988580D01*
X143582035Y-90993201D01*
X143553040Y-90998262D01*
X143546522Y-90999223D01*
X143483101Y-91006898D01*
X143476000Y-91009581D01*
X143473391Y-91010222D01*
X143457081Y-91014685D01*
X143454545Y-91015450D01*
X143447059Y-91016757D01*
X143440102Y-91019811D01*
X143388548Y-91042442D01*
X143382444Y-91044933D01*
X143322687Y-91067513D01*
X143316424Y-91071817D01*
X143314058Y-91073054D01*
X143299246Y-91081299D01*
X143296992Y-91082632D01*
X143290038Y-91085685D01*
X143239341Y-91124587D01*
X143234011Y-91128459D01*
X143187623Y-91160339D01*
X143187618Y-91160344D01*
X143181362Y-91164643D01*
X143176311Y-91170313D01*
X143176309Y-91170314D01*
X143139908Y-91211170D01*
X143134927Y-91216446D01*
X140006719Y-94344654D01*
X139988992Y-94359399D01*
X139981362Y-94364643D01*
X139946600Y-94403659D01*
X139886352Y-94441212D01*
X139830430Y-94443885D01*
X139708373Y-94422143D01*
X139708367Y-94422142D01*
X139703284Y-94421237D01*
X139683738Y-94420998D01*
X139609520Y-94420091D01*
X139541649Y-94399257D01*
X139495815Y-94345038D01*
X139486571Y-94274645D01*
X139516851Y-94210430D01*
X139521965Y-94205005D01*
X139820520Y-93906450D01*
X139826785Y-93900596D01*
X139864660Y-93867555D01*
X139870385Y-93862561D01*
X139907114Y-93810300D01*
X139911046Y-93805005D01*
X139945791Y-93760694D01*
X139950477Y-93754718D01*
X139953602Y-93747796D01*
X139954964Y-93745548D01*
X139963368Y-93730815D01*
X139964622Y-93728476D01*
X139968990Y-93722261D01*
X139971749Y-93715185D01*
X139971751Y-93715181D01*
X139992202Y-93662726D01*
X139994758Y-93656646D01*
X140017918Y-93605351D01*
X140021045Y-93598426D01*
X140022429Y-93590955D01*
X140023230Y-93588401D01*
X140027867Y-93572122D01*
X140028523Y-93569567D01*
X140031282Y-93562491D01*
X140039621Y-93499149D01*
X140040653Y-93492633D01*
X140050912Y-93437280D01*
X140052296Y-93429813D01*
X140048709Y-93367602D01*
X140048500Y-93360349D01*
X140048500Y-85478297D01*
X140068502Y-85410176D01*
X140101332Y-85375718D01*
X140215656Y-85294172D01*
X140215659Y-85294170D01*
X140219860Y-85291173D01*
X140223674Y-85287373D01*
X140328479Y-85182933D01*
X140378096Y-85133489D01*
X140508453Y-84952077D01*
X140509776Y-84953028D01*
X140556645Y-84909857D01*
X140626580Y-84897625D01*
X140692026Y-84925144D01*
X140719875Y-84956994D01*
X140779987Y-85055088D01*
X140926250Y-85223938D01*
X141098126Y-85366632D01*
X141291000Y-85479338D01*
X141295825Y-85481180D01*
X141295826Y-85481181D01*
X141368612Y-85508975D01*
X141499692Y-85559030D01*
X141504760Y-85560061D01*
X141504763Y-85560062D01*
X141569226Y-85573177D01*
X141718597Y-85603567D01*
X141723772Y-85603757D01*
X141723774Y-85603757D01*
X141936673Y-85611564D01*
X141936677Y-85611564D01*
X141941837Y-85611753D01*
X141946957Y-85611097D01*
X141946959Y-85611097D01*
X142158288Y-85584025D01*
X142158289Y-85584025D01*
X142163416Y-85583368D01*
X142168366Y-85581883D01*
X142372429Y-85520661D01*
X142372434Y-85520659D01*
X142377384Y-85519174D01*
X142577994Y-85420896D01*
X142759860Y-85291173D01*
X142763674Y-85287373D01*
X142868479Y-85182933D01*
X142918096Y-85133489D01*
X143048453Y-84952077D01*
X143049776Y-84953028D01*
X143096645Y-84909857D01*
X143166580Y-84897625D01*
X143232026Y-84925144D01*
X143259875Y-84956994D01*
X143319987Y-85055088D01*
X143466250Y-85223938D01*
X143638126Y-85366632D01*
X143831000Y-85479338D01*
X143835825Y-85481180D01*
X143835826Y-85481181D01*
X143908612Y-85508975D01*
X144039692Y-85559030D01*
X144044760Y-85560061D01*
X144044763Y-85560062D01*
X144109226Y-85573177D01*
X144258597Y-85603567D01*
X144263772Y-85603757D01*
X144263774Y-85603757D01*
X144476673Y-85611564D01*
X144476677Y-85611564D01*
X144481837Y-85611753D01*
X144486957Y-85611097D01*
X144486959Y-85611097D01*
X144698288Y-85584025D01*
X144698289Y-85584025D01*
X144703416Y-85583368D01*
X144708366Y-85581883D01*
X144912429Y-85520661D01*
X144912434Y-85520659D01*
X144917384Y-85519174D01*
X145117994Y-85420896D01*
X145299860Y-85291173D01*
X145303674Y-85287373D01*
X145408479Y-85182933D01*
X145458096Y-85133489D01*
X145588453Y-84952077D01*
X145589776Y-84953028D01*
X145636645Y-84909857D01*
X145706580Y-84897625D01*
X145772026Y-84925144D01*
X145799875Y-84956994D01*
X145859987Y-85055088D01*
X146006250Y-85223938D01*
X146178126Y-85366632D01*
X146371000Y-85479338D01*
X146375825Y-85481180D01*
X146375826Y-85481181D01*
X146448612Y-85508975D01*
X146579692Y-85559030D01*
X146584760Y-85560061D01*
X146584763Y-85560062D01*
X146649226Y-85573177D01*
X146798597Y-85603567D01*
X146803772Y-85603757D01*
X146803774Y-85603757D01*
X147016673Y-85611564D01*
X147016677Y-85611564D01*
X147021837Y-85611753D01*
X147026957Y-85611097D01*
X147026959Y-85611097D01*
X147238288Y-85584025D01*
X147238289Y-85584025D01*
X147243416Y-85583368D01*
X147248366Y-85581883D01*
X147452429Y-85520661D01*
X147452434Y-85520659D01*
X147457384Y-85519174D01*
X147657994Y-85420896D01*
X147839860Y-85291173D01*
X147843674Y-85287373D01*
X147948479Y-85182933D01*
X147998096Y-85133489D01*
X148128453Y-84952077D01*
X148129776Y-84953028D01*
X148176645Y-84909857D01*
X148246580Y-84897625D01*
X148312026Y-84925144D01*
X148339875Y-84956994D01*
X148399987Y-85055088D01*
X148546250Y-85223938D01*
X148718126Y-85366632D01*
X148911000Y-85479338D01*
X148915825Y-85481180D01*
X148915826Y-85481181D01*
X148988612Y-85508975D01*
X149119692Y-85559030D01*
X149124760Y-85560061D01*
X149124763Y-85560062D01*
X149189226Y-85573177D01*
X149338597Y-85603567D01*
X149343772Y-85603757D01*
X149343774Y-85603757D01*
X149556673Y-85611564D01*
X149556677Y-85611564D01*
X149561837Y-85611753D01*
X149566957Y-85611097D01*
X149566959Y-85611097D01*
X149778288Y-85584025D01*
X149778289Y-85584025D01*
X149783416Y-85583368D01*
X149788366Y-85581883D01*
X149992429Y-85520661D01*
X149992434Y-85520659D01*
X149997384Y-85519174D01*
X150197994Y-85420896D01*
X150379860Y-85291173D01*
X150383674Y-85287373D01*
X150488479Y-85182933D01*
X150538096Y-85133489D01*
X150668453Y-84952077D01*
X150669776Y-84953028D01*
X150716645Y-84909857D01*
X150786580Y-84897625D01*
X150852026Y-84925144D01*
X150879875Y-84956994D01*
X150939987Y-85055088D01*
X151086250Y-85223938D01*
X151258126Y-85366632D01*
X151451000Y-85479338D01*
X151455825Y-85481180D01*
X151455826Y-85481181D01*
X151528612Y-85508975D01*
X151659692Y-85559030D01*
X151664760Y-85560061D01*
X151664763Y-85560062D01*
X151729226Y-85573177D01*
X151878597Y-85603567D01*
X151883772Y-85603757D01*
X151883774Y-85603757D01*
X152096673Y-85611564D01*
X152096677Y-85611564D01*
X152101837Y-85611753D01*
X152106957Y-85611097D01*
X152106959Y-85611097D01*
X152318288Y-85584025D01*
X152318289Y-85584025D01*
X152323416Y-85583368D01*
X152328366Y-85581883D01*
X152532429Y-85520661D01*
X152532434Y-85520659D01*
X152537384Y-85519174D01*
X152737994Y-85420896D01*
X152919860Y-85291173D01*
X152923674Y-85287373D01*
X153028479Y-85182933D01*
X153078096Y-85133489D01*
X153208453Y-84952077D01*
X153209776Y-84953028D01*
X153256645Y-84909857D01*
X153326580Y-84897625D01*
X153392026Y-84925144D01*
X153419875Y-84956994D01*
X153479987Y-85055088D01*
X153626250Y-85223938D01*
X153798126Y-85366632D01*
X153991000Y-85479338D01*
X153995825Y-85481180D01*
X153995826Y-85481181D01*
X154068612Y-85508975D01*
X154199692Y-85559030D01*
X154204760Y-85560061D01*
X154204763Y-85560062D01*
X154269226Y-85573177D01*
X154418597Y-85603567D01*
X154423772Y-85603757D01*
X154423774Y-85603757D01*
X154636673Y-85611564D01*
X154636677Y-85611564D01*
X154641837Y-85611753D01*
X154646957Y-85611097D01*
X154646959Y-85611097D01*
X154858288Y-85584025D01*
X154858289Y-85584025D01*
X154863416Y-85583368D01*
X154868366Y-85581883D01*
X155072429Y-85520661D01*
X155072434Y-85520659D01*
X155077384Y-85519174D01*
X155277994Y-85420896D01*
X155459860Y-85291173D01*
X155463674Y-85287373D01*
X155568479Y-85182933D01*
X155618096Y-85133489D01*
X155748453Y-84952077D01*
X155749776Y-84953028D01*
X155796645Y-84909857D01*
X155866580Y-84897625D01*
X155932026Y-84925144D01*
X155959875Y-84956994D01*
X156019987Y-85055088D01*
X156166250Y-85223938D01*
X156338126Y-85366632D01*
X156531000Y-85479338D01*
X156535825Y-85481180D01*
X156535826Y-85481181D01*
X156608612Y-85508975D01*
X156739692Y-85559030D01*
X156744760Y-85560061D01*
X156744763Y-85560062D01*
X156809226Y-85573177D01*
X156958597Y-85603567D01*
X156963772Y-85603757D01*
X156963774Y-85603757D01*
X157176673Y-85611564D01*
X157176677Y-85611564D01*
X157181837Y-85611753D01*
X157186957Y-85611097D01*
X157186959Y-85611097D01*
X157398288Y-85584025D01*
X157398289Y-85584025D01*
X157403416Y-85583368D01*
X157408366Y-85581883D01*
X157612429Y-85520661D01*
X157612434Y-85520659D01*
X157617384Y-85519174D01*
X157817994Y-85420896D01*
X157999860Y-85291173D01*
X158003674Y-85287373D01*
X158108479Y-85182933D01*
X158158096Y-85133489D01*
X158288453Y-84952077D01*
X158289776Y-84953028D01*
X158336645Y-84909857D01*
X158406580Y-84897625D01*
X158472026Y-84925144D01*
X158499875Y-84956994D01*
X158559987Y-85055088D01*
X158706250Y-85223938D01*
X158878126Y-85366632D01*
X159071000Y-85479338D01*
X159075825Y-85481180D01*
X159075826Y-85481181D01*
X159148612Y-85508975D01*
X159279692Y-85559030D01*
X159284760Y-85560061D01*
X159284763Y-85560062D01*
X159349226Y-85573177D01*
X159498597Y-85603567D01*
X159503772Y-85603757D01*
X159503774Y-85603757D01*
X159716673Y-85611564D01*
X159716677Y-85611564D01*
X159721837Y-85611753D01*
X159726957Y-85611097D01*
X159726959Y-85611097D01*
X159938288Y-85584025D01*
X159938289Y-85584025D01*
X159943416Y-85583368D01*
X159948366Y-85581883D01*
X160152429Y-85520661D01*
X160152434Y-85520659D01*
X160157384Y-85519174D01*
X160357994Y-85420896D01*
X160539860Y-85291173D01*
X160543674Y-85287373D01*
X160648479Y-85182933D01*
X160698096Y-85133489D01*
X160828453Y-84952077D01*
X160829776Y-84953028D01*
X160876645Y-84909857D01*
X160946580Y-84897625D01*
X161012026Y-84925144D01*
X161039875Y-84956994D01*
X161099987Y-85055088D01*
X161246250Y-85223938D01*
X161418126Y-85366632D01*
X161611000Y-85479338D01*
X161615825Y-85481180D01*
X161615826Y-85481181D01*
X161688612Y-85508975D01*
X161819692Y-85559030D01*
X161824760Y-85560061D01*
X161824763Y-85560062D01*
X161889226Y-85573177D01*
X162038597Y-85603567D01*
X162043772Y-85603757D01*
X162043774Y-85603757D01*
X162256673Y-85611564D01*
X162256677Y-85611564D01*
X162261837Y-85611753D01*
X162266957Y-85611097D01*
X162266959Y-85611097D01*
X162478288Y-85584025D01*
X162478289Y-85584025D01*
X162483416Y-85583368D01*
X162488366Y-85581883D01*
X162692429Y-85520661D01*
X162692434Y-85520659D01*
X162697384Y-85519174D01*
X162897994Y-85420896D01*
X163079860Y-85291173D01*
X163083674Y-85287373D01*
X163188479Y-85182933D01*
X163238096Y-85133489D01*
X163368453Y-84952077D01*
X163369776Y-84953028D01*
X163416645Y-84909857D01*
X163486580Y-84897625D01*
X163552026Y-84925144D01*
X163579875Y-84956994D01*
X163639987Y-85055088D01*
X163786250Y-85223938D01*
X163958126Y-85366632D01*
X164151000Y-85479338D01*
X164155825Y-85481180D01*
X164155826Y-85481181D01*
X164228612Y-85508975D01*
X164359692Y-85559030D01*
X164364760Y-85560061D01*
X164364763Y-85560062D01*
X164429226Y-85573177D01*
X164578597Y-85603567D01*
X164583772Y-85603757D01*
X164583774Y-85603757D01*
X164796673Y-85611564D01*
X164796677Y-85611564D01*
X164801837Y-85611753D01*
X164806957Y-85611097D01*
X164806959Y-85611097D01*
X165018288Y-85584025D01*
X165018289Y-85584025D01*
X165023416Y-85583368D01*
X165028366Y-85581883D01*
X165232429Y-85520661D01*
X165232434Y-85520659D01*
X165237384Y-85519174D01*
X165437994Y-85420896D01*
X165619860Y-85291173D01*
X165623674Y-85287373D01*
X165728479Y-85182933D01*
X165778096Y-85133489D01*
X165908453Y-84952077D01*
X165909776Y-84953028D01*
X165956645Y-84909857D01*
X166026580Y-84897625D01*
X166092026Y-84925144D01*
X166119875Y-84956994D01*
X166179987Y-85055088D01*
X166326250Y-85223938D01*
X166498126Y-85366632D01*
X166691000Y-85479338D01*
X166695825Y-85481180D01*
X166695826Y-85481181D01*
X166768612Y-85508975D01*
X166899692Y-85559030D01*
X166904760Y-85560061D01*
X166904763Y-85560062D01*
X166969226Y-85573177D01*
X167118597Y-85603567D01*
X167123771Y-85603757D01*
X167123773Y-85603757D01*
X167135737Y-85604196D01*
X167163336Y-85605208D01*
X167230676Y-85627691D01*
X167275172Y-85683014D01*
X167282695Y-85753610D01*
X167247813Y-85820217D01*
X166838435Y-86229595D01*
X166776123Y-86263621D01*
X166749340Y-86266500D01*
X162703927Y-86266500D01*
X162695358Y-86266208D01*
X162645225Y-86262790D01*
X162645221Y-86262790D01*
X162637648Y-86262274D01*
X162574681Y-86273264D01*
X162568169Y-86274224D01*
X162504758Y-86281898D01*
X162497657Y-86284581D01*
X162495048Y-86285222D01*
X162478728Y-86289687D01*
X162476195Y-86290452D01*
X162468717Y-86291757D01*
X162410190Y-86317448D01*
X162404108Y-86319930D01*
X162383753Y-86327622D01*
X162351449Y-86339828D01*
X162351447Y-86339829D01*
X162344344Y-86342513D01*
X162338085Y-86346814D01*
X162335720Y-86348051D01*
X162320948Y-86356273D01*
X162318656Y-86357628D01*
X162311695Y-86360684D01*
X162305668Y-86365309D01*
X162305664Y-86365311D01*
X162260987Y-86399593D01*
X162255662Y-86403462D01*
X162203019Y-86439643D01*
X162197967Y-86445313D01*
X162197966Y-86445314D01*
X162161573Y-86486161D01*
X162156592Y-86491437D01*
X160454497Y-88193533D01*
X158754168Y-89893862D01*
X158691856Y-89927888D01*
X158654092Y-89930288D01*
X158505476Y-89917286D01*
X158505475Y-89917286D01*
X158500000Y-89916807D01*
X158285858Y-89935542D01*
X158280545Y-89936966D01*
X158280543Y-89936966D01*
X158083533Y-89989755D01*
X158083531Y-89989756D01*
X158078223Y-89991178D01*
X158073243Y-89993500D01*
X158073241Y-89993501D01*
X157888385Y-90079701D01*
X157888382Y-90079703D01*
X157883404Y-90082024D01*
X157707319Y-90205319D01*
X157555319Y-90357319D01*
X157432024Y-90533404D01*
X157341178Y-90728223D01*
X157339756Y-90733531D01*
X157339755Y-90733533D01*
X157297020Y-90893022D01*
X157285542Y-90935858D01*
X157266807Y-91150000D01*
X157285542Y-91364142D01*
X157286966Y-91369455D01*
X157286966Y-91369457D01*
X157334719Y-91547670D01*
X157341178Y-91571777D01*
X157343500Y-91576757D01*
X157343501Y-91576759D01*
X157400970Y-91700000D01*
X157432024Y-91766596D01*
X157555319Y-91942681D01*
X157707319Y-92094681D01*
X157883403Y-92217976D01*
X157888381Y-92220297D01*
X157888384Y-92220299D01*
X157934605Y-92241852D01*
X158078223Y-92308822D01*
X158083531Y-92310244D01*
X158083533Y-92310245D01*
X158280543Y-92363034D01*
X158280545Y-92363034D01*
X158285858Y-92364458D01*
X158500000Y-92383193D01*
X158714142Y-92364458D01*
X158719455Y-92363034D01*
X158719457Y-92363034D01*
X158916467Y-92310245D01*
X158916469Y-92310244D01*
X158921777Y-92308822D01*
X159065395Y-92241852D01*
X159111616Y-92220299D01*
X159111619Y-92220297D01*
X159116597Y-92217976D01*
X159292681Y-92094681D01*
X159444681Y-91942681D01*
X159567976Y-91766596D01*
X159599031Y-91700000D01*
X159656499Y-91576759D01*
X159656500Y-91576757D01*
X159658822Y-91571777D01*
X159665282Y-91547670D01*
X159713034Y-91369457D01*
X159713034Y-91369455D01*
X159714458Y-91364142D01*
X159733193Y-91150000D01*
X159732714Y-91144524D01*
X159719712Y-90995908D01*
X159733701Y-90926304D01*
X159756138Y-90895832D01*
X162132191Y-88519779D01*
X162194503Y-88485753D01*
X162265318Y-88490818D01*
X162322154Y-88533365D01*
X162346965Y-88599885D01*
X162347176Y-88605786D01*
X162346807Y-88610000D01*
X162365542Y-88824142D01*
X162421178Y-89031777D01*
X162423500Y-89036757D01*
X162423501Y-89036759D01*
X162484001Y-89166500D01*
X162512024Y-89226596D01*
X162635319Y-89402681D01*
X162787319Y-89554681D01*
X162963403Y-89677976D01*
X162968381Y-89680297D01*
X162968384Y-89680299D01*
X163153241Y-89766499D01*
X163158223Y-89768822D01*
X163163531Y-89770244D01*
X163163533Y-89770245D01*
X163360543Y-89823034D01*
X163360545Y-89823034D01*
X163365858Y-89824458D01*
X163580000Y-89843193D01*
X163794142Y-89824458D01*
X163799455Y-89823034D01*
X163799457Y-89823034D01*
X163996467Y-89770245D01*
X163996469Y-89770244D01*
X164001777Y-89768822D01*
X164006759Y-89766499D01*
X164191616Y-89680299D01*
X164191619Y-89680297D01*
X164196597Y-89677976D01*
X164372681Y-89554681D01*
X164524681Y-89402681D01*
X164647976Y-89226596D01*
X164676000Y-89166500D01*
X164736499Y-89036759D01*
X164736500Y-89036757D01*
X164738822Y-89031777D01*
X164794458Y-88824142D01*
X164813193Y-88610000D01*
X164794458Y-88395858D01*
X164793034Y-88390543D01*
X164740245Y-88193533D01*
X164740244Y-88193531D01*
X164738822Y-88188223D01*
X164647976Y-87993404D01*
X164569808Y-87881768D01*
X164547122Y-87814496D01*
X164564407Y-87745636D01*
X164616177Y-87697052D01*
X164673023Y-87683500D01*
X167066088Y-87683500D01*
X167074658Y-87683792D01*
X167124776Y-87687209D01*
X167124780Y-87687209D01*
X167132352Y-87687725D01*
X167139829Y-87686420D01*
X167139830Y-87686420D01*
X167166308Y-87681799D01*
X167195303Y-87676738D01*
X167201821Y-87675777D01*
X167265242Y-87668102D01*
X167272343Y-87665419D01*
X167274952Y-87664778D01*
X167291262Y-87660315D01*
X167293798Y-87659550D01*
X167301284Y-87658243D01*
X167359800Y-87632556D01*
X167365904Y-87630065D01*
X167418548Y-87610173D01*
X167418549Y-87610172D01*
X167425656Y-87607487D01*
X167431919Y-87603183D01*
X167434285Y-87601946D01*
X167449097Y-87593701D01*
X167451351Y-87592368D01*
X167458305Y-87589315D01*
X167509002Y-87550413D01*
X167514332Y-87546541D01*
X167560720Y-87514661D01*
X167560725Y-87514656D01*
X167566981Y-87510357D01*
X167608436Y-87463829D01*
X167613416Y-87458554D01*
X169452684Y-85619286D01*
X169514996Y-85585260D01*
X169566896Y-85584910D01*
X169658597Y-85603567D01*
X169663772Y-85603757D01*
X169663774Y-85603757D01*
X169876673Y-85611564D01*
X169876677Y-85611564D01*
X169881837Y-85611753D01*
X169886957Y-85611097D01*
X169886959Y-85611097D01*
X170098288Y-85584025D01*
X170098289Y-85584025D01*
X170103416Y-85583368D01*
X170108366Y-85581883D01*
X170312429Y-85520661D01*
X170312434Y-85520659D01*
X170317384Y-85519174D01*
X170517994Y-85420896D01*
X170699860Y-85291173D01*
X170703674Y-85287373D01*
X170808479Y-85182933D01*
X170858096Y-85133489D01*
X170988453Y-84952077D01*
X170989776Y-84953028D01*
X171036645Y-84909857D01*
X171106580Y-84897625D01*
X171172026Y-84925144D01*
X171199875Y-84956994D01*
X171259987Y-85055088D01*
X171406250Y-85223938D01*
X171578126Y-85366632D01*
X171771000Y-85479338D01*
X171775825Y-85481180D01*
X171775826Y-85481181D01*
X171848612Y-85508975D01*
X171979692Y-85559030D01*
X171984760Y-85560061D01*
X171984763Y-85560062D01*
X172049226Y-85573177D01*
X172198597Y-85603567D01*
X172203772Y-85603757D01*
X172203774Y-85603757D01*
X172416673Y-85611564D01*
X172416677Y-85611564D01*
X172421837Y-85611753D01*
X172426957Y-85611097D01*
X172426959Y-85611097D01*
X172638288Y-85584025D01*
X172638289Y-85584025D01*
X172643416Y-85583368D01*
X172648366Y-85581883D01*
X172852429Y-85520661D01*
X172852434Y-85520659D01*
X172857384Y-85519174D01*
X173057994Y-85420896D01*
X173239860Y-85291173D01*
X173243674Y-85287373D01*
X173348479Y-85182933D01*
X173410851Y-85149017D01*
X173481658Y-85154205D01*
X173538419Y-85196851D01*
X173555401Y-85227954D01*
X173596676Y-85338054D01*
X173605214Y-85353649D01*
X173681715Y-85455724D01*
X173694276Y-85468285D01*
X173796351Y-85544786D01*
X173811946Y-85553324D01*
X173932394Y-85598478D01*
X173947649Y-85602105D01*
X173998514Y-85607631D01*
X174005328Y-85608000D01*
X174627885Y-85608000D01*
X174643124Y-85603525D01*
X174644329Y-85602135D01*
X174646000Y-85594452D01*
X174646000Y-84122000D01*
X174666002Y-84053879D01*
X174719658Y-84007386D01*
X174772000Y-83996000D01*
X175028000Y-83996000D01*
X175096121Y-84016002D01*
G37*
%TD.AperFunction*%
%TD*%
M02*
