M48
; DRILL file {KiCad (6.0.10-0)} date Friday, December 23, 2022 at 04:53:29 PM
; FORMAT={-:-/ absolute / inch / decimal}
; #@! TF.CreationDate,2022-12-23T16:53:29-05:00
; #@! TF.GenerationSoftware,Kicad,Pcbnew,(6.0.10-0)
; #@! TF.FileFunction,Plated,1,2,PTH
FMAT,2
INCH
; #@! TA.AperFunction,Plated,PTH,ViaDrill
T1C0.0157
; #@! TA.AperFunction,Plated,PTH,ComponentDrill
T2C0.0315
; #@! TA.AperFunction,Plated,PTH,ComponentDrill
T3C0.0394
%
G90
G05
T1
X5.4272Y-3.563
X5.7096Y-3.5463
X5.7293Y-3.938
X5.7608Y-3.5748
X5.7618Y-3.7362
X5.8081Y-3.6102
X5.814Y-3.4862
X5.9035Y-3.938
X5.9409Y-3.7362
X5.9911Y-3.4577
X6.0907Y-3.725
X6.1218Y-3.6988
X6.7441Y-3.7165
T2
X6.2402Y-3.5886
X6.4402Y-3.4886
X6.4402Y-3.6886
T3
X5.3858Y-3.3169
X5.4858Y-3.3169
X5.4951Y-3.7708
X5.4951Y-3.8708
X5.5858Y-3.3169
X5.6858Y-3.3169
X5.7858Y-3.3169
X5.8858Y-3.3169
X5.9858Y-3.3169
X6.0858Y-3.3169
X6.1858Y-3.3169
X6.2858Y-3.3169
X6.3858Y-3.3169
X6.4858Y-3.3169
X6.5858Y-3.3169
X6.6858Y-3.3169
X6.7858Y-3.3169
X6.8858Y-3.3169
T0
M30
