%TF.GenerationSoftware,KiCad,Pcbnew,(6.0.11-0)*%
%TF.CreationDate,2023-01-30T18:53:32-05:00*%
%TF.ProjectId,LCD-StemmaQT,4c43442d-5374-4656-9d6d-6151542e6b69,1.1.0*%
%TF.SameCoordinates,Original*%
%TF.FileFunction,Legend,Top*%
%TF.FilePolarity,Positive*%
%FSLAX46Y46*%
G04 Gerber Fmt 4.6, Leading zero omitted, Abs format (unit mm)*
G04 Created by KiCad (PCBNEW (6.0.11-0)) date 2023-01-30 18:53:32*
%MOMM*%
%LPD*%
G01*
G04 APERTURE LIST*
G04 Aperture macros list*
%AMRoundRect*
0 Rectangle with rounded corners*
0 $1 Rounding radius*
0 $2 $3 $4 $5 $6 $7 $8 $9 X,Y pos of 4 corners*
0 Add a 4 corners polygon primitive as box body*
4,1,4,$2,$3,$4,$5,$6,$7,$8,$9,$2,$3,0*
0 Add four circle primitives for the rounded corners*
1,1,$1+$1,$2,$3*
1,1,$1+$1,$4,$5*
1,1,$1+$1,$6,$7*
1,1,$1+$1,$8,$9*
0 Add four rect primitives between the rounded corners*
20,1,$1+$1,$2,$3,$4,$5,0*
20,1,$1+$1,$4,$5,$6,$7,0*
20,1,$1+$1,$6,$7,$8,$9,0*
20,1,$1+$1,$8,$9,$2,$3,0*%
%AMFreePoly0*
4,1,6,1.000000,0.000000,0.500000,-0.750000,-0.500000,-0.750000,-0.500000,0.750000,0.500000,0.750000,1.000000,0.000000,1.000000,0.000000,$1*%
%AMFreePoly1*
4,1,6,0.500000,-0.750000,-0.650000,-0.750000,-0.150000,0.000000,-0.650000,0.750000,0.500000,0.750000,0.500000,-0.750000,0.500000,-0.750000,$1*%
G04 Aperture macros list end*
%ADD10C,0.150000*%
%ADD11C,0.120000*%
%ADD12R,0.400000X1.000000*%
%ADD13FreePoly0,90.000000*%
%ADD14FreePoly1,90.000000*%
%ADD15RoundRect,0.237500X0.237500X-0.300000X0.237500X0.300000X-0.237500X0.300000X-0.237500X-0.300000X0*%
%ADD16RoundRect,0.237500X-0.237500X0.250000X-0.237500X-0.250000X0.237500X-0.250000X0.237500X0.250000X0*%
%ADD17R,1.000000X1.500000*%
%ADD18RoundRect,0.150000X-0.625000X0.150000X-0.625000X-0.150000X0.625000X-0.150000X0.625000X0.150000X0*%
%ADD19RoundRect,0.250000X-0.650000X0.350000X-0.650000X-0.350000X0.650000X-0.350000X0.650000X0.350000X0*%
%ADD20C,1.440000*%
%ADD21RoundRect,0.150000X0.625000X-0.150000X0.625000X0.150000X-0.625000X0.150000X-0.625000X-0.150000X0*%
%ADD22RoundRect,0.250000X0.650000X-0.350000X0.650000X0.350000X-0.650000X0.350000X-0.650000X-0.350000X0*%
%ADD23RoundRect,0.237500X0.237500X-0.287500X0.237500X0.287500X-0.237500X0.287500X-0.237500X-0.287500X0*%
%ADD24RoundRect,0.150000X0.150000X-0.587500X0.150000X0.587500X-0.150000X0.587500X-0.150000X-0.587500X0*%
%ADD25RoundRect,0.237500X0.250000X0.237500X-0.250000X0.237500X-0.250000X-0.237500X0.250000X-0.237500X0*%
%ADD26R,1.700000X1.700000*%
%ADD27O,1.700000X1.700000*%
G04 APERTURE END LIST*
D10*
X158388904Y-96564780D02*
X158722238Y-97564780D01*
X159055571Y-96564780D01*
X159912714Y-97564780D02*
X159341285Y-97564780D01*
X159627000Y-97564780D02*
X159627000Y-96564780D01*
X159531761Y-96707638D01*
X159436523Y-96802876D01*
X159341285Y-96850495D01*
X160341285Y-97469542D02*
X160388904Y-97517161D01*
X160341285Y-97564780D01*
X160293666Y-97517161D01*
X160341285Y-97469542D01*
X160341285Y-97564780D01*
X161341285Y-97564780D02*
X160769857Y-97564780D01*
X161055571Y-97564780D02*
X161055571Y-96564780D01*
X160960333Y-96707638D01*
X160865095Y-96802876D01*
X160769857Y-96850495D01*
X161769857Y-97469542D02*
X161817476Y-97517161D01*
X161769857Y-97564780D01*
X161722238Y-97517161D01*
X161769857Y-97469542D01*
X161769857Y-97564780D01*
X162436523Y-96564780D02*
X162531761Y-96564780D01*
X162627000Y-96612400D01*
X162674619Y-96660019D01*
X162722238Y-96755257D01*
X162769857Y-96945733D01*
X162769857Y-97183828D01*
X162722238Y-97374304D01*
X162674619Y-97469542D01*
X162627000Y-97517161D01*
X162531761Y-97564780D01*
X162436523Y-97564780D01*
X162341285Y-97517161D01*
X162293666Y-97469542D01*
X162246047Y-97374304D01*
X162198428Y-97183828D01*
X162198428Y-96945733D01*
X162246047Y-96755257D01*
X162293666Y-96660019D01*
X162341285Y-96612400D01*
X162436523Y-96564780D01*
X155769857Y-98270019D02*
X155817476Y-98222400D01*
X155912714Y-98174780D01*
X156150809Y-98174780D01*
X156246047Y-98222400D01*
X156293666Y-98270019D01*
X156341285Y-98365257D01*
X156341285Y-98460495D01*
X156293666Y-98603352D01*
X155722238Y-99174780D01*
X156341285Y-99174780D01*
X156960333Y-98174780D02*
X157055571Y-98174780D01*
X157150809Y-98222400D01*
X157198428Y-98270019D01*
X157246047Y-98365257D01*
X157293666Y-98555733D01*
X157293666Y-98793828D01*
X157246047Y-98984304D01*
X157198428Y-99079542D01*
X157150809Y-99127161D01*
X157055571Y-99174780D01*
X156960333Y-99174780D01*
X156865095Y-99127161D01*
X156817476Y-99079542D01*
X156769857Y-98984304D01*
X156722238Y-98793828D01*
X156722238Y-98555733D01*
X156769857Y-98365257D01*
X156817476Y-98270019D01*
X156865095Y-98222400D01*
X156960333Y-98174780D01*
X157674619Y-98270019D02*
X157722238Y-98222400D01*
X157817476Y-98174780D01*
X158055571Y-98174780D01*
X158150809Y-98222400D01*
X158198428Y-98270019D01*
X158246047Y-98365257D01*
X158246047Y-98460495D01*
X158198428Y-98603352D01*
X157627000Y-99174780D01*
X158246047Y-99174780D01*
X158579380Y-98174780D02*
X159198428Y-98174780D01*
X158865095Y-98555733D01*
X159007952Y-98555733D01*
X159103190Y-98603352D01*
X159150809Y-98650971D01*
X159198428Y-98746209D01*
X159198428Y-98984304D01*
X159150809Y-99079542D01*
X159103190Y-99127161D01*
X159007952Y-99174780D01*
X158722238Y-99174780D01*
X158627000Y-99127161D01*
X158579380Y-99079542D01*
X159627000Y-98793828D02*
X160388904Y-98793828D01*
X161055571Y-98174780D02*
X161150809Y-98174780D01*
X161246047Y-98222400D01*
X161293666Y-98270019D01*
X161341285Y-98365257D01*
X161388904Y-98555733D01*
X161388904Y-98793828D01*
X161341285Y-98984304D01*
X161293666Y-99079542D01*
X161246047Y-99127161D01*
X161150809Y-99174780D01*
X161055571Y-99174780D01*
X160960333Y-99127161D01*
X160912714Y-99079542D01*
X160865095Y-98984304D01*
X160817476Y-98793828D01*
X160817476Y-98555733D01*
X160865095Y-98365257D01*
X160912714Y-98270019D01*
X160960333Y-98222400D01*
X161055571Y-98174780D01*
X162341285Y-99174780D02*
X161769857Y-99174780D01*
X162055571Y-99174780D02*
X162055571Y-98174780D01*
X161960333Y-98317638D01*
X161865095Y-98412876D01*
X161769857Y-98460495D01*
X162769857Y-98793828D02*
X163531761Y-98793828D01*
X163960333Y-98270019D02*
X164007952Y-98222400D01*
X164103190Y-98174780D01*
X164341285Y-98174780D01*
X164436523Y-98222400D01*
X164484142Y-98270019D01*
X164531761Y-98365257D01*
X164531761Y-98460495D01*
X164484142Y-98603352D01*
X163912714Y-99174780D01*
X164531761Y-99174780D01*
X164912714Y-98270019D02*
X164960333Y-98222400D01*
X165055571Y-98174780D01*
X165293666Y-98174780D01*
X165388904Y-98222400D01*
X165436523Y-98270019D01*
X165484142Y-98365257D01*
X165484142Y-98460495D01*
X165436523Y-98603352D01*
X164865095Y-99174780D01*
X165484142Y-99174780D01*
%TO.C,U101*%
X142477180Y-93611885D02*
X143286704Y-93611885D01*
X143381942Y-93564266D01*
X143429561Y-93516647D01*
X143477180Y-93421409D01*
X143477180Y-93230933D01*
X143429561Y-93135695D01*
X143381942Y-93088076D01*
X143286704Y-93040457D01*
X142477180Y-93040457D01*
X143477180Y-92040457D02*
X143477180Y-92611885D01*
X143477180Y-92326171D02*
X142477180Y-92326171D01*
X142620038Y-92421409D01*
X142715276Y-92516647D01*
X142762895Y-92611885D01*
X142477180Y-91421409D02*
X142477180Y-91326171D01*
X142524800Y-91230933D01*
X142572419Y-91183314D01*
X142667657Y-91135695D01*
X142858133Y-91088076D01*
X143096228Y-91088076D01*
X143286704Y-91135695D01*
X143381942Y-91183314D01*
X143429561Y-91230933D01*
X143477180Y-91326171D01*
X143477180Y-91421409D01*
X143429561Y-91516647D01*
X143381942Y-91564266D01*
X143286704Y-91611885D01*
X143096228Y-91659504D01*
X142858133Y-91659504D01*
X142667657Y-91611885D01*
X142572419Y-91564266D01*
X142524800Y-91516647D01*
X142477180Y-91421409D01*
X143477180Y-90135695D02*
X143477180Y-90707123D01*
X143477180Y-90421409D02*
X142477180Y-90421409D01*
X142620038Y-90516647D01*
X142715276Y-90611885D01*
X142762895Y-90707123D01*
%TO.C,C101*%
X153957142Y-91069047D02*
X154004761Y-91116666D01*
X154052380Y-91259523D01*
X154052380Y-91354761D01*
X154004761Y-91497619D01*
X153909523Y-91592857D01*
X153814285Y-91640476D01*
X153623809Y-91688095D01*
X153480952Y-91688095D01*
X153290476Y-91640476D01*
X153195238Y-91592857D01*
X153100000Y-91497619D01*
X153052380Y-91354761D01*
X153052380Y-91259523D01*
X153100000Y-91116666D01*
X153147619Y-91069047D01*
X154052380Y-90116666D02*
X154052380Y-90688095D01*
X154052380Y-90402380D02*
X153052380Y-90402380D01*
X153195238Y-90497619D01*
X153290476Y-90592857D01*
X153338095Y-90688095D01*
X153052380Y-89497619D02*
X153052380Y-89402380D01*
X153100000Y-89307142D01*
X153147619Y-89259523D01*
X153242857Y-89211904D01*
X153433333Y-89164285D01*
X153671428Y-89164285D01*
X153861904Y-89211904D01*
X153957142Y-89259523D01*
X154004761Y-89307142D01*
X154052380Y-89402380D01*
X154052380Y-89497619D01*
X154004761Y-89592857D01*
X153957142Y-89640476D01*
X153861904Y-89688095D01*
X153671428Y-89735714D01*
X153433333Y-89735714D01*
X153242857Y-89688095D01*
X153147619Y-89640476D01*
X153100000Y-89592857D01*
X153052380Y-89497619D01*
X154052380Y-88211904D02*
X154052380Y-88783333D01*
X154052380Y-88497619D02*
X153052380Y-88497619D01*
X153195238Y-88592857D01*
X153290476Y-88688095D01*
X153338095Y-88783333D01*
%TO.C,R102*%
X167200780Y-99646047D02*
X166724590Y-99979380D01*
X167200780Y-100217476D02*
X166200780Y-100217476D01*
X166200780Y-99836523D01*
X166248400Y-99741285D01*
X166296019Y-99693666D01*
X166391257Y-99646047D01*
X166534114Y-99646047D01*
X166629352Y-99693666D01*
X166676971Y-99741285D01*
X166724590Y-99836523D01*
X166724590Y-100217476D01*
X167200780Y-98693666D02*
X167200780Y-99265095D01*
X167200780Y-98979380D02*
X166200780Y-98979380D01*
X166343638Y-99074619D01*
X166438876Y-99169857D01*
X166486495Y-99265095D01*
X166200780Y-98074619D02*
X166200780Y-97979380D01*
X166248400Y-97884142D01*
X166296019Y-97836523D01*
X166391257Y-97788904D01*
X166581733Y-97741285D01*
X166819828Y-97741285D01*
X167010304Y-97788904D01*
X167105542Y-97836523D01*
X167153161Y-97884142D01*
X167200780Y-97979380D01*
X167200780Y-98074619D01*
X167153161Y-98169857D01*
X167105542Y-98217476D01*
X167010304Y-98265095D01*
X166819828Y-98312714D01*
X166581733Y-98312714D01*
X166391257Y-98265095D01*
X166296019Y-98217476D01*
X166248400Y-98169857D01*
X166200780Y-98074619D01*
X166296019Y-97360333D02*
X166248400Y-97312714D01*
X166200780Y-97217476D01*
X166200780Y-96979380D01*
X166248400Y-96884142D01*
X166296019Y-96836523D01*
X166391257Y-96788904D01*
X166486495Y-96788904D01*
X166629352Y-96836523D01*
X167200780Y-97407952D01*
X167200780Y-96788904D01*
%TO.C,J104*%
X135795485Y-99985980D02*
X135795485Y-100700266D01*
X135747866Y-100843123D01*
X135652628Y-100938361D01*
X135509771Y-100985980D01*
X135414533Y-100985980D01*
X136795485Y-100985980D02*
X136224057Y-100985980D01*
X136509771Y-100985980D02*
X136509771Y-99985980D01*
X136414533Y-100128838D01*
X136319295Y-100224076D01*
X136224057Y-100271695D01*
X137414533Y-99985980D02*
X137509771Y-99985980D01*
X137605009Y-100033600D01*
X137652628Y-100081219D01*
X137700247Y-100176457D01*
X137747866Y-100366933D01*
X137747866Y-100605028D01*
X137700247Y-100795504D01*
X137652628Y-100890742D01*
X137605009Y-100938361D01*
X137509771Y-100985980D01*
X137414533Y-100985980D01*
X137319295Y-100938361D01*
X137271676Y-100890742D01*
X137224057Y-100795504D01*
X137176438Y-100605028D01*
X137176438Y-100366933D01*
X137224057Y-100176457D01*
X137271676Y-100081219D01*
X137319295Y-100033600D01*
X137414533Y-99985980D01*
X138605009Y-100319314D02*
X138605009Y-100985980D01*
X138366914Y-99938361D02*
X138128819Y-100652647D01*
X138747866Y-100652647D01*
%TO.C,R107*%
X167226180Y-88901847D02*
X166749990Y-89235180D01*
X167226180Y-89473276D02*
X166226180Y-89473276D01*
X166226180Y-89092323D01*
X166273800Y-88997085D01*
X166321419Y-88949466D01*
X166416657Y-88901847D01*
X166559514Y-88901847D01*
X166654752Y-88949466D01*
X166702371Y-88997085D01*
X166749990Y-89092323D01*
X166749990Y-89473276D01*
X167226180Y-87949466D02*
X167226180Y-88520895D01*
X167226180Y-88235180D02*
X166226180Y-88235180D01*
X166369038Y-88330419D01*
X166464276Y-88425657D01*
X166511895Y-88520895D01*
X166226180Y-87330419D02*
X166226180Y-87235180D01*
X166273800Y-87139942D01*
X166321419Y-87092323D01*
X166416657Y-87044704D01*
X166607133Y-86997085D01*
X166845228Y-86997085D01*
X167035704Y-87044704D01*
X167130942Y-87092323D01*
X167178561Y-87139942D01*
X167226180Y-87235180D01*
X167226180Y-87330419D01*
X167178561Y-87425657D01*
X167130942Y-87473276D01*
X167035704Y-87520895D01*
X166845228Y-87568514D01*
X166607133Y-87568514D01*
X166416657Y-87520895D01*
X166321419Y-87473276D01*
X166273800Y-87425657D01*
X166226180Y-87330419D01*
X166226180Y-86663752D02*
X166226180Y-85997085D01*
X167226180Y-86425657D01*
%TO.C,R103*%
X145458380Y-96826647D02*
X144982190Y-97159980D01*
X145458380Y-97398076D02*
X144458380Y-97398076D01*
X144458380Y-97017123D01*
X144506000Y-96921885D01*
X144553619Y-96874266D01*
X144648857Y-96826647D01*
X144791714Y-96826647D01*
X144886952Y-96874266D01*
X144934571Y-96921885D01*
X144982190Y-97017123D01*
X144982190Y-97398076D01*
X145458380Y-95874266D02*
X145458380Y-96445695D01*
X145458380Y-96159980D02*
X144458380Y-96159980D01*
X144601238Y-96255219D01*
X144696476Y-96350457D01*
X144744095Y-96445695D01*
X144458380Y-95255219D02*
X144458380Y-95159980D01*
X144506000Y-95064742D01*
X144553619Y-95017123D01*
X144648857Y-94969504D01*
X144839333Y-94921885D01*
X145077428Y-94921885D01*
X145267904Y-94969504D01*
X145363142Y-95017123D01*
X145410761Y-95064742D01*
X145458380Y-95159980D01*
X145458380Y-95255219D01*
X145410761Y-95350457D01*
X145363142Y-95398076D01*
X145267904Y-95445695D01*
X145077428Y-95493314D01*
X144839333Y-95493314D01*
X144648857Y-95445695D01*
X144553619Y-95398076D01*
X144506000Y-95350457D01*
X144458380Y-95255219D01*
X144458380Y-94588552D02*
X144458380Y-93969504D01*
X144839333Y-94302838D01*
X144839333Y-94159980D01*
X144886952Y-94064742D01*
X144934571Y-94017123D01*
X145029809Y-93969504D01*
X145267904Y-93969504D01*
X145363142Y-94017123D01*
X145410761Y-94064742D01*
X145458380Y-94159980D01*
X145458380Y-94445695D01*
X145410761Y-94540933D01*
X145363142Y-94588552D01*
%TO.C,RV101*%
X155577380Y-90772619D02*
X155101190Y-91105952D01*
X155577380Y-91344047D02*
X154577380Y-91344047D01*
X154577380Y-90963095D01*
X154625000Y-90867857D01*
X154672619Y-90820238D01*
X154767857Y-90772619D01*
X154910714Y-90772619D01*
X155005952Y-90820238D01*
X155053571Y-90867857D01*
X155101190Y-90963095D01*
X155101190Y-91344047D01*
X154577380Y-90486904D02*
X155577380Y-90153571D01*
X154577380Y-89820238D01*
X155577380Y-88963095D02*
X155577380Y-89534523D01*
X155577380Y-89248809D02*
X154577380Y-89248809D01*
X154720238Y-89344047D01*
X154815476Y-89439285D01*
X154863095Y-89534523D01*
X154577380Y-88344047D02*
X154577380Y-88248809D01*
X154625000Y-88153571D01*
X154672619Y-88105952D01*
X154767857Y-88058333D01*
X154958333Y-88010714D01*
X155196428Y-88010714D01*
X155386904Y-88058333D01*
X155482142Y-88105952D01*
X155529761Y-88153571D01*
X155577380Y-88248809D01*
X155577380Y-88344047D01*
X155529761Y-88439285D01*
X155482142Y-88486904D01*
X155386904Y-88534523D01*
X155196428Y-88582142D01*
X154958333Y-88582142D01*
X154767857Y-88534523D01*
X154672619Y-88486904D01*
X154625000Y-88439285D01*
X154577380Y-88344047D01*
X155577380Y-87058333D02*
X155577380Y-87629761D01*
X155577380Y-87344047D02*
X154577380Y-87344047D01*
X154720238Y-87439285D01*
X154815476Y-87534523D01*
X154863095Y-87629761D01*
%TO.C,D101*%
X167953523Y-99538180D02*
X167953523Y-98538180D01*
X168191619Y-98538180D01*
X168334476Y-98585800D01*
X168429714Y-98681038D01*
X168477333Y-98776276D01*
X168524952Y-98966752D01*
X168524952Y-99109609D01*
X168477333Y-99300085D01*
X168429714Y-99395323D01*
X168334476Y-99490561D01*
X168191619Y-99538180D01*
X167953523Y-99538180D01*
X169477333Y-99538180D02*
X168905904Y-99538180D01*
X169191619Y-99538180D02*
X169191619Y-98538180D01*
X169096380Y-98681038D01*
X169001142Y-98776276D01*
X168905904Y-98823895D01*
X170096380Y-98538180D02*
X170191619Y-98538180D01*
X170286857Y-98585800D01*
X170334476Y-98633419D01*
X170382095Y-98728657D01*
X170429714Y-98919133D01*
X170429714Y-99157228D01*
X170382095Y-99347704D01*
X170334476Y-99442942D01*
X170286857Y-99490561D01*
X170191619Y-99538180D01*
X170096380Y-99538180D01*
X170001142Y-99490561D01*
X169953523Y-99442942D01*
X169905904Y-99347704D01*
X169858285Y-99157228D01*
X169858285Y-98919133D01*
X169905904Y-98728657D01*
X169953523Y-98633419D01*
X170001142Y-98585800D01*
X170096380Y-98538180D01*
X171382095Y-99538180D02*
X170810666Y-99538180D01*
X171096380Y-99538180D02*
X171096380Y-98538180D01*
X171001142Y-98681038D01*
X170905904Y-98776276D01*
X170810666Y-98823895D01*
%TO.C,Q101*%
X139487980Y-90032219D02*
X139392742Y-89984600D01*
X139297504Y-89889361D01*
X139154647Y-89746504D01*
X139059409Y-89698885D01*
X138964171Y-89698885D01*
X139011790Y-89936980D02*
X138916552Y-89889361D01*
X138821314Y-89794123D01*
X138773695Y-89603647D01*
X138773695Y-89270314D01*
X138821314Y-89079838D01*
X138916552Y-88984600D01*
X139011790Y-88936980D01*
X139202266Y-88936980D01*
X139297504Y-88984600D01*
X139392742Y-89079838D01*
X139440361Y-89270314D01*
X139440361Y-89603647D01*
X139392742Y-89794123D01*
X139297504Y-89889361D01*
X139202266Y-89936980D01*
X139011790Y-89936980D01*
X140392742Y-89936980D02*
X139821314Y-89936980D01*
X140107028Y-89936980D02*
X140107028Y-88936980D01*
X140011790Y-89079838D01*
X139916552Y-89175076D01*
X139821314Y-89222695D01*
X141011790Y-88936980D02*
X141107028Y-88936980D01*
X141202266Y-88984600D01*
X141249885Y-89032219D01*
X141297504Y-89127457D01*
X141345123Y-89317933D01*
X141345123Y-89556028D01*
X141297504Y-89746504D01*
X141249885Y-89841742D01*
X141202266Y-89889361D01*
X141107028Y-89936980D01*
X141011790Y-89936980D01*
X140916552Y-89889361D01*
X140868933Y-89841742D01*
X140821314Y-89746504D01*
X140773695Y-89556028D01*
X140773695Y-89317933D01*
X140821314Y-89127457D01*
X140868933Y-89032219D01*
X140916552Y-88984600D01*
X141011790Y-88936980D01*
X142297504Y-89936980D02*
X141726076Y-89936980D01*
X142011790Y-89936980D02*
X142011790Y-88936980D01*
X141916552Y-89079838D01*
X141821314Y-89175076D01*
X141726076Y-89222695D01*
%TO.C,R101*%
X139340352Y-91435580D02*
X139007019Y-90959390D01*
X138768923Y-91435580D02*
X138768923Y-90435580D01*
X139149876Y-90435580D01*
X139245114Y-90483200D01*
X139292733Y-90530819D01*
X139340352Y-90626057D01*
X139340352Y-90768914D01*
X139292733Y-90864152D01*
X139245114Y-90911771D01*
X139149876Y-90959390D01*
X138768923Y-90959390D01*
X140292733Y-91435580D02*
X139721304Y-91435580D01*
X140007019Y-91435580D02*
X140007019Y-90435580D01*
X139911780Y-90578438D01*
X139816542Y-90673676D01*
X139721304Y-90721295D01*
X140911780Y-90435580D02*
X141007019Y-90435580D01*
X141102257Y-90483200D01*
X141149876Y-90530819D01*
X141197495Y-90626057D01*
X141245114Y-90816533D01*
X141245114Y-91054628D01*
X141197495Y-91245104D01*
X141149876Y-91340342D01*
X141102257Y-91387961D01*
X141007019Y-91435580D01*
X140911780Y-91435580D01*
X140816542Y-91387961D01*
X140768923Y-91340342D01*
X140721304Y-91245104D01*
X140673685Y-91054628D01*
X140673685Y-90816533D01*
X140721304Y-90626057D01*
X140768923Y-90530819D01*
X140816542Y-90483200D01*
X140911780Y-90435580D01*
X142197495Y-91435580D02*
X141626066Y-91435580D01*
X141911780Y-91435580D02*
X141911780Y-90435580D01*
X141816542Y-90578438D01*
X141721304Y-90673676D01*
X141626066Y-90721295D01*
%TO.C,R105*%
X154119780Y-96844047D02*
X153643590Y-97177380D01*
X154119780Y-97415476D02*
X153119780Y-97415476D01*
X153119780Y-97034523D01*
X153167400Y-96939285D01*
X153215019Y-96891666D01*
X153310257Y-96844047D01*
X153453114Y-96844047D01*
X153548352Y-96891666D01*
X153595971Y-96939285D01*
X153643590Y-97034523D01*
X153643590Y-97415476D01*
X154119780Y-95891666D02*
X154119780Y-96463095D01*
X154119780Y-96177380D02*
X153119780Y-96177380D01*
X153262638Y-96272619D01*
X153357876Y-96367857D01*
X153405495Y-96463095D01*
X153119780Y-95272619D02*
X153119780Y-95177380D01*
X153167400Y-95082142D01*
X153215019Y-95034523D01*
X153310257Y-94986904D01*
X153500733Y-94939285D01*
X153738828Y-94939285D01*
X153929304Y-94986904D01*
X154024542Y-95034523D01*
X154072161Y-95082142D01*
X154119780Y-95177380D01*
X154119780Y-95272619D01*
X154072161Y-95367857D01*
X154024542Y-95415476D01*
X153929304Y-95463095D01*
X153738828Y-95510714D01*
X153500733Y-95510714D01*
X153310257Y-95463095D01*
X153215019Y-95415476D01*
X153167400Y-95367857D01*
X153119780Y-95272619D01*
X153119780Y-94034523D02*
X153119780Y-94510714D01*
X153595971Y-94558333D01*
X153548352Y-94510714D01*
X153500733Y-94415476D01*
X153500733Y-94177380D01*
X153548352Y-94082142D01*
X153595971Y-94034523D01*
X153691209Y-93986904D01*
X153929304Y-93986904D01*
X154024542Y-94034523D01*
X154072161Y-94082142D01*
X154119780Y-94177380D01*
X154119780Y-94415476D01*
X154072161Y-94510714D01*
X154024542Y-94558333D01*
%TO.C,R106*%
X168448752Y-88567180D02*
X168115419Y-88090990D01*
X167877323Y-88567180D02*
X167877323Y-87567180D01*
X168258276Y-87567180D01*
X168353514Y-87614800D01*
X168401133Y-87662419D01*
X168448752Y-87757657D01*
X168448752Y-87900514D01*
X168401133Y-87995752D01*
X168353514Y-88043371D01*
X168258276Y-88090990D01*
X167877323Y-88090990D01*
X169401133Y-88567180D02*
X168829704Y-88567180D01*
X169115419Y-88567180D02*
X169115419Y-87567180D01*
X169020180Y-87710038D01*
X168924942Y-87805276D01*
X168829704Y-87852895D01*
X170020180Y-87567180D02*
X170115419Y-87567180D01*
X170210657Y-87614800D01*
X170258276Y-87662419D01*
X170305895Y-87757657D01*
X170353514Y-87948133D01*
X170353514Y-88186228D01*
X170305895Y-88376704D01*
X170258276Y-88471942D01*
X170210657Y-88519561D01*
X170115419Y-88567180D01*
X170020180Y-88567180D01*
X169924942Y-88519561D01*
X169877323Y-88471942D01*
X169829704Y-88376704D01*
X169782085Y-88186228D01*
X169782085Y-87948133D01*
X169829704Y-87757657D01*
X169877323Y-87662419D01*
X169924942Y-87614800D01*
X170020180Y-87567180D01*
X171210657Y-87567180D02*
X171020180Y-87567180D01*
X170924942Y-87614800D01*
X170877323Y-87662419D01*
X170782085Y-87805276D01*
X170734466Y-87995752D01*
X170734466Y-88376704D01*
X170782085Y-88471942D01*
X170829704Y-88519561D01*
X170924942Y-88567180D01*
X171115419Y-88567180D01*
X171210657Y-88519561D01*
X171258276Y-88471942D01*
X171305895Y-88376704D01*
X171305895Y-88138609D01*
X171258276Y-88043371D01*
X171210657Y-87995752D01*
X171115419Y-87948133D01*
X170924942Y-87948133D01*
X170829704Y-87995752D01*
X170782085Y-88043371D01*
X170734466Y-88138609D01*
%TO.C,R104*%
X149649380Y-96852047D02*
X149173190Y-97185380D01*
X149649380Y-97423476D02*
X148649380Y-97423476D01*
X148649380Y-97042523D01*
X148697000Y-96947285D01*
X148744619Y-96899666D01*
X148839857Y-96852047D01*
X148982714Y-96852047D01*
X149077952Y-96899666D01*
X149125571Y-96947285D01*
X149173190Y-97042523D01*
X149173190Y-97423476D01*
X149649380Y-95899666D02*
X149649380Y-96471095D01*
X149649380Y-96185380D02*
X148649380Y-96185380D01*
X148792238Y-96280619D01*
X148887476Y-96375857D01*
X148935095Y-96471095D01*
X148649380Y-95280619D02*
X148649380Y-95185380D01*
X148697000Y-95090142D01*
X148744619Y-95042523D01*
X148839857Y-94994904D01*
X149030333Y-94947285D01*
X149268428Y-94947285D01*
X149458904Y-94994904D01*
X149554142Y-95042523D01*
X149601761Y-95090142D01*
X149649380Y-95185380D01*
X149649380Y-95280619D01*
X149601761Y-95375857D01*
X149554142Y-95423476D01*
X149458904Y-95471095D01*
X149268428Y-95518714D01*
X149030333Y-95518714D01*
X148839857Y-95471095D01*
X148744619Y-95423476D01*
X148697000Y-95375857D01*
X148649380Y-95280619D01*
X148982714Y-94090142D02*
X149649380Y-94090142D01*
X148601761Y-94328238D02*
X149316047Y-94566333D01*
X149316047Y-93947285D01*
%TO.C,U101*%
X143875000Y-93500000D02*
X143875000Y-87775000D01*
X150700000Y-92425000D02*
X150675000Y-92425000D01*
X150700000Y-92425000D02*
X150700000Y-87775000D01*
X143875000Y-87775000D02*
X143975000Y-87775000D01*
X150700000Y-87775000D02*
X150675000Y-87775000D01*
D11*
%TO.C,JP102*%
X148700000Y-97900000D02*
X148700000Y-100700000D01*
X148700000Y-100700000D02*
X146700000Y-100700000D01*
X146700000Y-100700000D02*
X146700000Y-97900000D01*
X146700000Y-97900000D02*
X148700000Y-97900000D01*
%TO.C,C101*%
X152635000Y-90146267D02*
X152635000Y-89853733D01*
X151615000Y-90146267D02*
X151615000Y-89853733D01*
%TO.C,R102*%
X166224050Y-94560076D02*
X166224050Y-95069524D01*
X167269050Y-94560076D02*
X167269050Y-95069524D01*
%TO.C,kibuzzard-63CD50DB*%
G36*
X142306456Y-87787563D02*
G01*
X142339000Y-87900275D01*
X142339000Y-87976475D01*
X142113575Y-87976475D01*
X142108812Y-87933613D01*
X142107225Y-87887575D01*
X142111194Y-87835188D01*
X142127069Y-87790738D01*
X142160406Y-87760575D01*
X142216762Y-87749463D01*
X142306456Y-87787563D01*
G37*
G36*
X142704919Y-87720888D02*
G01*
X142747781Y-87761369D01*
X142768419Y-87817725D01*
X142773975Y-87882813D01*
X142772388Y-87931231D01*
X142767625Y-87976475D01*
X142500925Y-87976475D01*
X142500925Y-87871700D01*
X142531881Y-87750256D01*
X142634275Y-87705012D01*
X142704919Y-87720888D01*
G37*
G36*
X142976910Y-86402733D02*
G01*
X142976910Y-88502467D01*
X141904290Y-88502467D01*
X141904290Y-87917738D01*
X141937362Y-87917738D01*
X141944506Y-88049500D01*
X141961175Y-88171738D01*
X142915263Y-88171738D01*
X142927764Y-88103078D01*
X142936694Y-88033625D01*
X142942052Y-87964966D01*
X142943838Y-87898688D01*
X142940067Y-87820305D01*
X142928756Y-87747081D01*
X142908516Y-87681200D01*
X142877956Y-87624844D01*
X142782706Y-87543088D01*
X142715833Y-87520466D01*
X142634275Y-87512925D01*
X142567600Y-87521855D01*
X142504100Y-87548644D01*
X142448538Y-87600436D01*
X142405675Y-87684375D01*
X142319950Y-87593094D01*
X142262006Y-87567495D01*
X142196125Y-87558963D01*
X142104050Y-87573250D01*
X142020706Y-87627225D01*
X141960381Y-87736763D01*
X141943117Y-87816931D01*
X141937362Y-87917738D01*
X141904290Y-87917738D01*
X141904290Y-87351000D01*
X141948475Y-87351000D01*
X142931138Y-87351000D01*
X142931138Y-86733462D01*
X142769213Y-86733462D01*
X142769213Y-87154150D01*
X141948475Y-87154150D01*
X141948475Y-87351000D01*
X141904290Y-87351000D01*
X141904290Y-86402733D01*
X142976910Y-86402733D01*
G37*
%TO.C,JP104*%
X141783200Y-86452600D02*
X141783200Y-88452600D01*
X138983200Y-88452600D02*
X138983200Y-86452600D01*
X141783200Y-88452600D02*
X138983200Y-88452600D01*
X138983200Y-86452600D02*
X141783200Y-86452600D01*
%TO.C,JP101*%
X144500000Y-97900000D02*
X144500000Y-100700000D01*
X144500000Y-100700000D02*
X142500000Y-100700000D01*
X142500000Y-97900000D02*
X144500000Y-97900000D01*
X142500000Y-100700000D02*
X142500000Y-97900000D01*
%TO.C,J104*%
X137636200Y-92572200D02*
X140136200Y-92572200D01*
X135666200Y-93742200D02*
X135666200Y-97622200D01*
X140136200Y-92572200D02*
X140136200Y-93622200D01*
X140136200Y-98792200D02*
X140136200Y-97742200D01*
X140136200Y-93622200D02*
X141126200Y-93622200D01*
X137636200Y-98792200D02*
X140136200Y-98792200D01*
%TO.C,R107*%
X167269050Y-91110076D02*
X167269050Y-91619524D01*
X166224050Y-91110076D02*
X166224050Y-91619524D01*
%TO.C,kibuzzard-63CD5133*%
G36*
X149848404Y-97865806D02*
G01*
X149848404Y-100762994D01*
X148799596Y-100762994D01*
X148799596Y-99789063D01*
X148832669Y-99789063D01*
X148941363Y-99822698D01*
X149053133Y-99856928D01*
X149167979Y-99891754D01*
X149285900Y-99927175D01*
X149383531Y-99955687D01*
X149485290Y-99984071D01*
X149591176Y-100012329D01*
X149701190Y-100040459D01*
X149815331Y-100068463D01*
X149815331Y-99865263D01*
X149588319Y-99820813D01*
X149588319Y-99558875D01*
X149815331Y-99512838D01*
X149815331Y-99303287D01*
X149703921Y-99329481D01*
X149595748Y-99355993D01*
X149490815Y-99382821D01*
X149389119Y-99409968D01*
X149290662Y-99437431D01*
X149171253Y-99472009D01*
X149055117Y-99506686D01*
X148942256Y-99541462D01*
X148832669Y-99576338D01*
X148832669Y-99789063D01*
X148799596Y-99789063D01*
X148799596Y-98888950D01*
X148832669Y-98888950D01*
X148894581Y-98957212D01*
X148951731Y-99041350D01*
X149000944Y-99130250D01*
X149037456Y-99212800D01*
X149199381Y-99149300D01*
X149160487Y-99052462D01*
X149104131Y-98950862D01*
X149653406Y-98950862D01*
X149653406Y-99157237D01*
X149815331Y-99157237D01*
X149815331Y-98560337D01*
X149653406Y-98560337D01*
X149653406Y-98755600D01*
X148832669Y-98755600D01*
X148832669Y-98888950D01*
X148799596Y-98888950D01*
X148799596Y-97865806D01*
X149848404Y-97865806D01*
G37*
G36*
X149426394Y-99784300D02*
G01*
X149324794Y-99764456D01*
X149227162Y-99742231D01*
X149128737Y-99716831D01*
X149023169Y-99687463D01*
X149128737Y-99658094D01*
X149227162Y-99632694D01*
X149324794Y-99611263D01*
X149426394Y-99592213D01*
X149426394Y-99784300D01*
G37*
%TO.C,R103*%
X142977500Y-95545276D02*
X142977500Y-96054724D01*
X144022500Y-95545276D02*
X144022500Y-96054724D01*
%TO.C,RV101*%
X156040000Y-96035000D02*
X156040000Y-86265000D01*
X165810000Y-96035000D02*
X165810000Y-86265000D01*
X165810000Y-96035000D02*
X156040000Y-96035000D01*
X165810000Y-86265000D02*
X156040000Y-86265000D01*
%TO.C,J101*%
X176025550Y-97622200D02*
X176025550Y-93742200D01*
X171555550Y-97742200D02*
X170565550Y-97742200D01*
X174055550Y-92572200D02*
X171555550Y-92572200D01*
X174055550Y-98792200D02*
X171555550Y-98792200D01*
X171555550Y-98792200D02*
X171555550Y-97742200D01*
X171555550Y-92572200D02*
X171555550Y-93622200D01*
%TO.C,D101*%
X169337600Y-98231200D02*
X169337600Y-95771200D01*
X167867600Y-95771200D02*
X167867600Y-98231200D01*
X167867600Y-98231200D02*
X169337600Y-98231200D01*
%TO.C,Q101*%
X135340000Y-88112500D02*
X135340000Y-89787500D01*
X138460000Y-88112500D02*
X138460000Y-87462500D01*
X135340000Y-88112500D02*
X135340000Y-87462500D01*
X138460000Y-88112500D02*
X138460000Y-88762500D01*
%TO.C,R101*%
X137158124Y-91429500D02*
X136648676Y-91429500D01*
X137158124Y-90384500D02*
X136648676Y-90384500D01*
%TO.C,R105*%
X151627500Y-95545276D02*
X151627500Y-96054724D01*
X152672500Y-95545276D02*
X152672500Y-96054724D01*
%TO.C,kibuzzard-63CD512B*%
G36*
X145704235Y-97861044D02*
G01*
X145704235Y-100767756D01*
X144612565Y-100767756D01*
X144612565Y-99793825D01*
X144667862Y-99793825D01*
X144776557Y-99827460D01*
X144888327Y-99861691D01*
X145003172Y-99896516D01*
X145121094Y-99931938D01*
X145218725Y-99960449D01*
X145320484Y-99988834D01*
X145426370Y-100017091D01*
X145536384Y-100045222D01*
X145650525Y-100073225D01*
X145650525Y-99870025D01*
X145423513Y-99825575D01*
X145423513Y-99563638D01*
X145650525Y-99517600D01*
X145650525Y-99308050D01*
X145539114Y-99334244D01*
X145430942Y-99360755D01*
X145326008Y-99387584D01*
X145224313Y-99414730D01*
X145125856Y-99442194D01*
X145006446Y-99476771D01*
X144890311Y-99511448D01*
X144777450Y-99546225D01*
X144667862Y-99581100D01*
X144667862Y-99793825D01*
X144612565Y-99793825D01*
X144612565Y-98896887D01*
X144645637Y-98896887D01*
X144659749Y-98997606D01*
X144702082Y-99081743D01*
X144772637Y-99149300D01*
X144844273Y-99188194D01*
X144932181Y-99215975D01*
X145036361Y-99232644D01*
X145156812Y-99238200D01*
X145278653Y-99232743D01*
X145383825Y-99216372D01*
X145472328Y-99189087D01*
X145544163Y-99150887D01*
X145614718Y-99083860D01*
X145657051Y-98999193D01*
X145671163Y-98896887D01*
X145657051Y-98794582D01*
X145614718Y-98709915D01*
X145544163Y-98642887D01*
X145472328Y-98604688D01*
X145383825Y-98577403D01*
X145278653Y-98561032D01*
X145156812Y-98555575D01*
X145035716Y-98561032D01*
X144931189Y-98577403D01*
X144843232Y-98604688D01*
X144771844Y-98642887D01*
X144701729Y-98709915D01*
X144659660Y-98794582D01*
X144645637Y-98896887D01*
X144612565Y-98896887D01*
X144612565Y-97861044D01*
X145704235Y-97861044D01*
G37*
G36*
X145346960Y-98750485D02*
G01*
X145414781Y-98773856D01*
X145480861Y-98825648D01*
X145502888Y-98896887D01*
X145480861Y-98967134D01*
X145414781Y-99019125D01*
X145346960Y-99042937D01*
X145260970Y-99057225D01*
X145156812Y-99061988D01*
X145053537Y-99057225D01*
X144968076Y-99042937D01*
X144900431Y-99019125D01*
X144834352Y-98967134D01*
X144812325Y-98896887D01*
X144812816Y-98895300D01*
X145034575Y-98895300D01*
X145066325Y-98960387D01*
X145140937Y-98984200D01*
X145214756Y-98960387D01*
X145245713Y-98895300D01*
X145214756Y-98832594D01*
X145140937Y-98807987D01*
X145066325Y-98832594D01*
X145034575Y-98895300D01*
X144812816Y-98895300D01*
X144834352Y-98825648D01*
X144900431Y-98773856D01*
X144968076Y-98750485D01*
X145053537Y-98736462D01*
X145156812Y-98731787D01*
X145260970Y-98736462D01*
X145346960Y-98750485D01*
G37*
G36*
X145261588Y-99789063D02*
G01*
X145159988Y-99769219D01*
X145062356Y-99746994D01*
X144963931Y-99721594D01*
X144858362Y-99692225D01*
X144963931Y-99662856D01*
X145062356Y-99637456D01*
X145159988Y-99616025D01*
X145261588Y-99596975D01*
X145261588Y-99789063D01*
G37*
%TO.C,R106*%
X168074050Y-90160076D02*
X168074050Y-90669524D01*
X169119050Y-90160076D02*
X169119050Y-90669524D01*
%TO.C,kibuzzard-63CD5139*%
G36*
X153907906Y-99786681D02*
G01*
X153806306Y-99766838D01*
X153708675Y-99744613D01*
X153610250Y-99719213D01*
X153504681Y-99689844D01*
X153610250Y-99660475D01*
X153708675Y-99635075D01*
X153806306Y-99613644D01*
X153907906Y-99594594D01*
X153907906Y-99786681D01*
G37*
G36*
X154329917Y-97863425D02*
G01*
X154329917Y-100765375D01*
X153258883Y-100765375D01*
X153258883Y-99791444D01*
X153314181Y-99791444D01*
X153422875Y-99825079D01*
X153534645Y-99859309D01*
X153649491Y-99894135D01*
X153767412Y-99929556D01*
X153865044Y-99958068D01*
X153966803Y-99986452D01*
X154072689Y-100014710D01*
X154182703Y-100042840D01*
X154296844Y-100070844D01*
X154296844Y-99867644D01*
X154069831Y-99823194D01*
X154069831Y-99561256D01*
X154296844Y-99515219D01*
X154296844Y-99305669D01*
X154185433Y-99331863D01*
X154077261Y-99358374D01*
X153972327Y-99385203D01*
X153870632Y-99412349D01*
X153772175Y-99439813D01*
X153652765Y-99474390D01*
X153536630Y-99509067D01*
X153423768Y-99543843D01*
X153314181Y-99578719D01*
X153314181Y-99791444D01*
X153258883Y-99791444D01*
X153258883Y-98910381D01*
X153291956Y-98910381D01*
X153299894Y-98993130D01*
X153323706Y-99076275D01*
X153364187Y-99154658D01*
X153422131Y-99223119D01*
X153558656Y-99126281D01*
X153484044Y-99026269D01*
X153461819Y-98929431D01*
X153494362Y-98837356D01*
X153587231Y-98800844D01*
X153671369Y-98830212D01*
X153757094Y-98904825D01*
X153802536Y-98951656D01*
X153849963Y-99001662D01*
X153900366Y-99051669D01*
X153954738Y-99098500D01*
X154013673Y-99139775D01*
X154077769Y-99173112D01*
X154147619Y-99195139D01*
X154223819Y-99202481D01*
X154257156Y-99203275D01*
X154296844Y-99199306D01*
X154296844Y-98557956D01*
X154134919Y-98557956D01*
X154134919Y-98980231D01*
X154082531Y-98963562D01*
X154026175Y-98923081D01*
X153972200Y-98872281D01*
X153926956Y-98824656D01*
X153847581Y-98743694D01*
X153761856Y-98672256D01*
X153670575Y-98621456D01*
X153572944Y-98602406D01*
X153449912Y-98627806D01*
X153361806Y-98696069D01*
X153309419Y-98794494D01*
X153291956Y-98910381D01*
X153258883Y-98910381D01*
X153258883Y-97863425D01*
X154329917Y-97863425D01*
G37*
%TO.C,R104*%
X147177500Y-95545276D02*
X147177500Y-96054724D01*
X148222500Y-95545276D02*
X148222500Y-96054724D01*
%TO.C,JP103*%
X151150000Y-100700000D02*
X151150000Y-97900000D01*
X153150000Y-97900000D02*
X153150000Y-100700000D01*
X151150000Y-97900000D02*
X153150000Y-97900000D01*
X153150000Y-100700000D02*
X151150000Y-100700000D01*
%TD*%
%LPC*%
D12*
%TO.C,U101*%
X144400000Y-93000000D03*
X145050000Y-93000000D03*
X145700000Y-93000000D03*
X146350000Y-93000000D03*
X147000000Y-93000000D03*
X147650000Y-93000000D03*
X148300000Y-93000000D03*
X148950000Y-93000000D03*
X149600000Y-93000000D03*
X150250000Y-93000000D03*
X150250000Y-87200000D03*
X149600000Y-87200000D03*
X148950000Y-87200000D03*
X148300000Y-87200000D03*
X147650000Y-87200000D03*
X147000000Y-87200000D03*
X146350000Y-87200000D03*
X145700000Y-87200000D03*
X145050000Y-87200000D03*
X144400000Y-87200000D03*
%TD*%
D13*
%TO.C,JP102*%
X147700000Y-100025000D03*
D14*
X147700000Y-98575000D03*
%TD*%
D15*
%TO.C,C101*%
X152125000Y-90862500D03*
X152125000Y-89137500D03*
%TD*%
D16*
%TO.C,R102*%
X166746550Y-93902300D03*
X166746550Y-95727300D03*
%TD*%
D17*
%TO.C,JP104*%
X141033200Y-87452600D03*
X139733200Y-87452600D03*
%TD*%
D13*
%TO.C,JP101*%
X143500000Y-100025000D03*
D14*
X143500000Y-98575000D03*
%TD*%
D18*
%TO.C,J104*%
X140351200Y-94182200D03*
X140351200Y-95182200D03*
X140351200Y-96182200D03*
X140351200Y-97182200D03*
D19*
X136476200Y-98482200D03*
X136476200Y-92882200D03*
%TD*%
D16*
%TO.C,R107*%
X166746550Y-90452300D03*
X166746550Y-92277300D03*
%TD*%
%TO.C,R103*%
X143500000Y-94887500D03*
X143500000Y-96712500D03*
%TD*%
D20*
%TO.C,RV101*%
X163580000Y-88610000D03*
X158500000Y-91150000D03*
X163580000Y-93690000D03*
%TD*%
D21*
%TO.C,J101*%
X171340550Y-97182200D03*
X171340550Y-96182200D03*
X171340550Y-95182200D03*
X171340550Y-94182200D03*
D22*
X175215550Y-98482200D03*
X175215550Y-92882200D03*
%TD*%
D23*
%TO.C,D101*%
X168602600Y-97446200D03*
X168602600Y-95696200D03*
%TD*%
D24*
%TO.C,Q101*%
X135950000Y-89050000D03*
X137850000Y-89050000D03*
X136900000Y-87175000D03*
%TD*%
D25*
%TO.C,R101*%
X137815900Y-90907000D03*
X135990900Y-90907000D03*
%TD*%
D16*
%TO.C,R105*%
X152150000Y-94887500D03*
X152150000Y-96712500D03*
%TD*%
%TO.C,R106*%
X168596550Y-89502300D03*
X168596550Y-91327300D03*
%TD*%
%TO.C,R104*%
X147700000Y-94887500D03*
X147700000Y-96712500D03*
%TD*%
D13*
%TO.C,JP103*%
X152150000Y-100025000D03*
D14*
X152150000Y-98575000D03*
%TD*%
D26*
%TO.C,J102*%
X174900000Y-84250000D03*
D27*
X172360000Y-84250000D03*
X169820000Y-84250000D03*
X167280000Y-84250000D03*
X164740000Y-84250000D03*
X162200000Y-84250000D03*
X159660000Y-84250000D03*
X157120000Y-84250000D03*
X154580000Y-84250000D03*
X152040000Y-84250000D03*
X149500000Y-84250000D03*
X146960000Y-84250000D03*
X144420000Y-84250000D03*
X141880000Y-84250000D03*
X139340000Y-84250000D03*
X136800000Y-84250000D03*
%TD*%
M02*
