%TF.GenerationSoftware,KiCad,Pcbnew,(6.0.11-0)*%
%TF.CreationDate,2023-01-30T18:53:32-05:00*%
%TF.ProjectId,LCD-StemmaQT,4c43442d-5374-4656-9d6d-6151542e6b69,1.1.0*%
%TF.SameCoordinates,Original*%
%TF.FileFunction,Copper,L1,Top*%
%TF.FilePolarity,Positive*%
%FSLAX46Y46*%
G04 Gerber Fmt 4.6, Leading zero omitted, Abs format (unit mm)*
G04 Created by KiCad (PCBNEW (6.0.11-0)) date 2023-01-30 18:53:32*
%MOMM*%
%LPD*%
G01*
G04 APERTURE LIST*
G04 Aperture macros list*
%AMRoundRect*
0 Rectangle with rounded corners*
0 $1 Rounding radius*
0 $2 $3 $4 $5 $6 $7 $8 $9 X,Y pos of 4 corners*
0 Add a 4 corners polygon primitive as box body*
4,1,4,$2,$3,$4,$5,$6,$7,$8,$9,$2,$3,0*
0 Add four circle primitives for the rounded corners*
1,1,$1+$1,$2,$3*
1,1,$1+$1,$4,$5*
1,1,$1+$1,$6,$7*
1,1,$1+$1,$8,$9*
0 Add four rect primitives between the rounded corners*
20,1,$1+$1,$2,$3,$4,$5,0*
20,1,$1+$1,$4,$5,$6,$7,0*
20,1,$1+$1,$6,$7,$8,$9,0*
20,1,$1+$1,$8,$9,$2,$3,0*%
%AMFreePoly0*
4,1,6,1.000000,0.000000,0.500000,-0.750000,-0.500000,-0.750000,-0.500000,0.750000,0.500000,0.750000,1.000000,0.000000,1.000000,0.000000,$1*%
%AMFreePoly1*
4,1,6,0.500000,-0.750000,-0.650000,-0.750000,-0.150000,0.000000,-0.650000,0.750000,0.500000,0.750000,0.500000,-0.750000,0.500000,-0.750000,$1*%
G04 Aperture macros list end*
%TA.AperFunction,SMDPad,CuDef*%
%ADD10R,0.400000X1.000000*%
%TD*%
%TA.AperFunction,SMDPad,CuDef*%
%ADD11FreePoly0,90.000000*%
%TD*%
%TA.AperFunction,SMDPad,CuDef*%
%ADD12FreePoly1,90.000000*%
%TD*%
%TA.AperFunction,SMDPad,CuDef*%
%ADD13RoundRect,0.237500X0.237500X-0.300000X0.237500X0.300000X-0.237500X0.300000X-0.237500X-0.300000X0*%
%TD*%
%TA.AperFunction,SMDPad,CuDef*%
%ADD14RoundRect,0.237500X-0.237500X0.250000X-0.237500X-0.250000X0.237500X-0.250000X0.237500X0.250000X0*%
%TD*%
%TA.AperFunction,SMDPad,CuDef*%
%ADD15R,1.000000X1.500000*%
%TD*%
%TA.AperFunction,SMDPad,CuDef*%
%ADD16RoundRect,0.150000X-0.625000X0.150000X-0.625000X-0.150000X0.625000X-0.150000X0.625000X0.150000X0*%
%TD*%
%TA.AperFunction,SMDPad,CuDef*%
%ADD17RoundRect,0.250000X-0.650000X0.350000X-0.650000X-0.350000X0.650000X-0.350000X0.650000X0.350000X0*%
%TD*%
%TA.AperFunction,ComponentPad*%
%ADD18C,1.440000*%
%TD*%
%TA.AperFunction,SMDPad,CuDef*%
%ADD19RoundRect,0.150000X0.625000X-0.150000X0.625000X0.150000X-0.625000X0.150000X-0.625000X-0.150000X0*%
%TD*%
%TA.AperFunction,SMDPad,CuDef*%
%ADD20RoundRect,0.250000X0.650000X-0.350000X0.650000X0.350000X-0.650000X0.350000X-0.650000X-0.350000X0*%
%TD*%
%TA.AperFunction,SMDPad,CuDef*%
%ADD21RoundRect,0.237500X0.237500X-0.287500X0.237500X0.287500X-0.237500X0.287500X-0.237500X-0.287500X0*%
%TD*%
%TA.AperFunction,SMDPad,CuDef*%
%ADD22RoundRect,0.150000X0.150000X-0.587500X0.150000X0.587500X-0.150000X0.587500X-0.150000X-0.587500X0*%
%TD*%
%TA.AperFunction,SMDPad,CuDef*%
%ADD23RoundRect,0.237500X0.250000X0.237500X-0.250000X0.237500X-0.250000X-0.237500X0.250000X-0.237500X0*%
%TD*%
%TA.AperFunction,ComponentPad*%
%ADD24R,1.700000X1.700000*%
%TD*%
%TA.AperFunction,ComponentPad*%
%ADD25O,1.700000X1.700000*%
%TD*%
%TA.AperFunction,ViaPad*%
%ADD26C,0.800000*%
%TD*%
%TA.AperFunction,Conductor*%
%ADD27C,0.500000*%
%TD*%
%TA.AperFunction,Conductor*%
%ADD28C,0.250000*%
%TD*%
%TA.AperFunction,Conductor*%
%ADD29C,0.400000*%
%TD*%
G04 APERTURE END LIST*
%TO.C,JP104*%
G36*
X140633200Y-87752600D02*
G01*
X140133200Y-87752600D01*
X140133200Y-87152600D01*
X140633200Y-87152600D01*
X140633200Y-87752600D01*
G37*
%TD*%
D10*
%TO.P,U101,1,~{INT}*%
%TO.N,unconnected-(U101-Pad1)*%
X144400000Y-93000000D03*
%TO.P,U101,2,SCL*%
%TO.N,/SCL*%
X145050000Y-93000000D03*
%TO.P,U101,3,NC*%
%TO.N,unconnected-(U101-Pad3)*%
X145700000Y-93000000D03*
%TO.P,U101,4,SDA*%
%TO.N,/SDA*%
X146350000Y-93000000D03*
%TO.P,U101,5,VDD*%
%TO.N,VCC*%
X147000000Y-93000000D03*
%TO.P,U101,6,A0*%
%TO.N,/A0*%
X147650000Y-93000000D03*
%TO.P,U101,7,A1*%
%TO.N,/A1*%
X148300000Y-93000000D03*
%TO.P,U101,8,NC*%
%TO.N,unconnected-(U101-Pad8)*%
X148950000Y-93000000D03*
%TO.P,U101,9,A2*%
%TO.N,/A2*%
X149600000Y-93000000D03*
%TO.P,U101,10,P0*%
%TO.N,/RS*%
X150250000Y-93000000D03*
%TO.P,U101,11,P1*%
%TO.N,/RW*%
X150250000Y-87200000D03*
%TO.P,U101,12,P2*%
%TO.N,/CS*%
X149600000Y-87200000D03*
%TO.P,U101,13,NC*%
%TO.N,unconnected-(U101-Pad13)*%
X148950000Y-87200000D03*
%TO.P,U101,14,P3*%
%TO.N,/LCD_BL*%
X148300000Y-87200000D03*
%TO.P,U101,15,VSS*%
%TO.N,GND*%
X147650000Y-87200000D03*
%TO.P,U101,16,P4*%
%TO.N,/DB4*%
X147000000Y-87200000D03*
%TO.P,U101,17,P5*%
%TO.N,/DB5*%
X146350000Y-87200000D03*
%TO.P,U101,18,NC*%
%TO.N,unconnected-(U101-Pad18)*%
X145700000Y-87200000D03*
%TO.P,U101,19,P6*%
%TO.N,/DB6*%
X145050000Y-87200000D03*
%TO.P,U101,20,P7*%
%TO.N,/DB7*%
X144400000Y-87200000D03*
%TD*%
D11*
%TO.P,JP102,1,A*%
%TO.N,GND*%
X147700000Y-100025000D03*
D12*
%TO.P,JP102,2,B*%
%TO.N,/A1*%
X147700000Y-98575000D03*
%TD*%
D13*
%TO.P,C101,1*%
%TO.N,VCC*%
X152125000Y-90862500D03*
%TO.P,C101,2*%
%TO.N,GND*%
X152125000Y-89137500D03*
%TD*%
D14*
%TO.P,R102,1*%
%TO.N,VCC*%
X166746550Y-93902300D03*
%TO.P,R102,2*%
%TO.N,Net-(D101-Pad2)*%
X166746550Y-95727300D03*
%TD*%
D15*
%TO.P,JP104,1,A*%
%TO.N,VCC*%
X141033200Y-87452600D03*
%TO.P,JP104,2,B*%
%TO.N,/LCD_A*%
X139733200Y-87452600D03*
%TD*%
D11*
%TO.P,JP101,1,A*%
%TO.N,GND*%
X143500000Y-100025000D03*
D12*
%TO.P,JP101,2,B*%
%TO.N,/A0*%
X143500000Y-98575000D03*
%TD*%
D16*
%TO.P,J104,1,GND*%
%TO.N,GND*%
X140351200Y-94182200D03*
%TO.P,J104,2,VCC*%
%TO.N,VCC*%
X140351200Y-95182200D03*
%TO.P,J104,3,SDA*%
%TO.N,/SDA*%
X140351200Y-96182200D03*
%TO.P,J104,4,SCL*%
%TO.N,/SCL*%
X140351200Y-97182200D03*
D17*
%TO.P,J104,MP,MP*%
%TO.N,unconnected-(J104-PadMP)*%
X136476200Y-98482200D03*
X136476200Y-92882200D03*
%TD*%
D14*
%TO.P,R107,1*%
%TO.N,VCC*%
X166746550Y-90452300D03*
%TO.P,R107,2*%
%TO.N,/SDA*%
X166746550Y-92277300D03*
%TD*%
%TO.P,R103,1*%
%TO.N,VCC*%
X143500000Y-94887500D03*
%TO.P,R103,2*%
%TO.N,/A0*%
X143500000Y-96712500D03*
%TD*%
D18*
%TO.P,RV101,1,1*%
%TO.N,VCC*%
X163580000Y-88610000D03*
%TO.P,RV101,2,2*%
%TO.N,/LCD_VO*%
X158500000Y-91150000D03*
%TO.P,RV101,3,3*%
%TO.N,GND*%
X163580000Y-93690000D03*
%TD*%
D19*
%TO.P,J101,1,GND*%
%TO.N,GND*%
X171340550Y-97182200D03*
%TO.P,J101,2,VCC*%
%TO.N,VCC*%
X171340550Y-96182200D03*
%TO.P,J101,3,SDA*%
%TO.N,/SDA*%
X171340550Y-95182200D03*
%TO.P,J101,4,SCL*%
%TO.N,/SCL*%
X171340550Y-94182200D03*
D20*
%TO.P,J101,MP,MP*%
%TO.N,unconnected-(J101-PadMP)*%
X175215550Y-98482200D03*
X175215550Y-92882200D03*
%TD*%
D21*
%TO.P,D101,1,K*%
%TO.N,GND*%
X168602600Y-97446200D03*
%TO.P,D101,2,A*%
%TO.N,Net-(D101-Pad2)*%
X168602600Y-95696200D03*
%TD*%
D22*
%TO.P,Q101,1,B*%
%TO.N,/LCD_BL*%
X135950000Y-89050000D03*
%TO.P,Q101,2,E*%
%TO.N,GND*%
X137850000Y-89050000D03*
%TO.P,Q101,3,C*%
%TO.N,/LCD_K*%
X136900000Y-87175000D03*
%TD*%
D23*
%TO.P,R101,1*%
%TO.N,VCC*%
X137815900Y-90907000D03*
%TO.P,R101,2*%
%TO.N,/LCD_BL*%
X135990900Y-90907000D03*
%TD*%
D14*
%TO.P,R105,1*%
%TO.N,VCC*%
X152150000Y-94887500D03*
%TO.P,R105,2*%
%TO.N,/A2*%
X152150000Y-96712500D03*
%TD*%
%TO.P,R106,1*%
%TO.N,VCC*%
X168596550Y-89502300D03*
%TO.P,R106,2*%
%TO.N,/SCL*%
X168596550Y-91327300D03*
%TD*%
%TO.P,R104,1*%
%TO.N,VCC*%
X147700000Y-94887500D03*
%TO.P,R104,2*%
%TO.N,/A1*%
X147700000Y-96712500D03*
%TD*%
D11*
%TO.P,JP103,1,A*%
%TO.N,GND*%
X152150000Y-100025000D03*
D12*
%TO.P,JP103,2,B*%
%TO.N,/A2*%
X152150000Y-98575000D03*
%TD*%
D24*
%TO.P,J102,1,Pin_1*%
%TO.N,GND*%
X174900000Y-84250000D03*
D25*
%TO.P,J102,2,Pin_2*%
%TO.N,VCC*%
X172360000Y-84250000D03*
%TO.P,J102,3,Pin_3*%
%TO.N,/LCD_VO*%
X169820000Y-84250000D03*
%TO.P,J102,4,Pin_4*%
%TO.N,/RS*%
X167280000Y-84250000D03*
%TO.P,J102,5,Pin_5*%
%TO.N,/RW*%
X164740000Y-84250000D03*
%TO.P,J102,6,Pin_6*%
%TO.N,/CS*%
X162200000Y-84250000D03*
%TO.P,J102,7,Pin_7*%
%TO.N,unconnected-(J102-Pad7)*%
X159660000Y-84250000D03*
%TO.P,J102,8,Pin_8*%
%TO.N,unconnected-(J102-Pad8)*%
X157120000Y-84250000D03*
%TO.P,J102,9,Pin_9*%
%TO.N,unconnected-(J102-Pad9)*%
X154580000Y-84250000D03*
%TO.P,J102,10,Pin_10*%
%TO.N,unconnected-(J102-Pad10)*%
X152040000Y-84250000D03*
%TO.P,J102,11,Pin_11*%
%TO.N,/DB4*%
X149500000Y-84250000D03*
%TO.P,J102,12,Pin_12*%
%TO.N,/DB5*%
X146960000Y-84250000D03*
%TO.P,J102,13,Pin_13*%
%TO.N,/DB6*%
X144420000Y-84250000D03*
%TO.P,J102,14,Pin_14*%
%TO.N,/DB7*%
X141880000Y-84250000D03*
%TO.P,J102,15,Pin_15*%
%TO.N,/LCD_A*%
X139340000Y-84250000D03*
%TO.P,J102,16,Pin_16*%
%TO.N,/LCD_K*%
X136800000Y-84250000D03*
%TD*%
D26*
%TO.N,VCC*%
X165249800Y-93955000D03*
X150900000Y-94900000D03*
X139062400Y-90907000D03*
X146350000Y-94900000D03*
X144802800Y-94894800D03*
X147525000Y-91700000D03*
X138325800Y-95783800D03*
%TO.N,GND*%
X141221400Y-100254200D03*
X147012600Y-88392400D03*
X139087800Y-89179800D03*
X152175000Y-87825000D03*
X138325800Y-94590000D03*
%TO.N,/SCL*%
X155494227Y-93950500D03*
X145025000Y-90075000D03*
%TO.N,/SDA*%
X146325000Y-90799500D03*
X154704457Y-94616212D03*
X142186600Y-93777200D03*
%TD*%
D27*
%TO.N,VCC*%
X166746550Y-90527300D02*
X167571550Y-90527300D01*
D28*
X165302500Y-93902300D02*
X165249800Y-93955000D01*
X152150000Y-94887500D02*
X150912500Y-94887500D01*
X147000000Y-92225000D02*
X147537500Y-91687500D01*
D29*
X143500000Y-94887500D02*
X144795500Y-94887500D01*
X140351200Y-95182200D02*
X138927400Y-95182200D01*
D28*
X147000000Y-93000000D02*
X147000000Y-92225000D01*
X166746550Y-93902300D02*
X165302500Y-93902300D01*
D29*
X138927400Y-95182200D02*
X138325800Y-95783800D01*
X137815900Y-90907000D02*
X139062400Y-90907000D01*
D28*
X147700000Y-94887500D02*
X146362500Y-94887500D01*
X144795500Y-94887500D02*
X144802800Y-94894800D01*
D27*
X167571550Y-90527300D02*
X168596550Y-89502300D01*
D28*
X150912500Y-94887500D02*
X150900000Y-94900000D01*
X166727800Y-90546050D02*
X166746550Y-90527300D01*
X147537500Y-91687500D02*
X147525000Y-91700000D01*
X146362500Y-94887500D02*
X146350000Y-94900000D01*
%TO.N,GND*%
X138733600Y-94182200D02*
X138325800Y-94590000D01*
D29*
X171340550Y-97182200D02*
X168866600Y-97182200D01*
D28*
X149950000Y-100025000D02*
X152150000Y-100025000D01*
D29*
X168602600Y-97446200D02*
X166317967Y-97446200D01*
D28*
X143500000Y-100025000D02*
X141450600Y-100025000D01*
X152125000Y-89137500D02*
X152125000Y-87875000D01*
X140351200Y-94182200D02*
X138733600Y-94182200D01*
X152125000Y-87875000D02*
X152175000Y-87825000D01*
X147650000Y-87755000D02*
X147650000Y-87200000D01*
X168866600Y-97182200D02*
X168602600Y-97446200D01*
X143500000Y-100025000D02*
X145525000Y-100025000D01*
X147700000Y-100025000D02*
X149950000Y-100025000D01*
D29*
X163580000Y-94708233D02*
X163580000Y-93690000D01*
D28*
X145525000Y-100025000D02*
X147700000Y-100025000D01*
X138958000Y-89050000D02*
X137850000Y-89050000D01*
X139087800Y-89179800D02*
X138958000Y-89050000D01*
D29*
X166317967Y-97446200D02*
X163580000Y-94708233D01*
D28*
X147012600Y-88392400D02*
X147650000Y-87755000D01*
X141450600Y-100025000D02*
X141221400Y-100254200D01*
%TO.N,Net-(D101-Pad2)*%
X168571500Y-95727300D02*
X168602600Y-95696200D01*
X166746550Y-95727300D02*
X168571500Y-95727300D01*
%TO.N,/SCL*%
X168565100Y-91375000D02*
X168567000Y-91373100D01*
X141778800Y-97182200D02*
X142636600Y-96324400D01*
X162551104Y-91887500D02*
X160463604Y-93975000D01*
X145050000Y-93606200D02*
X145050000Y-93000000D01*
X168548850Y-91375000D02*
X168596550Y-91327300D01*
X162562500Y-91887500D02*
X162551104Y-91887500D01*
X142636600Y-96324400D02*
X142636600Y-94444800D01*
X143256400Y-93825000D02*
X144831200Y-93825000D01*
X142636600Y-94444800D02*
X143256400Y-93825000D01*
X155518727Y-93975000D02*
X155494227Y-93950500D01*
X160463604Y-93975000D02*
X155518727Y-93975000D01*
X140351200Y-97182200D02*
X141778800Y-97182200D01*
X144831200Y-93825000D02*
X145050000Y-93606200D01*
X171340550Y-94182200D02*
X170226800Y-94182200D01*
X168596550Y-92551950D02*
X168596550Y-91327300D01*
X145050000Y-93000000D02*
X145050000Y-90100000D01*
X163075000Y-91375000D02*
X162562500Y-91887500D01*
X163075000Y-91375000D02*
X168548850Y-91375000D01*
X170226800Y-94182200D02*
X168596550Y-92551950D01*
X145050000Y-90100000D02*
X145025000Y-90075000D01*
%TO.N,/SDA*%
X166700750Y-92323100D02*
X166746550Y-92277300D01*
X154763245Y-94675000D02*
X154704457Y-94616212D01*
X141585000Y-96182200D02*
X140351200Y-96182200D01*
X142186600Y-93777200D02*
X142186600Y-95580600D01*
X160400000Y-94675000D02*
X154763245Y-94675000D01*
X166746550Y-92277300D02*
X167382100Y-92277300D01*
X146325000Y-90799500D02*
X146325000Y-92975000D01*
X146325000Y-92975000D02*
X146350000Y-93000000D01*
X162751900Y-92323100D02*
X160400000Y-94675000D01*
X170287000Y-95182200D02*
X171340550Y-95182200D01*
X162751900Y-92323100D02*
X166700750Y-92323100D01*
X142186600Y-95580600D02*
X141585000Y-96182200D01*
X167382100Y-92277300D02*
X170287000Y-95182200D01*
%TO.N,/A0*%
X143500000Y-96712500D02*
X143500000Y-98575000D01*
X147650000Y-93750000D02*
X147375000Y-94025000D01*
X146199695Y-94025000D02*
X145625000Y-94599695D01*
X145625000Y-96104600D02*
X145017100Y-96712500D01*
X145625000Y-94599695D02*
X145625000Y-96104600D01*
X147650000Y-93000000D02*
X147650000Y-93750000D01*
X145017100Y-96712500D02*
X143500000Y-96712500D01*
X147375000Y-94025000D02*
X146199695Y-94025000D01*
%TO.N,/A1*%
X147700000Y-96712500D02*
X148900000Y-95512500D01*
X148900000Y-94300000D02*
X148300000Y-93700000D01*
X148300000Y-93700000D02*
X148300000Y-93000000D01*
X148900000Y-95512500D02*
X148900000Y-94300000D01*
X147700000Y-96712500D02*
X147700000Y-98575000D01*
%TO.N,/A2*%
X149600000Y-95600000D02*
X149600000Y-93000000D01*
X150712500Y-96712500D02*
X149600000Y-95600000D01*
X152150000Y-96712500D02*
X150712500Y-96712500D01*
X152125000Y-96712500D02*
X152125000Y-98575000D01*
%TO.N,/LCD_BL*%
X137006900Y-91923000D02*
X141754800Y-91923000D01*
X135950000Y-89050000D02*
X135950000Y-90866100D01*
X135990900Y-90907000D02*
X137006900Y-91923000D01*
X141754800Y-91923000D02*
X144327800Y-89350000D01*
X147731400Y-89350000D02*
X148300000Y-88781400D01*
X148300000Y-88781400D02*
X148300000Y-87200000D01*
X144327800Y-89350000D02*
X147731400Y-89350000D01*
X135950000Y-90866100D02*
X135990900Y-90907000D01*
%TO.N,/LCD_K*%
X136800000Y-87075000D02*
X136900000Y-87175000D01*
D29*
X136800000Y-84250000D02*
X136800000Y-87075000D01*
D28*
%TO.N,/RS*%
X152200000Y-93000000D02*
X150250000Y-93000000D01*
X163750000Y-86925000D02*
X158275000Y-86925000D01*
X158275000Y-86925000D02*
X152200000Y-93000000D01*
X166425000Y-84250000D02*
X163750000Y-86925000D01*
X167280000Y-84250000D02*
X166425000Y-84250000D01*
%TO.N,/RW*%
X162515000Y-86475000D02*
X164740000Y-84250000D01*
X150975000Y-86475000D02*
X162515000Y-86475000D01*
X150250000Y-87200000D02*
X150975000Y-86475000D01*
%TO.N,/CS*%
X160425000Y-86025000D02*
X162200000Y-84250000D01*
X150025000Y-86025000D02*
X160425000Y-86025000D01*
X149600000Y-86450000D02*
X150025000Y-86025000D01*
X149600000Y-87200000D02*
X149600000Y-86450000D01*
%TO.N,/DB4*%
X148875000Y-86050000D02*
X149500000Y-85425000D01*
X147000000Y-87200000D02*
X147000000Y-86500000D01*
X147450000Y-86050000D02*
X148875000Y-86050000D01*
X149500000Y-85425000D02*
X149500000Y-84250000D01*
X147000000Y-86500000D02*
X147450000Y-86050000D01*
%TO.N,/DB5*%
X146350000Y-86513604D02*
X146960000Y-85903604D01*
X146960000Y-85903604D02*
X146960000Y-84250000D01*
X146350000Y-87200000D02*
X146350000Y-86513604D01*
%TO.N,/DB6*%
X144420000Y-85655000D02*
X144420000Y-84250000D01*
X145050000Y-86325000D02*
X144400000Y-85675000D01*
X144400000Y-85675000D02*
X144420000Y-85655000D01*
X145050000Y-87200000D02*
X145050000Y-86325000D01*
%TO.N,/DB7*%
X142350000Y-86075000D02*
X141880000Y-85605000D01*
X141880000Y-85605000D02*
X141880000Y-84250000D01*
X144163604Y-86075000D02*
X142350000Y-86075000D01*
X144400000Y-87200000D02*
X144400000Y-86311396D01*
X144400000Y-86311396D02*
X144163604Y-86075000D01*
%TO.N,/LCD_A*%
X139340000Y-84250000D02*
X139340000Y-87059400D01*
X139340000Y-87059400D02*
X139733200Y-87452600D01*
%TO.N,unconnected-(J101-PadMP)*%
X175215550Y-92882200D02*
X175215550Y-98482200D01*
%TO.N,unconnected-(J104-PadMP)*%
X136476200Y-92882200D02*
X136476200Y-98482200D01*
%TD*%
%TA.AperFunction,Conductor*%
%TO.N,VCC*%
G36*
X172556121Y-84016002D02*
G01*
X172602614Y-84069658D01*
X172614000Y-84122000D01*
X172614000Y-85568517D01*
X172618064Y-85582359D01*
X172631478Y-85584393D01*
X172638184Y-85583534D01*
X172648262Y-85581392D01*
X172852255Y-85520191D01*
X172861842Y-85516433D01*
X173053095Y-85422739D01*
X173061945Y-85417464D01*
X173235328Y-85293792D01*
X173243193Y-85287145D01*
X173347897Y-85182805D01*
X173410268Y-85148889D01*
X173481075Y-85154077D01*
X173537837Y-85196723D01*
X173554819Y-85227826D01*
X173571592Y-85272568D01*
X173599385Y-85346705D01*
X173686739Y-85463261D01*
X173803295Y-85550615D01*
X173939684Y-85601745D01*
X174001866Y-85608500D01*
X175798134Y-85608500D01*
X175860316Y-85601745D01*
X175921271Y-85578894D01*
X175992077Y-85573711D01*
X176054446Y-85607631D01*
X176088575Y-85669887D01*
X176091500Y-85696876D01*
X176091500Y-91652117D01*
X176071498Y-91720238D01*
X176017842Y-91766731D01*
X175952657Y-91777461D01*
X175915950Y-91773700D01*
X174515150Y-91773700D01*
X174511904Y-91774037D01*
X174511900Y-91774037D01*
X174416242Y-91783962D01*
X174416238Y-91783963D01*
X174409384Y-91784674D01*
X174402848Y-91786855D01*
X174402846Y-91786855D01*
X174270744Y-91830928D01*
X174241604Y-91840650D01*
X174091202Y-91933722D01*
X173966245Y-92058897D01*
X173962405Y-92065127D01*
X173962404Y-92065128D01*
X173900269Y-92165930D01*
X173873435Y-92209462D01*
X173869841Y-92220299D01*
X173821867Y-92364937D01*
X173817753Y-92377339D01*
X173817053Y-92384175D01*
X173817052Y-92384178D01*
X173813184Y-92421931D01*
X173807050Y-92481800D01*
X173807050Y-93282600D01*
X173807387Y-93285846D01*
X173807387Y-93285850D01*
X173816755Y-93376133D01*
X173818024Y-93388366D01*
X173820205Y-93394902D01*
X173820205Y-93394904D01*
X173856506Y-93503709D01*
X173874000Y-93556146D01*
X173967072Y-93706548D01*
X174092247Y-93831505D01*
X174098477Y-93835345D01*
X174098478Y-93835346D01*
X174221429Y-93911134D01*
X174242812Y-93924315D01*
X174296906Y-93942257D01*
X174404161Y-93977832D01*
X174404163Y-93977832D01*
X174410689Y-93979997D01*
X174417525Y-93980697D01*
X174417528Y-93980698D01*
X174468894Y-93985961D01*
X174534621Y-94012803D01*
X174575402Y-94070918D01*
X174582050Y-94111305D01*
X174582050Y-97253156D01*
X174562048Y-97321277D01*
X174508392Y-97367770D01*
X174469054Y-97378483D01*
X174456972Y-97379736D01*
X174416243Y-97383962D01*
X174416240Y-97383963D01*
X174409384Y-97384674D01*
X174402848Y-97386855D01*
X174402846Y-97386855D01*
X174304524Y-97419658D01*
X174241604Y-97440650D01*
X174091202Y-97533722D01*
X173966245Y-97658897D01*
X173962405Y-97665127D01*
X173962404Y-97665128D01*
X173912456Y-97746159D01*
X173873435Y-97809462D01*
X173859643Y-97851044D01*
X173829692Y-97941345D01*
X173817753Y-97977339D01*
X173817053Y-97984175D01*
X173817052Y-97984178D01*
X173814547Y-98008627D01*
X173807050Y-98081800D01*
X173807050Y-98882600D01*
X173818024Y-98988366D01*
X173874000Y-99156146D01*
X173967072Y-99306548D01*
X174092247Y-99431505D01*
X174098477Y-99435345D01*
X174098478Y-99435346D01*
X174235640Y-99519894D01*
X174242812Y-99524315D01*
X174250817Y-99526970D01*
X174404161Y-99577832D01*
X174404163Y-99577832D01*
X174410689Y-99579997D01*
X174417525Y-99580697D01*
X174417528Y-99580698D01*
X174460581Y-99585109D01*
X174515150Y-99590700D01*
X175915950Y-99590700D01*
X175919196Y-99590363D01*
X175919200Y-99590363D01*
X175944054Y-99587784D01*
X175952496Y-99586908D01*
X176022317Y-99599773D01*
X176074100Y-99648343D01*
X176091500Y-99712235D01*
X176091500Y-100890500D01*
X176071498Y-100958621D01*
X176017842Y-101005114D01*
X175965500Y-101016500D01*
X153422856Y-101016500D01*
X153354735Y-100996498D01*
X153308242Y-100942842D01*
X153298138Y-100872568D01*
X153322988Y-100818155D01*
X153321402Y-100817135D01*
X153326274Y-100809555D01*
X153332176Y-100802743D01*
X153392919Y-100669734D01*
X153413729Y-100525000D01*
X153413729Y-99525000D01*
X153413407Y-99519894D01*
X153410066Y-99466920D01*
X153410065Y-99466916D01*
X153409657Y-99460443D01*
X153397075Y-99414768D01*
X153393833Y-99363375D01*
X153396177Y-99347072D01*
X153413729Y-99225000D01*
X153413729Y-98075000D01*
X153409599Y-98017261D01*
X153408982Y-98008627D01*
X153408982Y-98008626D01*
X153408500Y-98001889D01*
X153375852Y-97890700D01*
X153369843Y-97870235D01*
X153369842Y-97870233D01*
X153367304Y-97861589D01*
X153339068Y-97817653D01*
X153293122Y-97746159D01*
X153293120Y-97746156D01*
X153288250Y-97738579D01*
X153266496Y-97719729D01*
X153184555Y-97648726D01*
X153184552Y-97648724D01*
X153177743Y-97642824D01*
X153169545Y-97639080D01*
X153047498Y-97583343D01*
X152993842Y-97536850D01*
X152973840Y-97468729D01*
X152992580Y-97402613D01*
X153064369Y-97286150D01*
X153064370Y-97286148D01*
X153068209Y-97279920D01*
X153122974Y-97114809D01*
X153133500Y-97012072D01*
X153133500Y-96412928D01*
X153129735Y-96376638D01*
X153123419Y-96315765D01*
X153123418Y-96315761D01*
X153122707Y-96308907D01*
X153117887Y-96294458D01*
X153069972Y-96150841D01*
X153067654Y-96143893D01*
X152976116Y-95995969D01*
X152868859Y-95888899D01*
X152834780Y-95826618D01*
X152839783Y-95755798D01*
X152868704Y-95710709D01*
X152971363Y-95607871D01*
X152980375Y-95596460D01*
X153063912Y-95460937D01*
X153070056Y-95447759D01*
X153120315Y-95296234D01*
X153123181Y-95282868D01*
X153132672Y-95190230D01*
X153133000Y-95183815D01*
X153133000Y-95159615D01*
X153128525Y-95144376D01*
X153127135Y-95143171D01*
X153119452Y-95141500D01*
X151185115Y-95141500D01*
X151169876Y-95145975D01*
X151168671Y-95147365D01*
X151167000Y-95155048D01*
X151167000Y-95183766D01*
X151167337Y-95190282D01*
X151177075Y-95284132D01*
X151179968Y-95297528D01*
X151230488Y-95448953D01*
X151236653Y-95462115D01*
X151320426Y-95597492D01*
X151329460Y-95608890D01*
X151431140Y-95710393D01*
X151465219Y-95772676D01*
X151460216Y-95843496D01*
X151431296Y-95888583D01*
X151323071Y-95996997D01*
X151319233Y-96003224D01*
X151319231Y-96003226D01*
X151309436Y-96019116D01*
X151256664Y-96066609D01*
X151202176Y-96079000D01*
X151027095Y-96079000D01*
X150958974Y-96058998D01*
X150937999Y-96042095D01*
X150270404Y-95374499D01*
X150236379Y-95312187D01*
X150233500Y-95285404D01*
X150233500Y-94615385D01*
X151167000Y-94615385D01*
X151171475Y-94630624D01*
X151172865Y-94631829D01*
X151180548Y-94633500D01*
X151877885Y-94633500D01*
X151893124Y-94629025D01*
X151894329Y-94627635D01*
X151896000Y-94619952D01*
X151896000Y-94615385D01*
X152404000Y-94615385D01*
X152408475Y-94630624D01*
X152409865Y-94631829D01*
X152417548Y-94633500D01*
X153114885Y-94633500D01*
X153130124Y-94629025D01*
X153131329Y-94627635D01*
X153133000Y-94619952D01*
X153133000Y-94616212D01*
X153790953Y-94616212D01*
X153791643Y-94622777D01*
X153809970Y-94797146D01*
X153810915Y-94806140D01*
X153869930Y-94987768D01*
X153965417Y-95153156D01*
X153969835Y-95158063D01*
X153969836Y-95158064D01*
X154088782Y-95290167D01*
X154093204Y-95295078D01*
X154184126Y-95361137D01*
X154235830Y-95398702D01*
X154247705Y-95407330D01*
X154253733Y-95410014D01*
X154253735Y-95410015D01*
X154416138Y-95482321D01*
X154422169Y-95485006D01*
X154515569Y-95504859D01*
X154602513Y-95523340D01*
X154602518Y-95523340D01*
X154608970Y-95524712D01*
X154799944Y-95524712D01*
X154806396Y-95523340D01*
X154806401Y-95523340D01*
X154893344Y-95504859D01*
X154986745Y-95485006D01*
X154992776Y-95482321D01*
X155155179Y-95410015D01*
X155155181Y-95410014D01*
X155161209Y-95407330D01*
X155173085Y-95398702D01*
X155264115Y-95332564D01*
X155330982Y-95308706D01*
X155338176Y-95308500D01*
X160321233Y-95308500D01*
X160332416Y-95309027D01*
X160339909Y-95310702D01*
X160347835Y-95310453D01*
X160347836Y-95310453D01*
X160407986Y-95308562D01*
X160411945Y-95308500D01*
X160439856Y-95308500D01*
X160443791Y-95308003D01*
X160443856Y-95307995D01*
X160455693Y-95307062D01*
X160487951Y-95306048D01*
X160491970Y-95305922D01*
X160499889Y-95305673D01*
X160519343Y-95300021D01*
X160538700Y-95296013D01*
X160550930Y-95294468D01*
X160550931Y-95294468D01*
X160558797Y-95293474D01*
X160566168Y-95290555D01*
X160566170Y-95290555D01*
X160599912Y-95277196D01*
X160611142Y-95273351D01*
X160645983Y-95263229D01*
X160645984Y-95263229D01*
X160653593Y-95261018D01*
X160660412Y-95256985D01*
X160660417Y-95256983D01*
X160671028Y-95250707D01*
X160688776Y-95242012D01*
X160707617Y-95234552D01*
X160743387Y-95208564D01*
X160753307Y-95202048D01*
X160784535Y-95183580D01*
X160784538Y-95183578D01*
X160791362Y-95179542D01*
X160805683Y-95165221D01*
X160820717Y-95152380D01*
X160827519Y-95147438D01*
X160837107Y-95140472D01*
X160865298Y-95106395D01*
X160873288Y-95097616D01*
X162150439Y-93820466D01*
X162212751Y-93786440D01*
X162283567Y-93791505D01*
X162340402Y-93834052D01*
X162363086Y-93893423D01*
X162364107Y-93893243D01*
X162365041Y-93898538D01*
X162365054Y-93898573D01*
X162365061Y-93898653D01*
X162365063Y-93898662D01*
X162365542Y-93904142D01*
X162366966Y-93909455D01*
X162366966Y-93909457D01*
X162409014Y-94066379D01*
X162421178Y-94111777D01*
X162423500Y-94116757D01*
X162423501Y-94116759D01*
X162507861Y-94297668D01*
X162512024Y-94306596D01*
X162635319Y-94482681D01*
X162787319Y-94634681D01*
X162791831Y-94637841D01*
X162791833Y-94637842D01*
X162814897Y-94653992D01*
X162859225Y-94709449D01*
X162867287Y-94745412D01*
X162867275Y-94745585D01*
X162878261Y-94808532D01*
X162879223Y-94815054D01*
X162886898Y-94878475D01*
X162889581Y-94885576D01*
X162890222Y-94888185D01*
X162894685Y-94904495D01*
X162895450Y-94907031D01*
X162896757Y-94914517D01*
X162920309Y-94968168D01*
X162922442Y-94973028D01*
X162924933Y-94979132D01*
X162947513Y-95038889D01*
X162951817Y-95045152D01*
X162953054Y-95047518D01*
X162961299Y-95062330D01*
X162962632Y-95064584D01*
X162965685Y-95071538D01*
X163004022Y-95121498D01*
X163004579Y-95122224D01*
X163008459Y-95127565D01*
X163040339Y-95173953D01*
X163040344Y-95173958D01*
X163044643Y-95180214D01*
X163050313Y-95185265D01*
X163050314Y-95185267D01*
X163091170Y-95221668D01*
X163096446Y-95226649D01*
X165796517Y-97926720D01*
X165802371Y-97932985D01*
X165840406Y-97976585D01*
X165857028Y-97988267D01*
X165892686Y-98013328D01*
X165897981Y-98017261D01*
X165948249Y-98056676D01*
X165955165Y-98059799D01*
X165957451Y-98061183D01*
X165972132Y-98069557D01*
X165974492Y-98070822D01*
X165980706Y-98075190D01*
X165987785Y-98077950D01*
X165987787Y-98077951D01*
X166040242Y-98098402D01*
X166046311Y-98100953D01*
X166104540Y-98127245D01*
X166112013Y-98128630D01*
X166114579Y-98129434D01*
X166130802Y-98134055D01*
X166133394Y-98134720D01*
X166140476Y-98137482D01*
X166148011Y-98138474D01*
X166203828Y-98145822D01*
X166210344Y-98146854D01*
X166248737Y-98153970D01*
X166273153Y-98158495D01*
X166280733Y-98158058D01*
X166280734Y-98158058D01*
X166335347Y-98154909D01*
X166342600Y-98154700D01*
X167680567Y-98154700D01*
X167748688Y-98174702D01*
X167775980Y-98199417D01*
X167776484Y-98200231D01*
X167781665Y-98205403D01*
X167894416Y-98317958D01*
X167894421Y-98317962D01*
X167899597Y-98323129D01*
X168047680Y-98414409D01*
X168212791Y-98469174D01*
X168219627Y-98469874D01*
X168219630Y-98469875D01*
X168271126Y-98475151D01*
X168315528Y-98479700D01*
X168889672Y-98479700D01*
X168892918Y-98479363D01*
X168892922Y-98479363D01*
X168986835Y-98469619D01*
X168986839Y-98469618D01*
X168993693Y-98468907D01*
X169000229Y-98466726D01*
X169000231Y-98466726D01*
X169132995Y-98422432D01*
X169158707Y-98413854D01*
X169306631Y-98322316D01*
X169311804Y-98317134D01*
X169424358Y-98204384D01*
X169424362Y-98204379D01*
X169429529Y-98199203D01*
X169471777Y-98130664D01*
X169516969Y-98057350D01*
X169516970Y-98057348D01*
X169520809Y-98051120D01*
X169545383Y-97977032D01*
X169585814Y-97918672D01*
X169651379Y-97891436D01*
X169664976Y-97890700D01*
X170331844Y-97890700D01*
X170395981Y-97908245D01*
X170451949Y-97941345D01*
X170459560Y-97943556D01*
X170459562Y-97943557D01*
X170511781Y-97958728D01*
X170611719Y-97987762D01*
X170618124Y-97988266D01*
X170618129Y-97988267D01*
X170646592Y-97990507D01*
X170646600Y-97990507D01*
X170649048Y-97990700D01*
X172032052Y-97990700D01*
X172034500Y-97990507D01*
X172034508Y-97990507D01*
X172062971Y-97988267D01*
X172062976Y-97988266D01*
X172069381Y-97987762D01*
X172169319Y-97958728D01*
X172221538Y-97943557D01*
X172221540Y-97943556D01*
X172229151Y-97941345D01*
X172302824Y-97897775D01*
X172365530Y-97860691D01*
X172365533Y-97860689D01*
X172372357Y-97856653D01*
X172490003Y-97739007D01*
X172494039Y-97732183D01*
X172494041Y-97732180D01*
X172570658Y-97602627D01*
X172574695Y-97595801D01*
X172578315Y-97583343D01*
X172611612Y-97468729D01*
X172621112Y-97436031D01*
X172623516Y-97405497D01*
X172623857Y-97401158D01*
X172623857Y-97401150D01*
X172624050Y-97398702D01*
X172624050Y-96965698D01*
X172621112Y-96928369D01*
X172574695Y-96768599D01*
X172561240Y-96745849D01*
X172543780Y-96677035D01*
X172561239Y-96617570D01*
X172570198Y-96602421D01*
X172576443Y-96587990D01*
X172615489Y-96453595D01*
X172615449Y-96439494D01*
X172608180Y-96436200D01*
X172283120Y-96436200D01*
X172234275Y-96426085D01*
X172229151Y-96423055D01*
X172221543Y-96420845D01*
X172221539Y-96420843D01*
X172136828Y-96396233D01*
X172069381Y-96376638D01*
X172062976Y-96376134D01*
X172062971Y-96376133D01*
X172034508Y-96373893D01*
X172034500Y-96373893D01*
X172032052Y-96373700D01*
X170649048Y-96373700D01*
X170646600Y-96373893D01*
X170646592Y-96373893D01*
X170618129Y-96376133D01*
X170618124Y-96376134D01*
X170611719Y-96376638D01*
X170544272Y-96396233D01*
X170459561Y-96420843D01*
X170459557Y-96420845D01*
X170451949Y-96423055D01*
X170446825Y-96426085D01*
X170397980Y-96436200D01*
X170078672Y-96436200D01*
X170050150Y-96444575D01*
X170012773Y-96468596D01*
X169977274Y-96473700D01*
X169637179Y-96473700D01*
X169569058Y-96453698D01*
X169522565Y-96400042D01*
X169512461Y-96329768D01*
X169520979Y-96301176D01*
X169520809Y-96301120D01*
X169522648Y-96295575D01*
X169541387Y-96239081D01*
X169566167Y-96164369D01*
X169575574Y-96136009D01*
X169586100Y-96033272D01*
X169586100Y-95684217D01*
X169606102Y-95616096D01*
X169659758Y-95569603D01*
X169730032Y-95559499D01*
X169798352Y-95592366D01*
X169844650Y-95635842D01*
X169847493Y-95638598D01*
X169867230Y-95658335D01*
X169870427Y-95660815D01*
X169879447Y-95668518D01*
X169911679Y-95698786D01*
X169918625Y-95702605D01*
X169918628Y-95702607D01*
X169929434Y-95708548D01*
X169945953Y-95719399D01*
X169961959Y-95731814D01*
X169994397Y-95745851D01*
X169998281Y-95747532D01*
X170052855Y-95792943D01*
X170074215Y-95860650D01*
X170069237Y-95898322D01*
X170065611Y-95910804D01*
X170065651Y-95924905D01*
X170072920Y-95928200D01*
X170397980Y-95928200D01*
X170446825Y-95938315D01*
X170451949Y-95941345D01*
X170459557Y-95943555D01*
X170459561Y-95943557D01*
X170535773Y-95965698D01*
X170611719Y-95987762D01*
X170618124Y-95988266D01*
X170618129Y-95988267D01*
X170646592Y-95990507D01*
X170646600Y-95990507D01*
X170649048Y-95990700D01*
X172032052Y-95990700D01*
X172034500Y-95990507D01*
X172034508Y-95990507D01*
X172062971Y-95988267D01*
X172062976Y-95988266D01*
X172069381Y-95987762D01*
X172145327Y-95965698D01*
X172221539Y-95943557D01*
X172221543Y-95943555D01*
X172229151Y-95941345D01*
X172234275Y-95938315D01*
X172283120Y-95928200D01*
X172602428Y-95928200D01*
X172615959Y-95924227D01*
X172617094Y-95916329D01*
X172576443Y-95776410D01*
X172570198Y-95761979D01*
X172561239Y-95746830D01*
X172543780Y-95678014D01*
X172561240Y-95618552D01*
X172574695Y-95595801D01*
X172576965Y-95587990D01*
X172600277Y-95507747D01*
X172621112Y-95436031D01*
X172621624Y-95429536D01*
X172623857Y-95401158D01*
X172623857Y-95401150D01*
X172624050Y-95398702D01*
X172624050Y-94965698D01*
X172623724Y-94961556D01*
X172621617Y-94934779D01*
X172621616Y-94934774D01*
X172621112Y-94928369D01*
X172588379Y-94815700D01*
X172576907Y-94776212D01*
X172576906Y-94776210D01*
X172574695Y-94768599D01*
X172569314Y-94759500D01*
X172561530Y-94746337D01*
X172544072Y-94677521D01*
X172561530Y-94618063D01*
X172570659Y-94602626D01*
X172570660Y-94602624D01*
X172574695Y-94595801D01*
X172586528Y-94555073D01*
X172604813Y-94492132D01*
X172621112Y-94436031D01*
X172621880Y-94426284D01*
X172623857Y-94401158D01*
X172623857Y-94401150D01*
X172624050Y-94398702D01*
X172624050Y-93965698D01*
X172623322Y-93956444D01*
X172621617Y-93934779D01*
X172621616Y-93934774D01*
X172621112Y-93928369D01*
X172574695Y-93768599D01*
X172556772Y-93738293D01*
X172494041Y-93632220D01*
X172494039Y-93632217D01*
X172490003Y-93625393D01*
X172372357Y-93507747D01*
X172365533Y-93503711D01*
X172365530Y-93503709D01*
X172235977Y-93427092D01*
X172235978Y-93427092D01*
X172229151Y-93423055D01*
X172221540Y-93420844D01*
X172221538Y-93420843D01*
X172169221Y-93405644D01*
X172069381Y-93376638D01*
X172062976Y-93376134D01*
X172062971Y-93376133D01*
X172034508Y-93373893D01*
X172034500Y-93373893D01*
X172032052Y-93373700D01*
X170649048Y-93373700D01*
X170646600Y-93373893D01*
X170646592Y-93373893D01*
X170618129Y-93376133D01*
X170618124Y-93376134D01*
X170611719Y-93376638D01*
X170605543Y-93378432D01*
X170605539Y-93378433D01*
X170455013Y-93422164D01*
X170384017Y-93421961D01*
X170330766Y-93390262D01*
X169847538Y-92907034D01*
X169291662Y-92351157D01*
X169257637Y-92288847D01*
X169262702Y-92218032D01*
X169300595Y-92165930D01*
X169300581Y-92165916D01*
X169300668Y-92165829D01*
X169300668Y-92165828D01*
X169335079Y-92131358D01*
X169418308Y-92047984D01*
X169418312Y-92047979D01*
X169423479Y-92042803D01*
X169429629Y-92032826D01*
X169510919Y-91900950D01*
X169510920Y-91900948D01*
X169514759Y-91894720D01*
X169569524Y-91729609D01*
X169580050Y-91626872D01*
X169580050Y-91027728D01*
X169579713Y-91024478D01*
X169569969Y-90930565D01*
X169569968Y-90930561D01*
X169569257Y-90923707D01*
X169562973Y-90904870D01*
X169516522Y-90765641D01*
X169514204Y-90758693D01*
X169422666Y-90610769D01*
X169315409Y-90503699D01*
X169281330Y-90441418D01*
X169286333Y-90370598D01*
X169315254Y-90325509D01*
X169417913Y-90222671D01*
X169426925Y-90211260D01*
X169510462Y-90075737D01*
X169516606Y-90062559D01*
X169566865Y-89911034D01*
X169569731Y-89897668D01*
X169579222Y-89805030D01*
X169579550Y-89798615D01*
X169579550Y-89774415D01*
X169575075Y-89759176D01*
X169573685Y-89757971D01*
X169566002Y-89756300D01*
X167644651Y-89756300D01*
X167576530Y-89736298D01*
X167555633Y-89719473D01*
X167454421Y-89618437D01*
X167443010Y-89609425D01*
X167307487Y-89525888D01*
X167294309Y-89519744D01*
X167142784Y-89469485D01*
X167129418Y-89466619D01*
X167036780Y-89457128D01*
X167030365Y-89456800D01*
X167018665Y-89456800D01*
X167003426Y-89461275D01*
X167002221Y-89462665D01*
X167000550Y-89470348D01*
X167000550Y-90580300D01*
X166980548Y-90648421D01*
X166926892Y-90694914D01*
X166874550Y-90706300D01*
X165781665Y-90706300D01*
X165750224Y-90715532D01*
X165717759Y-90736396D01*
X165682260Y-90741500D01*
X163153763Y-90741500D01*
X163142579Y-90740973D01*
X163135091Y-90739299D01*
X163127168Y-90739548D01*
X163067033Y-90741438D01*
X163063075Y-90741500D01*
X163035144Y-90741500D01*
X163031229Y-90741995D01*
X163031225Y-90741995D01*
X163031167Y-90742003D01*
X163031138Y-90742006D01*
X163019296Y-90742939D01*
X162975110Y-90744327D01*
X162957744Y-90749372D01*
X162955658Y-90749978D01*
X162936306Y-90753986D01*
X162924068Y-90755532D01*
X162924066Y-90755533D01*
X162916203Y-90756526D01*
X162875086Y-90772806D01*
X162863885Y-90776641D01*
X162821406Y-90788982D01*
X162814587Y-90793015D01*
X162814582Y-90793017D01*
X162803971Y-90799293D01*
X162786221Y-90807990D01*
X162767383Y-90815448D01*
X162760967Y-90820109D01*
X162760966Y-90820110D01*
X162731625Y-90841428D01*
X162721701Y-90847947D01*
X162690460Y-90866422D01*
X162690455Y-90866426D01*
X162683637Y-90870458D01*
X162669313Y-90884782D01*
X162654281Y-90897621D01*
X162637893Y-90909528D01*
X162609712Y-90943593D01*
X162601722Y-90952373D01*
X162198886Y-91355209D01*
X162173937Y-91374563D01*
X162159742Y-91382958D01*
X162145421Y-91397279D01*
X162130388Y-91410119D01*
X162113997Y-91422028D01*
X162108946Y-91428134D01*
X162085806Y-91456105D01*
X162077816Y-91464884D01*
X160238104Y-93304595D01*
X160175792Y-93338621D01*
X160149009Y-93341500D01*
X156224487Y-93341500D01*
X156156366Y-93321498D01*
X156130851Y-93299811D01*
X156109895Y-93276537D01*
X156109893Y-93276536D01*
X156105480Y-93271634D01*
X155999075Y-93194326D01*
X155956321Y-93163263D01*
X155956320Y-93163262D01*
X155950979Y-93159382D01*
X155944951Y-93156698D01*
X155944949Y-93156697D01*
X155782546Y-93084391D01*
X155782545Y-93084391D01*
X155776515Y-93081706D01*
X155683114Y-93061853D01*
X155596171Y-93043372D01*
X155596166Y-93043372D01*
X155589714Y-93042000D01*
X155398740Y-93042000D01*
X155392288Y-93043372D01*
X155392283Y-93043372D01*
X155305340Y-93061853D01*
X155211939Y-93081706D01*
X155205909Y-93084391D01*
X155205908Y-93084391D01*
X155043505Y-93156697D01*
X155043503Y-93156698D01*
X155037475Y-93159382D01*
X155032134Y-93163262D01*
X155032133Y-93163263D01*
X154992584Y-93191997D01*
X154882974Y-93271634D01*
X154755187Y-93413556D01*
X154659700Y-93578944D01*
X154642138Y-93632995D01*
X154641000Y-93636496D01*
X154600927Y-93695102D01*
X154547365Y-93720807D01*
X154422169Y-93747418D01*
X154416139Y-93750103D01*
X154416138Y-93750103D01*
X154253735Y-93822409D01*
X154253733Y-93822410D01*
X154247705Y-93825094D01*
X154093204Y-93937346D01*
X154088783Y-93942256D01*
X154088782Y-93942257D01*
X153996610Y-94044625D01*
X153965417Y-94079268D01*
X153919978Y-94157971D01*
X153885064Y-94218444D01*
X153869930Y-94244656D01*
X153810915Y-94426284D01*
X153810225Y-94432845D01*
X153810225Y-94432847D01*
X153804702Y-94485394D01*
X153790953Y-94616212D01*
X153133000Y-94616212D01*
X153133000Y-94591234D01*
X153132663Y-94584718D01*
X153122925Y-94490868D01*
X153120032Y-94477472D01*
X153069512Y-94326047D01*
X153063347Y-94312885D01*
X152979574Y-94177508D01*
X152970540Y-94166110D01*
X152857871Y-94053637D01*
X152846460Y-94044625D01*
X152710937Y-93961088D01*
X152697759Y-93954944D01*
X152546234Y-93904685D01*
X152532868Y-93901819D01*
X152440230Y-93892328D01*
X152433815Y-93892000D01*
X152422115Y-93892000D01*
X152406876Y-93896475D01*
X152405671Y-93897865D01*
X152404000Y-93905548D01*
X152404000Y-94615385D01*
X151896000Y-94615385D01*
X151896000Y-93910115D01*
X151891525Y-93894876D01*
X151890135Y-93893671D01*
X151882452Y-93892000D01*
X151866234Y-93892000D01*
X151859718Y-93892337D01*
X151765868Y-93902075D01*
X151752472Y-93904968D01*
X151601047Y-93955488D01*
X151587885Y-93961653D01*
X151452508Y-94045426D01*
X151441110Y-94054460D01*
X151328637Y-94167129D01*
X151319625Y-94178540D01*
X151236088Y-94314063D01*
X151229944Y-94327241D01*
X151179685Y-94478766D01*
X151176819Y-94492132D01*
X151167328Y-94584770D01*
X151167000Y-94591185D01*
X151167000Y-94615385D01*
X150233500Y-94615385D01*
X150233500Y-94134500D01*
X150253502Y-94066379D01*
X150307158Y-94019886D01*
X150359500Y-94008500D01*
X150498134Y-94008500D01*
X150560316Y-94001745D01*
X150696705Y-93950615D01*
X150813261Y-93863261D01*
X150900615Y-93746705D01*
X150909168Y-93723891D01*
X150912401Y-93715269D01*
X150955043Y-93658505D01*
X151021605Y-93633806D01*
X151030382Y-93633500D01*
X152121233Y-93633500D01*
X152132416Y-93634027D01*
X152139909Y-93635702D01*
X152147835Y-93635453D01*
X152147836Y-93635453D01*
X152207986Y-93633562D01*
X152211945Y-93633500D01*
X152239856Y-93633500D01*
X152243791Y-93633003D01*
X152243856Y-93632995D01*
X152255693Y-93632062D01*
X152287951Y-93631048D01*
X152291970Y-93630922D01*
X152299889Y-93630673D01*
X152319343Y-93625021D01*
X152338700Y-93621013D01*
X152350930Y-93619468D01*
X152350931Y-93619468D01*
X152358797Y-93618474D01*
X152366168Y-93615555D01*
X152366170Y-93615555D01*
X152399912Y-93602196D01*
X152411142Y-93598351D01*
X152445983Y-93588229D01*
X152445984Y-93588229D01*
X152453593Y-93586018D01*
X152460412Y-93581985D01*
X152460417Y-93581983D01*
X152471028Y-93575707D01*
X152488776Y-93567012D01*
X152507617Y-93559552D01*
X152515620Y-93553738D01*
X152543387Y-93533564D01*
X152553307Y-93527048D01*
X152584535Y-93508580D01*
X152584538Y-93508578D01*
X152591362Y-93504542D01*
X152605683Y-93490221D01*
X152620717Y-93477380D01*
X152637107Y-93465472D01*
X152665298Y-93431395D01*
X152673288Y-93422616D01*
X154945904Y-91150000D01*
X157266807Y-91150000D01*
X157285542Y-91364142D01*
X157286966Y-91369455D01*
X157286966Y-91369457D01*
X157322488Y-91502024D01*
X157341178Y-91571777D01*
X157343500Y-91576757D01*
X157343501Y-91576759D01*
X157426792Y-91755375D01*
X157432024Y-91766596D01*
X157555319Y-91942681D01*
X157707319Y-92094681D01*
X157883403Y-92217976D01*
X157888381Y-92220297D01*
X157888384Y-92220299D01*
X158073241Y-92306499D01*
X158078223Y-92308822D01*
X158083531Y-92310244D01*
X158083533Y-92310245D01*
X158280543Y-92363034D01*
X158280545Y-92363034D01*
X158285858Y-92364458D01*
X158500000Y-92383193D01*
X158714142Y-92364458D01*
X158719455Y-92363034D01*
X158719457Y-92363034D01*
X158916467Y-92310245D01*
X158916469Y-92310244D01*
X158921777Y-92308822D01*
X158926759Y-92306499D01*
X159111616Y-92220299D01*
X159111619Y-92220297D01*
X159116597Y-92217976D01*
X159292681Y-92094681D01*
X159444681Y-91942681D01*
X159567976Y-91766596D01*
X159573209Y-91755375D01*
X159656499Y-91576759D01*
X159656500Y-91576757D01*
X159658822Y-91571777D01*
X159677513Y-91502024D01*
X159713034Y-91369457D01*
X159713034Y-91369455D01*
X159714458Y-91364142D01*
X159733193Y-91150000D01*
X159714458Y-90935858D01*
X159690092Y-90844924D01*
X159660245Y-90733533D01*
X159660244Y-90733531D01*
X159658822Y-90728223D01*
X159606826Y-90616718D01*
X159570299Y-90538385D01*
X159570297Y-90538382D01*
X159567976Y-90533404D01*
X159444681Y-90357319D01*
X159292681Y-90205319D01*
X159256786Y-90180185D01*
X165763550Y-90180185D01*
X165768025Y-90195424D01*
X165769415Y-90196629D01*
X165777098Y-90198300D01*
X166474435Y-90198300D01*
X166489674Y-90193825D01*
X166490879Y-90192435D01*
X166492550Y-90184752D01*
X166492550Y-89474915D01*
X166488075Y-89459676D01*
X166486685Y-89458471D01*
X166479002Y-89456800D01*
X166462784Y-89456800D01*
X166456268Y-89457137D01*
X166362418Y-89466875D01*
X166349022Y-89469768D01*
X166197597Y-89520288D01*
X166184435Y-89526453D01*
X166049058Y-89610226D01*
X166037660Y-89619260D01*
X165925187Y-89731929D01*
X165916175Y-89743340D01*
X165832638Y-89878863D01*
X165826494Y-89892041D01*
X165776235Y-90043566D01*
X165773369Y-90056932D01*
X165763878Y-90149570D01*
X165763550Y-90155985D01*
X165763550Y-90180185D01*
X159256786Y-90180185D01*
X159116597Y-90082024D01*
X159111619Y-90079703D01*
X159111616Y-90079701D01*
X158926759Y-89993501D01*
X158926758Y-89993500D01*
X158921777Y-89991178D01*
X158916469Y-89989756D01*
X158916467Y-89989755D01*
X158719457Y-89936966D01*
X158719455Y-89936966D01*
X158714142Y-89935542D01*
X158500000Y-89916807D01*
X158285858Y-89935542D01*
X158280545Y-89936966D01*
X158280543Y-89936966D01*
X158083533Y-89989755D01*
X158083531Y-89989756D01*
X158078223Y-89991178D01*
X158073243Y-89993500D01*
X158073241Y-89993501D01*
X157888385Y-90079701D01*
X157888382Y-90079703D01*
X157883404Y-90082024D01*
X157707319Y-90205319D01*
X157555319Y-90357319D01*
X157432024Y-90533404D01*
X157429703Y-90538382D01*
X157429701Y-90538385D01*
X157393174Y-90616718D01*
X157341178Y-90728223D01*
X157339756Y-90733531D01*
X157339755Y-90733533D01*
X157309908Y-90844924D01*
X157285542Y-90935858D01*
X157266807Y-91150000D01*
X154945904Y-91150000D01*
X156457283Y-89638621D01*
X162915933Y-89638621D01*
X162925227Y-89650635D01*
X162959146Y-89674385D01*
X162968641Y-89679868D01*
X163153413Y-89766028D01*
X163163705Y-89769774D01*
X163360632Y-89822540D01*
X163371425Y-89824443D01*
X163574525Y-89842212D01*
X163585475Y-89842212D01*
X163788575Y-89824443D01*
X163799368Y-89822540D01*
X163996295Y-89769774D01*
X164006587Y-89766028D01*
X164191359Y-89679868D01*
X164200854Y-89674385D01*
X164235607Y-89650051D01*
X164243983Y-89639572D01*
X164236916Y-89626127D01*
X163592811Y-88982021D01*
X163578868Y-88974408D01*
X163577034Y-88974539D01*
X163570420Y-88978790D01*
X162922360Y-89626851D01*
X162915933Y-89638621D01*
X156457283Y-89638621D01*
X157480429Y-88615475D01*
X162347788Y-88615475D01*
X162365557Y-88818575D01*
X162367460Y-88829368D01*
X162420226Y-89026295D01*
X162423972Y-89036587D01*
X162510135Y-89221364D01*
X162515613Y-89230850D01*
X162539949Y-89265607D01*
X162550428Y-89273983D01*
X162563872Y-89266917D01*
X163207979Y-88622811D01*
X163214356Y-88611132D01*
X163944408Y-88611132D01*
X163944539Y-88612966D01*
X163948790Y-88619580D01*
X164596851Y-89267640D01*
X164608621Y-89274067D01*
X164620635Y-89264772D01*
X164644387Y-89230850D01*
X164644771Y-89230185D01*
X167613550Y-89230185D01*
X167618025Y-89245424D01*
X167619415Y-89246629D01*
X167627098Y-89248300D01*
X168324435Y-89248300D01*
X168339674Y-89243825D01*
X168340879Y-89242435D01*
X168342550Y-89234752D01*
X168342550Y-89230185D01*
X168850550Y-89230185D01*
X168855025Y-89245424D01*
X168856415Y-89246629D01*
X168864098Y-89248300D01*
X169561435Y-89248300D01*
X169576674Y-89243825D01*
X169577879Y-89242435D01*
X169579550Y-89234752D01*
X169579550Y-89206034D01*
X169579213Y-89199518D01*
X169569475Y-89105668D01*
X169566582Y-89092272D01*
X169516062Y-88940847D01*
X169509897Y-88927685D01*
X169426124Y-88792308D01*
X169417090Y-88780910D01*
X169304421Y-88668437D01*
X169293010Y-88659425D01*
X169157487Y-88575888D01*
X169144309Y-88569744D01*
X168992784Y-88519485D01*
X168979418Y-88516619D01*
X168886780Y-88507128D01*
X168880365Y-88506800D01*
X168868665Y-88506800D01*
X168853426Y-88511275D01*
X168852221Y-88512665D01*
X168850550Y-88520348D01*
X168850550Y-89230185D01*
X168342550Y-89230185D01*
X168342550Y-88524915D01*
X168338075Y-88509676D01*
X168336685Y-88508471D01*
X168329002Y-88506800D01*
X168312784Y-88506800D01*
X168306268Y-88507137D01*
X168212418Y-88516875D01*
X168199022Y-88519768D01*
X168047597Y-88570288D01*
X168034435Y-88576453D01*
X167899058Y-88660226D01*
X167887660Y-88669260D01*
X167775187Y-88781929D01*
X167766175Y-88793340D01*
X167682638Y-88928863D01*
X167676494Y-88942041D01*
X167626235Y-89093566D01*
X167623369Y-89106932D01*
X167613878Y-89199570D01*
X167613550Y-89205985D01*
X167613550Y-89230185D01*
X164644771Y-89230185D01*
X164649865Y-89221364D01*
X164736028Y-89036587D01*
X164739774Y-89026295D01*
X164792540Y-88829368D01*
X164794443Y-88818575D01*
X164812212Y-88615475D01*
X164812212Y-88604525D01*
X164794443Y-88401425D01*
X164792540Y-88390632D01*
X164739774Y-88193705D01*
X164736028Y-88183413D01*
X164649865Y-87998636D01*
X164644387Y-87989150D01*
X164620051Y-87954393D01*
X164609572Y-87946017D01*
X164596128Y-87953083D01*
X163952021Y-88597189D01*
X163944408Y-88611132D01*
X163214356Y-88611132D01*
X163215592Y-88608868D01*
X163215461Y-88607034D01*
X163211210Y-88600420D01*
X162563149Y-87952360D01*
X162551379Y-87945933D01*
X162539365Y-87955228D01*
X162515613Y-87989150D01*
X162510135Y-87998636D01*
X162423972Y-88183413D01*
X162420226Y-88193705D01*
X162367460Y-88390632D01*
X162365557Y-88401425D01*
X162347788Y-88604525D01*
X162347788Y-88615475D01*
X157480429Y-88615475D01*
X158500499Y-87595405D01*
X158562811Y-87561379D01*
X158589594Y-87558500D01*
X162835520Y-87558500D01*
X162903641Y-87578502D01*
X162924616Y-87595405D01*
X163567189Y-88237979D01*
X163581132Y-88245592D01*
X163582966Y-88245461D01*
X163589580Y-88241210D01*
X164237640Y-87593149D01*
X164244067Y-87581379D01*
X164234773Y-87569365D01*
X164222731Y-87560933D01*
X164178402Y-87505475D01*
X164171094Y-87434856D01*
X164197919Y-87377402D01*
X164202824Y-87371474D01*
X164215300Y-87356393D01*
X164223288Y-87347616D01*
X166256356Y-85314548D01*
X166318668Y-85280522D01*
X166389483Y-85285587D01*
X166425933Y-85306696D01*
X166498126Y-85366632D01*
X166691000Y-85479338D01*
X166695825Y-85481180D01*
X166695826Y-85481181D01*
X166733452Y-85495549D01*
X166899692Y-85559030D01*
X166904760Y-85560061D01*
X166904763Y-85560062D01*
X166997326Y-85578894D01*
X167118597Y-85603567D01*
X167123772Y-85603757D01*
X167123774Y-85603757D01*
X167336673Y-85611564D01*
X167336677Y-85611564D01*
X167341837Y-85611753D01*
X167346957Y-85611097D01*
X167346959Y-85611097D01*
X167558288Y-85584025D01*
X167558289Y-85584025D01*
X167563416Y-85583368D01*
X167568366Y-85581883D01*
X167772429Y-85520661D01*
X167772434Y-85520659D01*
X167777384Y-85519174D01*
X167977994Y-85420896D01*
X168159860Y-85291173D01*
X168163674Y-85287373D01*
X168275186Y-85176249D01*
X168318096Y-85133489D01*
X168448453Y-84952077D01*
X168449776Y-84953028D01*
X168496645Y-84909857D01*
X168566580Y-84897625D01*
X168632026Y-84925144D01*
X168659875Y-84956994D01*
X168719987Y-85055088D01*
X168866250Y-85223938D01*
X169038126Y-85366632D01*
X169231000Y-85479338D01*
X169235825Y-85481180D01*
X169235826Y-85481181D01*
X169273452Y-85495549D01*
X169439692Y-85559030D01*
X169444760Y-85560061D01*
X169444763Y-85560062D01*
X169537326Y-85578894D01*
X169658597Y-85603567D01*
X169663772Y-85603757D01*
X169663774Y-85603757D01*
X169876673Y-85611564D01*
X169876677Y-85611564D01*
X169881837Y-85611753D01*
X169886957Y-85611097D01*
X169886959Y-85611097D01*
X170098288Y-85584025D01*
X170098289Y-85584025D01*
X170103416Y-85583368D01*
X170108366Y-85581883D01*
X170312429Y-85520661D01*
X170312434Y-85520659D01*
X170317384Y-85519174D01*
X170517994Y-85420896D01*
X170699860Y-85291173D01*
X170703674Y-85287373D01*
X170815186Y-85176249D01*
X170858096Y-85133489D01*
X170988453Y-84952077D01*
X170989640Y-84952930D01*
X171036960Y-84909362D01*
X171106897Y-84897145D01*
X171172338Y-84924678D01*
X171200166Y-84956511D01*
X171257694Y-85050388D01*
X171263777Y-85058699D01*
X171403213Y-85219667D01*
X171410580Y-85226883D01*
X171574434Y-85362916D01*
X171582881Y-85368831D01*
X171766756Y-85476279D01*
X171776042Y-85480729D01*
X171975001Y-85556703D01*
X171984899Y-85559579D01*
X172088250Y-85580606D01*
X172102299Y-85579410D01*
X172106000Y-85569065D01*
X172106000Y-84122000D01*
X172126002Y-84053879D01*
X172179658Y-84007386D01*
X172232000Y-83996000D01*
X172488000Y-83996000D01*
X172556121Y-84016002D01*
G37*
%TD.AperFunction*%
%TA.AperFunction,Conductor*%
G36*
X165899217Y-92976602D02*
G01*
X165919392Y-92994873D01*
X165920433Y-92993830D01*
X165920434Y-92993831D01*
X165927462Y-93000846D01*
X165927689Y-93001073D01*
X165929113Y-93003676D01*
X165929841Y-93004335D01*
X165930162Y-93004740D01*
X165929837Y-93004998D01*
X165961769Y-93063354D01*
X165956768Y-93134175D01*
X165927842Y-93179270D01*
X165925186Y-93181931D01*
X165916175Y-93193340D01*
X165832638Y-93328863D01*
X165826494Y-93342041D01*
X165776235Y-93493566D01*
X165773369Y-93506932D01*
X165763878Y-93599570D01*
X165763550Y-93605985D01*
X165763550Y-93630185D01*
X165768025Y-93645424D01*
X165769415Y-93646629D01*
X165777098Y-93648300D01*
X167711435Y-93648300D01*
X167752381Y-93636277D01*
X167823377Y-93636277D01*
X167876972Y-93668076D01*
X168656502Y-94447607D01*
X168690526Y-94509917D01*
X168685461Y-94580733D01*
X168642914Y-94637568D01*
X168576394Y-94662379D01*
X168567405Y-94662700D01*
X168315528Y-94662700D01*
X168312282Y-94663037D01*
X168312278Y-94663037D01*
X168218365Y-94672781D01*
X168218361Y-94672782D01*
X168211507Y-94673493D01*
X168204971Y-94675674D01*
X168204969Y-94675674D01*
X168110463Y-94707204D01*
X168046493Y-94728546D01*
X167898569Y-94820084D01*
X167893396Y-94825266D01*
X167780842Y-94938016D01*
X167780838Y-94938021D01*
X167775671Y-94943197D01*
X167771829Y-94949429D01*
X167771828Y-94949431D01*
X167756122Y-94974911D01*
X167703351Y-95022405D01*
X167633279Y-95033829D01*
X167568155Y-95005556D01*
X167559845Y-94997970D01*
X167504976Y-94943197D01*
X167465409Y-94903699D01*
X167431330Y-94841419D01*
X167436333Y-94770598D01*
X167465254Y-94725509D01*
X167567913Y-94622671D01*
X167576925Y-94611260D01*
X167660462Y-94475737D01*
X167666606Y-94462559D01*
X167716865Y-94311034D01*
X167719731Y-94297668D01*
X167729222Y-94205030D01*
X167729550Y-94198615D01*
X167729550Y-94174415D01*
X167725075Y-94159176D01*
X167723685Y-94157971D01*
X167716002Y-94156300D01*
X165781665Y-94156300D01*
X165766426Y-94160775D01*
X165765221Y-94162165D01*
X165763550Y-94169848D01*
X165763550Y-94198566D01*
X165763887Y-94205082D01*
X165773625Y-94298932D01*
X165776518Y-94312328D01*
X165827038Y-94463753D01*
X165833203Y-94476915D01*
X165916976Y-94612292D01*
X165926010Y-94623690D01*
X166027690Y-94725193D01*
X166061769Y-94787476D01*
X166056766Y-94858296D01*
X166027846Y-94903383D01*
X165919621Y-95011797D01*
X165915781Y-95018027D01*
X165915780Y-95018028D01*
X165838641Y-95143171D01*
X165828341Y-95159880D01*
X165773576Y-95324991D01*
X165772876Y-95331827D01*
X165772875Y-95331830D01*
X165769873Y-95361137D01*
X165763050Y-95427728D01*
X165763050Y-95585123D01*
X165743048Y-95653244D01*
X165689392Y-95699737D01*
X165619118Y-95709841D01*
X165554538Y-95680347D01*
X165547955Y-95674218D01*
X164529211Y-94655474D01*
X164495185Y-94593162D01*
X164500250Y-94522347D01*
X164521515Y-94485847D01*
X164524681Y-94482681D01*
X164647976Y-94306596D01*
X164652140Y-94297668D01*
X164736499Y-94116759D01*
X164736500Y-94116757D01*
X164738822Y-94111777D01*
X164750987Y-94066379D01*
X164793034Y-93909457D01*
X164793034Y-93909455D01*
X164794458Y-93904142D01*
X164813193Y-93690000D01*
X164794458Y-93475858D01*
X164793034Y-93470543D01*
X164740245Y-93273533D01*
X164740244Y-93273531D01*
X164738822Y-93268223D01*
X164677095Y-93135849D01*
X164666434Y-93065659D01*
X164695414Y-93000846D01*
X164754833Y-92961989D01*
X164791290Y-92956600D01*
X165831096Y-92956600D01*
X165899217Y-92976602D01*
G37*
%TD.AperFunction*%
%TA.AperFunction,Conductor*%
G36*
X137528788Y-93975163D02*
G01*
X137560613Y-94038627D01*
X137553074Y-94109222D01*
X137545750Y-94124087D01*
X137498988Y-94205082D01*
X137491273Y-94218444D01*
X137432258Y-94400072D01*
X137431568Y-94406633D01*
X137431568Y-94406635D01*
X137418650Y-94529542D01*
X137412296Y-94590000D01*
X137412986Y-94596565D01*
X137426858Y-94728546D01*
X137432258Y-94779928D01*
X137491273Y-94961556D01*
X137494576Y-94967278D01*
X137494577Y-94967279D01*
X137508099Y-94990700D01*
X137586760Y-95126944D01*
X137591178Y-95131851D01*
X137591179Y-95131852D01*
X137707481Y-95261018D01*
X137714547Y-95268866D01*
X137772129Y-95310702D01*
X137841547Y-95361137D01*
X137869048Y-95381118D01*
X137875076Y-95383802D01*
X137875078Y-95383803D01*
X138037481Y-95456109D01*
X138043512Y-95458794D01*
X138136913Y-95478647D01*
X138223856Y-95497128D01*
X138223861Y-95497128D01*
X138230313Y-95498500D01*
X138421287Y-95498500D01*
X138427739Y-95497128D01*
X138427744Y-95497128D01*
X138514687Y-95478647D01*
X138608088Y-95458794D01*
X138614119Y-95456109D01*
X138776522Y-95383803D01*
X138776524Y-95383802D01*
X138782552Y-95381118D01*
X138791663Y-95374499D01*
X138869425Y-95318001D01*
X138936293Y-95294142D01*
X139005444Y-95310223D01*
X139054925Y-95361137D01*
X139069098Y-95410057D01*
X139070630Y-95429536D01*
X139072930Y-95442131D01*
X139115307Y-95587990D01*
X139121552Y-95602421D01*
X139130511Y-95617570D01*
X139147970Y-95686386D01*
X139130510Y-95745848D01*
X139117055Y-95768599D01*
X139114844Y-95776210D01*
X139114843Y-95776212D01*
X139102000Y-95820420D01*
X139070638Y-95928369D01*
X139070134Y-95934774D01*
X139070133Y-95934779D01*
X139067893Y-95963242D01*
X139067700Y-95965698D01*
X139067700Y-96398702D01*
X139067893Y-96401150D01*
X139067893Y-96401158D01*
X139069836Y-96425838D01*
X139070638Y-96436031D01*
X139091473Y-96507747D01*
X139114786Y-96587990D01*
X139117055Y-96595801D01*
X139121090Y-96602624D01*
X139121091Y-96602626D01*
X139130220Y-96618063D01*
X139147678Y-96686879D01*
X139130220Y-96746337D01*
X139121091Y-96761774D01*
X139117055Y-96768599D01*
X139070638Y-96928369D01*
X139067700Y-96965698D01*
X139067700Y-97398702D01*
X139067893Y-97401150D01*
X139067893Y-97401158D01*
X139068235Y-97405497D01*
X139070638Y-97436031D01*
X139080138Y-97468729D01*
X139113436Y-97583343D01*
X139117055Y-97595801D01*
X139121092Y-97602627D01*
X139197709Y-97732180D01*
X139197711Y-97732183D01*
X139201747Y-97739007D01*
X139319393Y-97856653D01*
X139326217Y-97860689D01*
X139326220Y-97860691D01*
X139388926Y-97897775D01*
X139462599Y-97941345D01*
X139470210Y-97943556D01*
X139470212Y-97943557D01*
X139522431Y-97958728D01*
X139622369Y-97987762D01*
X139628774Y-97988266D01*
X139628779Y-97988267D01*
X139657242Y-97990507D01*
X139657250Y-97990507D01*
X139659698Y-97990700D01*
X141042702Y-97990700D01*
X141045150Y-97990507D01*
X141045158Y-97990507D01*
X141073621Y-97988267D01*
X141073626Y-97988266D01*
X141080031Y-97987762D01*
X141179969Y-97958728D01*
X141232188Y-97943557D01*
X141232190Y-97943556D01*
X141239801Y-97941345D01*
X141313474Y-97897775D01*
X141376180Y-97860691D01*
X141376183Y-97860689D01*
X141383007Y-97856653D01*
X141388616Y-97851044D01*
X141394875Y-97846189D01*
X141396044Y-97847696D01*
X141449367Y-97818579D01*
X141476150Y-97815700D01*
X141700033Y-97815700D01*
X141711216Y-97816227D01*
X141718709Y-97817902D01*
X141726635Y-97817653D01*
X141726636Y-97817653D01*
X141786786Y-97815762D01*
X141790745Y-97815700D01*
X141818656Y-97815700D01*
X141822599Y-97815202D01*
X141822656Y-97815195D01*
X141834493Y-97814262D01*
X141866751Y-97813248D01*
X141870770Y-97813122D01*
X141878689Y-97812873D01*
X141898143Y-97807221D01*
X141917500Y-97803213D01*
X141929730Y-97801668D01*
X141929731Y-97801668D01*
X141937597Y-97800674D01*
X141944968Y-97797755D01*
X141944970Y-97797755D01*
X141978712Y-97784396D01*
X141989942Y-97780551D01*
X142024783Y-97770429D01*
X142024784Y-97770429D01*
X142032393Y-97768218D01*
X142039212Y-97764185D01*
X142039217Y-97764183D01*
X142049828Y-97757907D01*
X142067576Y-97749212D01*
X142086417Y-97741752D01*
X142092829Y-97737093D01*
X142096608Y-97735016D01*
X142165940Y-97719729D01*
X142232530Y-97744353D01*
X142275236Y-97801068D01*
X142280500Y-97871869D01*
X142271919Y-97897775D01*
X142257081Y-97930266D01*
X142236271Y-98075000D01*
X142236271Y-99225000D01*
X142238707Y-99255456D01*
X142224200Y-99324953D01*
X142174422Y-99375576D01*
X142113108Y-99391500D01*
X141540168Y-99391500D01*
X141504792Y-99385898D01*
X141503688Y-99385406D01*
X141497229Y-99384033D01*
X141323344Y-99347072D01*
X141323339Y-99347072D01*
X141316887Y-99345700D01*
X141125913Y-99345700D01*
X141119461Y-99347072D01*
X141119456Y-99347072D01*
X141042759Y-99363375D01*
X140939112Y-99385406D01*
X140933082Y-99388091D01*
X140933081Y-99388091D01*
X140770678Y-99460397D01*
X140770676Y-99460398D01*
X140764648Y-99463082D01*
X140610147Y-99575334D01*
X140482360Y-99717256D01*
X140386873Y-99882644D01*
X140327858Y-100064272D01*
X140307896Y-100254200D01*
X140327858Y-100444128D01*
X140386873Y-100625756D01*
X140482360Y-100791144D01*
X140495910Y-100806193D01*
X140526625Y-100870199D01*
X140517860Y-100940653D01*
X140472396Y-100995183D01*
X140402271Y-101016500D01*
X135734500Y-101016500D01*
X135666379Y-100996498D01*
X135619886Y-100942842D01*
X135608500Y-100890500D01*
X135608500Y-99713128D01*
X135628502Y-99645007D01*
X135682158Y-99598514D01*
X135747342Y-99587784D01*
X135775800Y-99590700D01*
X137176600Y-99590700D01*
X137179846Y-99590363D01*
X137179850Y-99590363D01*
X137275508Y-99580438D01*
X137275512Y-99580437D01*
X137282366Y-99579726D01*
X137288902Y-99577545D01*
X137288904Y-99577545D01*
X137421006Y-99533472D01*
X137450146Y-99523750D01*
X137600548Y-99430678D01*
X137725505Y-99305503D01*
X137756356Y-99255454D01*
X137814475Y-99161168D01*
X137814476Y-99161166D01*
X137818315Y-99154938D01*
X137873997Y-98987061D01*
X137884700Y-98882600D01*
X137884700Y-98081800D01*
X137884014Y-98075190D01*
X137874438Y-97982892D01*
X137874437Y-97982888D01*
X137873726Y-97976034D01*
X137861434Y-97939189D01*
X137820068Y-97815202D01*
X137817750Y-97808254D01*
X137724678Y-97657852D01*
X137674435Y-97607696D01*
X137633167Y-97566500D01*
X137599503Y-97532895D01*
X137593272Y-97529054D01*
X137455168Y-97443925D01*
X137455166Y-97443924D01*
X137448938Y-97440085D01*
X137344658Y-97405497D01*
X137287589Y-97386568D01*
X137287587Y-97386568D01*
X137281061Y-97384403D01*
X137274225Y-97383703D01*
X137274222Y-97383702D01*
X137222856Y-97378439D01*
X137157129Y-97351597D01*
X137116348Y-97293482D01*
X137109700Y-97253095D01*
X137109700Y-94111244D01*
X137129702Y-94043123D01*
X137183358Y-93996630D01*
X137222696Y-93985917D01*
X137234778Y-93984664D01*
X137275507Y-93980438D01*
X137275510Y-93980437D01*
X137282366Y-93979726D01*
X137288902Y-93977545D01*
X137288904Y-93977545D01*
X137396755Y-93941563D01*
X137467704Y-93938979D01*
X137528788Y-93975163D01*
G37*
%TD.AperFunction*%
%TA.AperFunction,Conductor*%
G36*
X147896121Y-94653502D02*
G01*
X147942614Y-94707158D01*
X147954000Y-94759500D01*
X147954000Y-95015500D01*
X147933998Y-95083621D01*
X147880342Y-95130114D01*
X147828000Y-95141500D01*
X146735115Y-95141500D01*
X146719876Y-95145975D01*
X146718671Y-95147365D01*
X146717000Y-95155048D01*
X146717000Y-95183766D01*
X146717337Y-95190282D01*
X146727075Y-95284132D01*
X146729968Y-95297528D01*
X146780488Y-95448953D01*
X146786653Y-95462115D01*
X146870426Y-95597492D01*
X146879460Y-95608890D01*
X146981140Y-95710393D01*
X147015219Y-95772676D01*
X147010216Y-95843496D01*
X146981296Y-95888583D01*
X146873071Y-95996997D01*
X146869231Y-96003227D01*
X146869230Y-96003228D01*
X146786364Y-96137662D01*
X146781791Y-96145080D01*
X146727026Y-96310191D01*
X146726326Y-96317027D01*
X146726325Y-96317030D01*
X146725020Y-96329768D01*
X146716500Y-96412928D01*
X146716500Y-97012072D01*
X146716837Y-97015318D01*
X146716837Y-97015322D01*
X146726116Y-97104747D01*
X146727293Y-97116093D01*
X146729474Y-97122629D01*
X146729474Y-97122631D01*
X146735044Y-97139327D01*
X146782346Y-97281107D01*
X146858320Y-97403879D01*
X146859321Y-97405497D01*
X146878159Y-97473949D01*
X146856998Y-97541719D01*
X146802557Y-97587290D01*
X146787679Y-97592695D01*
X146767046Y-97598753D01*
X146745235Y-97605157D01*
X146745233Y-97605158D01*
X146736589Y-97607696D01*
X146729010Y-97612567D01*
X146621159Y-97681878D01*
X146621156Y-97681880D01*
X146613579Y-97686750D01*
X146607678Y-97693560D01*
X146523726Y-97790445D01*
X146523724Y-97790448D01*
X146517824Y-97797257D01*
X146457081Y-97930266D01*
X146436271Y-98075000D01*
X146436271Y-99225000D01*
X146438707Y-99255456D01*
X146424200Y-99324953D01*
X146374422Y-99375576D01*
X146313108Y-99391500D01*
X144885201Y-99391500D01*
X144817080Y-99371498D01*
X144770587Y-99317842D01*
X144760484Y-99247567D01*
X144763088Y-99229460D01*
X144763088Y-99229456D01*
X144763729Y-99225000D01*
X144763729Y-98075000D01*
X144759599Y-98017261D01*
X144758982Y-98008627D01*
X144758982Y-98008626D01*
X144758500Y-98001889D01*
X144725852Y-97890700D01*
X144719843Y-97870235D01*
X144719842Y-97870233D01*
X144717304Y-97861589D01*
X144689068Y-97817653D01*
X144643122Y-97746159D01*
X144643120Y-97746156D01*
X144638250Y-97738579D01*
X144616496Y-97719729D01*
X144534555Y-97648726D01*
X144534552Y-97648724D01*
X144527743Y-97642824D01*
X144404660Y-97586614D01*
X144351004Y-97540121D01*
X144331002Y-97472000D01*
X144351004Y-97403879D01*
X144404660Y-97357386D01*
X144457002Y-97346000D01*
X144938333Y-97346000D01*
X144949516Y-97346527D01*
X144957009Y-97348202D01*
X144964935Y-97347953D01*
X144964936Y-97347953D01*
X145025086Y-97346062D01*
X145029045Y-97346000D01*
X145056956Y-97346000D01*
X145060891Y-97345503D01*
X145060956Y-97345495D01*
X145072793Y-97344562D01*
X145105051Y-97343548D01*
X145109070Y-97343422D01*
X145116989Y-97343173D01*
X145136443Y-97337521D01*
X145155800Y-97333513D01*
X145168030Y-97331968D01*
X145168031Y-97331968D01*
X145175897Y-97330974D01*
X145183268Y-97328055D01*
X145183270Y-97328055D01*
X145217012Y-97314696D01*
X145228242Y-97310851D01*
X145263083Y-97300729D01*
X145263084Y-97300729D01*
X145270693Y-97298518D01*
X145277512Y-97294485D01*
X145277517Y-97294483D01*
X145288128Y-97288207D01*
X145305876Y-97279512D01*
X145324717Y-97272052D01*
X145350810Y-97253095D01*
X145360487Y-97246064D01*
X145370407Y-97239548D01*
X145401635Y-97221080D01*
X145401638Y-97221078D01*
X145408462Y-97217042D01*
X145422783Y-97202721D01*
X145437817Y-97189880D01*
X145439531Y-97188635D01*
X145454207Y-97177972D01*
X145482398Y-97143895D01*
X145490388Y-97135116D01*
X146017247Y-96608257D01*
X146025537Y-96600713D01*
X146032018Y-96596600D01*
X146078659Y-96546932D01*
X146081413Y-96544091D01*
X146101134Y-96524370D01*
X146103612Y-96521175D01*
X146111318Y-96512153D01*
X146113775Y-96509537D01*
X146141586Y-96479921D01*
X146151346Y-96462168D01*
X146162199Y-96445645D01*
X146169753Y-96435906D01*
X146174613Y-96429641D01*
X146192176Y-96389057D01*
X146197383Y-96378427D01*
X146218695Y-96339660D01*
X146220666Y-96331983D01*
X146220668Y-96331978D01*
X146223732Y-96320042D01*
X146230138Y-96301330D01*
X146235034Y-96290017D01*
X146238181Y-96282745D01*
X146245097Y-96239081D01*
X146247504Y-96227460D01*
X146256528Y-96192311D01*
X146256528Y-96192310D01*
X146258500Y-96184630D01*
X146258500Y-96164369D01*
X146260051Y-96144658D01*
X146261979Y-96132485D01*
X146263219Y-96124657D01*
X146259059Y-96080646D01*
X146258500Y-96068789D01*
X146258500Y-94914289D01*
X146278502Y-94846168D01*
X146295405Y-94825194D01*
X146425194Y-94695405D01*
X146487506Y-94661379D01*
X146514289Y-94658500D01*
X147296233Y-94658500D01*
X147307416Y-94659027D01*
X147314909Y-94660702D01*
X147322835Y-94660453D01*
X147322836Y-94660453D01*
X147382986Y-94658562D01*
X147386945Y-94658500D01*
X147414856Y-94658500D01*
X147418791Y-94658003D01*
X147418856Y-94657995D01*
X147430693Y-94657062D01*
X147462951Y-94656048D01*
X147466970Y-94655922D01*
X147474889Y-94655673D01*
X147494343Y-94650021D01*
X147513700Y-94646013D01*
X147525930Y-94644468D01*
X147525931Y-94644468D01*
X147533797Y-94643474D01*
X147541167Y-94640556D01*
X147548848Y-94638584D01*
X147549199Y-94639953D01*
X147583025Y-94633500D01*
X147828000Y-94633500D01*
X147896121Y-94653502D01*
G37*
%TD.AperFunction*%
%TA.AperFunction,Conductor*%
G36*
X144763616Y-94459027D02*
G01*
X144771109Y-94460702D01*
X144779035Y-94460453D01*
X144779036Y-94460453D01*
X144839186Y-94458562D01*
X144843145Y-94458500D01*
X144861559Y-94458500D01*
X144929680Y-94478502D01*
X144976173Y-94532158D01*
X144985742Y-94579736D01*
X144986780Y-94579638D01*
X144990941Y-94623656D01*
X144991500Y-94635514D01*
X144991500Y-95790005D01*
X144971498Y-95858126D01*
X144954595Y-95879100D01*
X144791600Y-96042095D01*
X144729288Y-96076121D01*
X144702505Y-96079000D01*
X144447699Y-96079000D01*
X144379578Y-96058998D01*
X144340554Y-96019301D01*
X144340440Y-96019116D01*
X144326116Y-95995969D01*
X144218859Y-95888899D01*
X144184780Y-95826618D01*
X144189783Y-95755798D01*
X144218704Y-95710709D01*
X144321363Y-95607871D01*
X144330375Y-95596460D01*
X144413912Y-95460937D01*
X144420056Y-95447759D01*
X144470315Y-95296234D01*
X144473181Y-95282868D01*
X144482672Y-95190230D01*
X144483000Y-95183815D01*
X144483000Y-95159615D01*
X144478525Y-95144376D01*
X144477135Y-95143171D01*
X144469452Y-95141500D01*
X143396100Y-95141500D01*
X143327979Y-95121498D01*
X143281486Y-95067842D01*
X143270100Y-95015500D01*
X143270100Y-94759500D01*
X143290102Y-94691379D01*
X143343758Y-94644886D01*
X143396100Y-94633500D01*
X144464885Y-94633500D01*
X144480124Y-94629025D01*
X144481329Y-94627635D01*
X144483000Y-94619952D01*
X144483000Y-94591208D01*
X144482989Y-94590995D01*
X144483000Y-94590949D01*
X144483000Y-94587968D01*
X144483711Y-94587968D01*
X144499453Y-94521934D01*
X144550640Y-94472737D01*
X144608821Y-94458500D01*
X144752433Y-94458500D01*
X144763616Y-94459027D01*
G37*
%TD.AperFunction*%
%TA.AperFunction,Conductor*%
G36*
X151389509Y-87128502D02*
G01*
X151436002Y-87182158D01*
X151446106Y-87252432D01*
X151430507Y-87297500D01*
X151354273Y-87429542D01*
X151340473Y-87453444D01*
X151281458Y-87635072D01*
X151280768Y-87641633D01*
X151280768Y-87641635D01*
X151273638Y-87709476D01*
X151261496Y-87825000D01*
X151262186Y-87831565D01*
X151279746Y-87998636D01*
X151281458Y-88014928D01*
X151340473Y-88196556D01*
X151343777Y-88202279D01*
X151346461Y-88208307D01*
X151343820Y-88209483D01*
X151357547Y-88266217D01*
X151334285Y-88333294D01*
X151320867Y-88349161D01*
X151298071Y-88371997D01*
X151294231Y-88378227D01*
X151294230Y-88378228D01*
X151211362Y-88512665D01*
X151206791Y-88520080D01*
X151152026Y-88685191D01*
X151151326Y-88692027D01*
X151151325Y-88692030D01*
X151147279Y-88731526D01*
X151141500Y-88787928D01*
X151141500Y-89487072D01*
X151141837Y-89490318D01*
X151141837Y-89490322D01*
X151148764Y-89557079D01*
X151152293Y-89591093D01*
X151154474Y-89597629D01*
X151154474Y-89597631D01*
X151168467Y-89639572D01*
X151207346Y-89756107D01*
X151298884Y-89904031D01*
X151305900Y-89911034D01*
X151306139Y-89911273D01*
X151307105Y-89913038D01*
X151308613Y-89914941D01*
X151308287Y-89915199D01*
X151340219Y-89973554D01*
X151335218Y-90044375D01*
X151306292Y-90089470D01*
X151303636Y-90092131D01*
X151294625Y-90103540D01*
X151211088Y-90239063D01*
X151204944Y-90252241D01*
X151154685Y-90403766D01*
X151151819Y-90417132D01*
X151142328Y-90509770D01*
X151142000Y-90516185D01*
X151142000Y-90590385D01*
X151146475Y-90605624D01*
X151147865Y-90606829D01*
X151155548Y-90608500D01*
X153089885Y-90608500D01*
X153105124Y-90604025D01*
X153106329Y-90602635D01*
X153108000Y-90594952D01*
X153108000Y-90516234D01*
X153107663Y-90509718D01*
X153097925Y-90415868D01*
X153095032Y-90402472D01*
X153044512Y-90251047D01*
X153038347Y-90237885D01*
X152954574Y-90102508D01*
X152945536Y-90091106D01*
X152943861Y-90089433D01*
X152943081Y-90088007D01*
X152940993Y-90085373D01*
X152941444Y-90085016D01*
X152909781Y-90027151D01*
X152914784Y-89956331D01*
X152943701Y-89911246D01*
X152946756Y-89908185D01*
X152951929Y-89903003D01*
X152958686Y-89892041D01*
X153039369Y-89761150D01*
X153039370Y-89761148D01*
X153043209Y-89754920D01*
X153097974Y-89589809D01*
X153101328Y-89557079D01*
X153105097Y-89520288D01*
X153108500Y-89487072D01*
X153108500Y-88787928D01*
X153106434Y-88768017D01*
X153098419Y-88690765D01*
X153098418Y-88690761D01*
X153097707Y-88683907D01*
X153092821Y-88669260D01*
X153044972Y-88525841D01*
X153042654Y-88518893D01*
X152968882Y-88399678D01*
X152950044Y-88331227D01*
X152966907Y-88270376D01*
X153006223Y-88202279D01*
X153006224Y-88202278D01*
X153009527Y-88196556D01*
X153068542Y-88014928D01*
X153070255Y-87998636D01*
X153087814Y-87831565D01*
X153088504Y-87825000D01*
X153076362Y-87709476D01*
X153069232Y-87641635D01*
X153069232Y-87641633D01*
X153068542Y-87635072D01*
X153009527Y-87453444D01*
X152995727Y-87429542D01*
X152919493Y-87297500D01*
X152902755Y-87228504D01*
X152925976Y-87161413D01*
X152981783Y-87117526D01*
X153028612Y-87108500D01*
X156891405Y-87108500D01*
X156959526Y-87128502D01*
X157006019Y-87182158D01*
X157016123Y-87252432D01*
X156986629Y-87317012D01*
X156980500Y-87323595D01*
X153219604Y-91084491D01*
X153157292Y-91118517D01*
X153103729Y-91118517D01*
X153094456Y-91116500D01*
X152397115Y-91116500D01*
X152381876Y-91120975D01*
X152380671Y-91122365D01*
X152379000Y-91130048D01*
X152379000Y-91872905D01*
X152358998Y-91941026D01*
X152342095Y-91962000D01*
X151974500Y-92329595D01*
X151912188Y-92363621D01*
X151885405Y-92366500D01*
X151030382Y-92366500D01*
X150962261Y-92346498D01*
X150915768Y-92292842D01*
X150912401Y-92284731D01*
X150903769Y-92261707D01*
X150903767Y-92261703D01*
X150900615Y-92253295D01*
X150813261Y-92136739D01*
X150696705Y-92049385D01*
X150560316Y-91998255D01*
X150498134Y-91991500D01*
X150001866Y-91991500D01*
X149998469Y-91991869D01*
X149962044Y-91995826D01*
X149939684Y-91998255D01*
X149939420Y-91995826D01*
X149910580Y-91995826D01*
X149910316Y-91998255D01*
X149851531Y-91991869D01*
X149848134Y-91991500D01*
X149351866Y-91991500D01*
X149348469Y-91991869D01*
X149312044Y-91995826D01*
X149289684Y-91998255D01*
X149289420Y-91995826D01*
X149260580Y-91995826D01*
X149260316Y-91998255D01*
X149201531Y-91991869D01*
X149198134Y-91991500D01*
X148701866Y-91991500D01*
X148698469Y-91991869D01*
X148662044Y-91995826D01*
X148639684Y-91998255D01*
X148639420Y-91995826D01*
X148610580Y-91995826D01*
X148610316Y-91998255D01*
X148551531Y-91991869D01*
X148548134Y-91991500D01*
X148051866Y-91991500D01*
X148048469Y-91991869D01*
X148012044Y-91995826D01*
X147989684Y-91998255D01*
X147989420Y-91995826D01*
X147960580Y-91995826D01*
X147960316Y-91998255D01*
X147901531Y-91991869D01*
X147898134Y-91991500D01*
X147401866Y-91991500D01*
X147398469Y-91991869D01*
X147362044Y-91995826D01*
X147339684Y-91998255D01*
X147339452Y-91996116D01*
X147310488Y-91996166D01*
X147310207Y-91998748D01*
X147251486Y-91992369D01*
X147244672Y-91992000D01*
X147218115Y-91992000D01*
X147202876Y-91996475D01*
X147180611Y-92022170D01*
X147179799Y-92021466D01*
X147173596Y-92032826D01*
X147111284Y-92066851D01*
X147040468Y-92061787D01*
X146983632Y-92019241D01*
X146958821Y-91952721D01*
X146958500Y-91943731D01*
X146958500Y-91502024D01*
X146978502Y-91433903D01*
X146990858Y-91417721D01*
X147064040Y-91336444D01*
X147137755Y-91208766D01*
X151142000Y-91208766D01*
X151142337Y-91215282D01*
X151152075Y-91309132D01*
X151154968Y-91322528D01*
X151205488Y-91473953D01*
X151211653Y-91487115D01*
X151295426Y-91622492D01*
X151304460Y-91633890D01*
X151417129Y-91746363D01*
X151428540Y-91755375D01*
X151564063Y-91838912D01*
X151577241Y-91845056D01*
X151728766Y-91895315D01*
X151742132Y-91898181D01*
X151834770Y-91907672D01*
X151841185Y-91908000D01*
X151852885Y-91908000D01*
X151868124Y-91903525D01*
X151869329Y-91902135D01*
X151871000Y-91894452D01*
X151871000Y-91134615D01*
X151866525Y-91119376D01*
X151865135Y-91118171D01*
X151857452Y-91116500D01*
X151160115Y-91116500D01*
X151144876Y-91120975D01*
X151143671Y-91122365D01*
X151142000Y-91130048D01*
X151142000Y-91208766D01*
X147137755Y-91208766D01*
X147159527Y-91171056D01*
X147218542Y-90989428D01*
X147223360Y-90943593D01*
X147237814Y-90806065D01*
X147238504Y-90799500D01*
X147229190Y-90710879D01*
X147219232Y-90616135D01*
X147219232Y-90616133D01*
X147218542Y-90609572D01*
X147159527Y-90427944D01*
X147064040Y-90262556D01*
X147054753Y-90252241D01*
X147002141Y-90193810D01*
X146971423Y-90129803D01*
X146980188Y-90059349D01*
X147025651Y-90004818D01*
X147095777Y-89983500D01*
X147652633Y-89983500D01*
X147663816Y-89984027D01*
X147671309Y-89985702D01*
X147679235Y-89985453D01*
X147679236Y-89985453D01*
X147739386Y-89983562D01*
X147743345Y-89983500D01*
X147771256Y-89983500D01*
X147775191Y-89983003D01*
X147775256Y-89982995D01*
X147787093Y-89982062D01*
X147819351Y-89981048D01*
X147823370Y-89980922D01*
X147831289Y-89980673D01*
X147850743Y-89975021D01*
X147870100Y-89971013D01*
X147882330Y-89969468D01*
X147882331Y-89969468D01*
X147890197Y-89968474D01*
X147897568Y-89965555D01*
X147897570Y-89965555D01*
X147931312Y-89952196D01*
X147942542Y-89948351D01*
X147977383Y-89938229D01*
X147977384Y-89938229D01*
X147984993Y-89936018D01*
X147991812Y-89931985D01*
X147991817Y-89931983D01*
X148002428Y-89925707D01*
X148020176Y-89917012D01*
X148039017Y-89909552D01*
X148056608Y-89896772D01*
X148074787Y-89883564D01*
X148084707Y-89877048D01*
X148115935Y-89858580D01*
X148115938Y-89858578D01*
X148122762Y-89854542D01*
X148137083Y-89840221D01*
X148152117Y-89827380D01*
X148156160Y-89824443D01*
X148168507Y-89815472D01*
X148196688Y-89781407D01*
X148204678Y-89772626D01*
X148692258Y-89285047D01*
X148700537Y-89277513D01*
X148707018Y-89273400D01*
X148753644Y-89223748D01*
X148756398Y-89220907D01*
X148776135Y-89201170D01*
X148778615Y-89197973D01*
X148786320Y-89188951D01*
X148816586Y-89156721D01*
X148820405Y-89149775D01*
X148820407Y-89149772D01*
X148826348Y-89138966D01*
X148837199Y-89122447D01*
X148844758Y-89112701D01*
X148849614Y-89106441D01*
X148852759Y-89099172D01*
X148852762Y-89099168D01*
X148867174Y-89065863D01*
X148872391Y-89055213D01*
X148893695Y-89016460D01*
X148898733Y-88996837D01*
X148905137Y-88978134D01*
X148910033Y-88966820D01*
X148910033Y-88966819D01*
X148913181Y-88959545D01*
X148914420Y-88951722D01*
X148914423Y-88951712D01*
X148920099Y-88915876D01*
X148922505Y-88904256D01*
X148931528Y-88869111D01*
X148931528Y-88869110D01*
X148933500Y-88861430D01*
X148933500Y-88841176D01*
X148935051Y-88821465D01*
X148936980Y-88809286D01*
X148938220Y-88801457D01*
X148934059Y-88757438D01*
X148933500Y-88745581D01*
X148933500Y-88334500D01*
X148953502Y-88266379D01*
X149007158Y-88219886D01*
X149059500Y-88208500D01*
X149198134Y-88208500D01*
X149260316Y-88201745D01*
X149260580Y-88204174D01*
X149289420Y-88204174D01*
X149289684Y-88201745D01*
X149351866Y-88208500D01*
X149848134Y-88208500D01*
X149910316Y-88201745D01*
X149910580Y-88204174D01*
X149939420Y-88204174D01*
X149939684Y-88201745D01*
X150001866Y-88208500D01*
X150498134Y-88208500D01*
X150560316Y-88201745D01*
X150696705Y-88150615D01*
X150813261Y-88063261D01*
X150900615Y-87946705D01*
X150951745Y-87810316D01*
X150958500Y-87748134D01*
X150958500Y-87439595D01*
X150978502Y-87371474D01*
X150995405Y-87350499D01*
X151200501Y-87145404D01*
X151262813Y-87111379D01*
X151289596Y-87108500D01*
X151321388Y-87108500D01*
X151389509Y-87128502D01*
G37*
%TD.AperFunction*%
%TA.AperFunction,Conductor*%
G36*
X140692026Y-84925144D02*
G01*
X140719875Y-84956994D01*
X140779987Y-85055088D01*
X140926250Y-85223938D01*
X141098126Y-85366632D01*
X141178164Y-85413402D01*
X141184070Y-85416853D01*
X141232794Y-85468491D01*
X141246500Y-85525641D01*
X141246500Y-85526233D01*
X141245973Y-85537416D01*
X141244298Y-85544909D01*
X141244547Y-85552835D01*
X141244547Y-85552836D01*
X141246438Y-85612986D01*
X141246500Y-85616945D01*
X141246500Y-85644856D01*
X141246997Y-85648790D01*
X141246997Y-85648791D01*
X141247005Y-85648856D01*
X141247938Y-85660693D01*
X141249327Y-85704889D01*
X141254978Y-85724339D01*
X141258987Y-85743700D01*
X141261526Y-85763797D01*
X141264445Y-85771168D01*
X141264445Y-85771170D01*
X141277804Y-85804912D01*
X141281649Y-85816142D01*
X141293982Y-85858593D01*
X141298015Y-85865412D01*
X141298017Y-85865417D01*
X141304293Y-85876028D01*
X141312988Y-85893776D01*
X141320448Y-85912617D01*
X141325110Y-85919033D01*
X141325110Y-85919034D01*
X141346436Y-85948387D01*
X141352952Y-85958307D01*
X141375458Y-85996362D01*
X141376479Y-85997383D01*
X141401374Y-86060780D01*
X141387477Y-86130403D01*
X141338145Y-86181461D01*
X141311367Y-86192823D01*
X141290076Y-86199075D01*
X141288871Y-86200465D01*
X141287200Y-86208148D01*
X141287200Y-87180485D01*
X141291675Y-87195724D01*
X141293065Y-87196929D01*
X141300748Y-87198600D01*
X142023084Y-87198600D01*
X142038323Y-87194125D01*
X142039528Y-87192735D01*
X142041199Y-87185052D01*
X142041199Y-86815014D01*
X142061201Y-86746893D01*
X142114857Y-86700400D01*
X142186914Y-86690566D01*
X142191020Y-86691216D01*
X142215522Y-86695098D01*
X142227140Y-86697504D01*
X142262289Y-86706528D01*
X142269970Y-86708500D01*
X142290231Y-86708500D01*
X142309940Y-86710051D01*
X142329943Y-86713219D01*
X142337835Y-86712473D01*
X142343062Y-86711979D01*
X142373954Y-86709059D01*
X142385811Y-86708500D01*
X143565500Y-86708500D01*
X143633621Y-86728502D01*
X143680114Y-86782158D01*
X143691500Y-86834500D01*
X143691500Y-87748134D01*
X143698255Y-87810316D01*
X143749385Y-87946705D01*
X143836739Y-88063261D01*
X143953295Y-88150615D01*
X144089684Y-88201745D01*
X144151866Y-88208500D01*
X144648134Y-88208500D01*
X144710316Y-88201745D01*
X144710580Y-88204174D01*
X144739420Y-88204174D01*
X144739684Y-88201745D01*
X144801866Y-88208500D01*
X145298134Y-88208500D01*
X145360316Y-88201745D01*
X145360580Y-88204174D01*
X145389420Y-88204174D01*
X145389684Y-88201745D01*
X145451866Y-88208500D01*
X145948134Y-88208500D01*
X145965151Y-88206651D01*
X146035031Y-88219178D01*
X146087048Y-88267497D01*
X146104684Y-88336269D01*
X146104069Y-88345082D01*
X146099096Y-88392400D01*
X146118382Y-88575888D01*
X146118533Y-88577329D01*
X146105761Y-88647168D01*
X146057259Y-88699014D01*
X145993223Y-88716500D01*
X144406563Y-88716500D01*
X144395379Y-88715973D01*
X144387891Y-88714299D01*
X144379968Y-88714548D01*
X144319833Y-88716438D01*
X144315875Y-88716500D01*
X144287944Y-88716500D01*
X144284029Y-88716995D01*
X144284025Y-88716995D01*
X144283967Y-88717003D01*
X144283938Y-88717006D01*
X144272096Y-88717939D01*
X144227910Y-88719327D01*
X144210544Y-88724372D01*
X144208458Y-88724978D01*
X144189106Y-88728986D01*
X144176868Y-88730532D01*
X144176866Y-88730533D01*
X144169003Y-88731526D01*
X144127886Y-88747806D01*
X144116685Y-88751641D01*
X144074206Y-88763982D01*
X144067387Y-88768015D01*
X144067382Y-88768017D01*
X144056771Y-88774293D01*
X144039021Y-88782990D01*
X144020183Y-88790448D01*
X144013767Y-88795109D01*
X144013766Y-88795110D01*
X143984425Y-88816428D01*
X143974501Y-88822947D01*
X143943260Y-88841422D01*
X143943255Y-88841426D01*
X143936437Y-88845458D01*
X143922113Y-88859782D01*
X143907081Y-88872621D01*
X143890693Y-88884528D01*
X143874373Y-88904256D01*
X143862512Y-88918593D01*
X143854522Y-88927373D01*
X141529300Y-91252595D01*
X141466988Y-91286621D01*
X141440205Y-91289500D01*
X138937400Y-91289500D01*
X138869279Y-91269498D01*
X138822786Y-91215842D01*
X138818454Y-91195926D01*
X138816504Y-91196498D01*
X138806925Y-91163876D01*
X138805535Y-91162671D01*
X138797852Y-91161000D01*
X137687900Y-91161000D01*
X137619779Y-91140998D01*
X137573286Y-91087342D01*
X137561900Y-91035000D01*
X137561900Y-90779000D01*
X137581902Y-90710879D01*
X137635558Y-90664386D01*
X137687900Y-90653000D01*
X138793285Y-90653000D01*
X138808524Y-90648525D01*
X138809729Y-90647135D01*
X138811400Y-90639452D01*
X138811400Y-90623234D01*
X138811063Y-90616718D01*
X138801325Y-90522868D01*
X138798432Y-90509472D01*
X138747912Y-90358047D01*
X138741747Y-90344885D01*
X138676227Y-90239005D01*
X138657390Y-90170553D01*
X138678552Y-90102784D01*
X138732993Y-90057213D01*
X138809568Y-90049456D01*
X138871212Y-90062559D01*
X138985856Y-90086928D01*
X138985861Y-90086928D01*
X138992313Y-90088300D01*
X139183287Y-90088300D01*
X139189739Y-90086928D01*
X139189744Y-90086928D01*
X139276687Y-90068447D01*
X139370088Y-90048594D01*
X139429404Y-90022185D01*
X139538522Y-89973603D01*
X139538524Y-89973602D01*
X139544552Y-89970918D01*
X139699053Y-89858666D01*
X139703475Y-89853755D01*
X139822421Y-89721652D01*
X139822422Y-89721651D01*
X139826840Y-89716744D01*
X139922327Y-89551356D01*
X139981342Y-89369728D01*
X139992286Y-89265607D01*
X140000614Y-89186365D01*
X140001304Y-89179800D01*
X139988756Y-89060411D01*
X139982032Y-88996435D01*
X139982032Y-88996433D01*
X139981342Y-88989872D01*
X139944354Y-88876035D01*
X139942326Y-88805069D01*
X139978989Y-88744271D01*
X140042701Y-88712945D01*
X140064187Y-88711100D01*
X140281334Y-88711100D01*
X140343516Y-88704345D01*
X140350916Y-88701571D01*
X140355142Y-88700566D01*
X140413439Y-88700566D01*
X140430846Y-88704705D01*
X140481714Y-88710231D01*
X140488528Y-88710600D01*
X140761085Y-88710600D01*
X140776324Y-88706125D01*
X140777529Y-88704735D01*
X140779200Y-88697052D01*
X140779200Y-88692484D01*
X141287200Y-88692484D01*
X141291675Y-88707723D01*
X141293065Y-88708928D01*
X141300748Y-88710599D01*
X141577869Y-88710599D01*
X141584690Y-88710229D01*
X141635552Y-88704705D01*
X141650804Y-88701079D01*
X141771254Y-88655924D01*
X141786849Y-88647386D01*
X141888924Y-88570885D01*
X141901485Y-88558324D01*
X141977986Y-88456249D01*
X141986524Y-88440654D01*
X142031678Y-88320206D01*
X142035305Y-88304951D01*
X142040831Y-88254086D01*
X142041200Y-88247272D01*
X142041200Y-87724715D01*
X142036725Y-87709476D01*
X142035335Y-87708271D01*
X142027652Y-87706600D01*
X141305315Y-87706600D01*
X141290076Y-87711075D01*
X141288871Y-87712465D01*
X141287200Y-87720148D01*
X141287200Y-88692484D01*
X140779200Y-88692484D01*
X140779200Y-86212716D01*
X140774725Y-86197477D01*
X140773335Y-86196272D01*
X140765652Y-86194601D01*
X140488531Y-86194601D01*
X140481710Y-86194971D01*
X140430851Y-86200495D01*
X140413436Y-86204635D01*
X140355142Y-86204634D01*
X140350916Y-86203629D01*
X140343516Y-86200855D01*
X140281334Y-86194100D01*
X140099500Y-86194100D01*
X140031379Y-86174098D01*
X139984886Y-86120442D01*
X139973500Y-86068100D01*
X139973500Y-85530427D01*
X139993502Y-85462306D01*
X140034618Y-85422550D01*
X140037994Y-85420896D01*
X140219860Y-85291173D01*
X140223674Y-85287373D01*
X140335186Y-85176249D01*
X140378096Y-85133489D01*
X140508453Y-84952077D01*
X140509776Y-84953028D01*
X140556645Y-84909857D01*
X140626580Y-84897625D01*
X140692026Y-84925144D01*
G37*
%TD.AperFunction*%
%TD*%
M02*
